<?xml version="1.0" standalone="no"?>
<!DOCTYPE svg PUBLIC "-//W3C//DTD SVG 1.1//EN" "http://www.w3.org/Graphics/SVG/1.1/DTD/svg11.dtd" >
<svg xmlns="http://www.w3.org/2000/svg" xmlns:xlink="http://www.w3.org/1999/xlink" version="1.1">
<metadata>
Created by FontForge 20150318 at Mon Nov  9 19:19:05 2015
 By uniteet7
(c) Copyright (c) 2010. All rights reserved. Fakt is a design by Thomas Thiemich, published by OurType. www.ourtype.com
</metadata>
<defs>
<font id="FaktPro-Normal" horiz-adv-x="720" >
  <font-face 
    font-family="Fakt Pro Nor"
    font-weight="400"
    font-stretch="normal"
    units-per-em="2048"
    panose-1="2 0 0 0 0 0 0 0 0 0"
    ascent="1532"
    descent="-516"
    x-height="999"
    cap-height="1409"
    bbox="-352 -641 2384 2073"
    underline-thickness="0"
    underline-position="0"
    unicode-range="U+0020-FB04"
  />
<missing-glyph horiz-adv-x="748" 
d="M68 0v1365h544v-1365h-544zM136 68h408v1229h-408v-1229z" />
    <glyph glyph-name="uniFB00" unicode="ff" horiz-adv-x="1245" 
d="M8 852v147h189v164q0 82 21.5 145.5t63.5 105.5t105.5 63.5t144.5 21.5h115v-156h-98q-49 0 -82 -12t-52.5 -35.5t-28.5 -58.5t-9 -82v-156h434v164q0 82 21.5 145.5t63.5 105.5t105.5 63.5t145.5 21.5h123v-156h-107q-49 0 -81.5 -12t-52 -35.5t-29 -58.5t-9.5 -82v-156
h246v-147h-246v-852h-180v852h-434v-852h-180v852h-189z" />
    <glyph glyph-name="uniFB01" unicode="fi" horiz-adv-x="1146" 
d="M8 852v147h189v164q0 82 21.5 145.5t63.5 105.5t105.5 63.5t144.5 21.5h115v-156h-98q-49 0 -82 -12t-52.5 -35.5t-28.5 -58.5t-9 -82v-156h614v-999h-180v852h-434v-852h-180v852h-189zM803 1294v205h196v-205h-196z" />
    <glyph glyph-name="uniFB02" unicode="fl" horiz-adv-x="1146" 
d="M8 852v147h189v164q0 82 21.5 145.5t63.5 105.5t105.5 63.5t144.5 21.5h459v-1499h-180v1343h-262q-49 0 -82 -12t-52.5 -35.5t-28.5 -58.5t-9 -82v-156h221v-147h-221v-852h-180v852h-189z" />
    <glyph glyph-name="uniFB03" unicode="ffi" horiz-adv-x="1761" 
d="M8 852v147h189v164q0 82 21.5 145.5t63.5 105.5t105.5 63.5t144.5 21.5h132v-156h-115q-49 0 -82 -12t-52.5 -35.5t-28.5 -58.5t-9 -82v-156h434v164q0 82 21.5 145.5t63.5 105.5t105.5 63.5t145.5 21.5h115v-156h-99q-49 0 -81.5 -12t-52 -35.5t-29 -58.5t-9.5 -82v-156
h615v-999h-181v852h-434v-852h-180v852h-434v-852h-180v852h-189zM1417 1294v205h197v-205h-197z" />
    <glyph glyph-name="uniFB04" unicode="ffl" horiz-adv-x="1761" 
d="M8 852v147h189v164q0 82 21.5 145.5t63.5 105.5t105.5 63.5t144.5 21.5h115v-156h-98q-49 0 -82 -12t-52.5 -35.5t-28.5 -58.5t-9 -82v-156h434v164q0 82 21.5 145.5t63.5 105.5t105.5 63.5t145.5 21.5h459v-1499h-181v1343h-262q-49 0 -81.5 -12t-52 -35.5t-29 -58.5
t-9.5 -82v-156h271v-147h-271v-852h-180v852h-434v-852h-180v852h-189z" />
    <glyph glyph-name="f_b.liga" unicode="fb" horiz-adv-x="1851" 
d="M8 852v147h189v164q0 82 21.5 145.5t63.5 105.5t105.5 63.5t144.5 21.5h459v-319v-72t-1 -77t-3 -93t-4 -94h8q25 47 59.5 82t79 56.5t94.5 31.5t103 10q96 0 177 -35t140.5 -101.5t92 -162.5t32.5 -217t-34.5 -219.5t-98 -169t-147.5 -107.5t-178 -37q-53 0 -100.5 10.5
t-88.5 32t-73.5 55t-57.5 83.5h-8v-156h-172v1343h-262q-49 0 -82 -12t-52.5 -35.5t-28.5 -58.5t-9 -82v-156h221v-147h-221v-852h-180v852h-189zM991 500q0 -86 22.5 -156t62.5 -117t94.5 -71.5t115.5 -24.5t115.5 25.5t94.5 75t62.5 120t22.5 156.5t-22.5 154.5
t-62.5 113.5t-94 68.5t-116 23.5q-59 0 -112.5 -23.5t-93.5 -68.5t-63.5 -110.5t-25.5 -149.5v-16z" />
    <glyph glyph-name="f_h.liga" unicode="fh" horiz-adv-x="1810" 
d="M8 852v147h189v164q0 82 21.5 145.5t63.5 105.5t105.5 63.5t144.5 21.5h459v-311v-72t-1 -77t-3 -93t-4 -94h8q20 43 51 74.5t71 53t87 33t103 11.5q78 0 143 -22.5t116.5 -71.5t80 -130t28.5 -194v-606h-180v582q0 78 -16.5 133t-46 89t-71.5 49t-95 15
q-57 0 -107.5 -24.5t-86.5 -71.5t-56.5 -112.5t-20.5 -143.5v-516h-180v1343h-262q-49 0 -82 -12t-52.5 -35.5t-28.5 -58.5t-9 -82v-156h221v-147h-221v-852h-180v852h-189z" />
    <glyph glyph-name="f_j.liga" unicode="fj" horiz-adv-x="1146" 
d="M8 852v147h189v164q0 82 21.5 145.5t63.5 105.5t105.5 63.5t144.5 21.5h115v-156h-98q-49 0 -82 -12t-52.5 -35.5t-28.5 -58.5t-9 -82v-156h614v-1179q0 -59 -15 -108.5t-48 -86.5t-86.5 -56.5t-128.5 -19.5h-66v156h49q33 0 54.5 9.5t35 27.5t19.5 45t6 66v999h-434
v-852h-180v852h-189zM803 1294v205h196v-205h-196z" />
    <glyph glyph-name="f_k.liga" unicode="fk" horiz-adv-x="1687" 
d="M8 852v147h189v164q0 82 21.5 145.5t63.5 105.5t105.5 63.5t144.5 21.5h459v-981l434 481h213l-370 -399l411 -600h-213l-321 469l-154 -168v-301h-180v1343h-262q-49 0 -82 -12t-52.5 -35.5t-28.5 -58.5t-9 -82v-156h221v-147h-221v-852h-180v852h-189z" />
    <glyph glyph-name="f_t.liga" unicode="ft" horiz-adv-x="1286" 
d="M8 852v147h189v164q0 82 21.5 145.5t63.5 105.5t105.5 63.5t144.5 21.5h115v-156h-98q-49 0 -82 -12t-52.5 -35.5t-28.5 -58.5t-9 -82v-156h418v304h180v-304h262v-147h-262v-549q0 -39 9 -67.5t25.5 -46t41 -25.5t55.5 -8h131v-156h-147q-74 0 -129.5 18.5t-92.5 55.5
t-55 92t-18 129v557h-418v-852h-180v852h-189z" />
    <glyph glyph-name="f_f_b.liga" unicode="ffb" horiz-adv-x="2465" 
d="M8 852v147h189v164q0 82 21.5 145.5t63.5 105.5t105.5 63.5t144.5 21.5h115v-156h-98q-49 0 -82 -12t-52.5 -35.5t-28.5 -58.5t-9 -82v-156h434v164q0 82 21.5 145.5t63.5 105.5t105.5 63.5t145.5 21.5h459v-319v-72t-1 -77t-3.5 -93t-4.5 -94h9q25 47 59.5 82t78.5 56.5
t94 31.5t104 10q96 0 177 -35t140 -101.5t92 -162.5t33 -217t-35 -219.5t-98.5 -169t-147.5 -107.5t-178 -37q-53 0 -100 10.5t-88 32t-74 55t-57 83.5h-9v-156h-172v1343h-262q-49 0 -81.5 -12t-52 -35.5t-29 -58.5t-9.5 -82v-156h271v-147h-271v-852h-180v852h-434v-852
h-180v852h-189zM1606 500q0 -86 22.5 -156t62.5 -117t94 -71.5t116 -24.5q61 0 115.5 25.5t94 75t62 120t22.5 156.5t-22.5 154.5t-62 113.5t-94 68.5t-115.5 23.5q-59 0 -112.5 -23.5t-93.5 -68.5t-63.5 -110.5t-25.5 -149.5v-16z" />
    <glyph glyph-name="f_f_h.liga" unicode="ffh" horiz-adv-x="2424" 
d="M8 852v147h189v164q0 82 21.5 145.5t63.5 105.5t105.5 63.5t144.5 21.5h115v-156h-98q-49 0 -82 -12t-52.5 -35.5t-28.5 -58.5t-9 -82v-156h434v164q0 82 21.5 145.5t63.5 105.5t105.5 63.5t145.5 21.5h459v-311v-72t-1 -77t-3.5 -93t-4.5 -94h9q20 43 51 74.5t70.5 53
t87 33t102.5 11.5q78 0 143.5 -22.5t116.5 -71.5t80 -130t29 -194v-606h-181v582q0 78 -16 133t-46 89t-72 49t-95 15q-57 0 -106.5 -23.5t-86 -69.5t-57 -109.5t-20.5 -141.5v-524h-181v1343h-262q-49 0 -81.5 -12t-52 -35.5t-29 -58.5t-9.5 -82v-156h271v-147h-271v-852
h-180v852h-434v-852h-180v852h-189z" />
    <glyph glyph-name="f_f_j.liga" unicode="ffj" horiz-adv-x="1761" 
d="M8 852v147h189v164q0 82 21.5 145.5t63.5 105.5t105.5 63.5t144.5 21.5h132v-156h-115q-49 0 -82 -12t-52.5 -35.5t-28.5 -58.5t-9 -82v-156h434v164q0 82 21.5 145.5t63.5 105.5t105.5 63.5t145.5 21.5h115v-156h-99q-49 0 -81.5 -12t-52 -35.5t-29 -58.5t-9.5 -82v-156
h615v-1179q0 -59 -15.5 -108.5t-48.5 -86.5t-86 -56.5t-129 -19.5h-65v156h49q33 0 54 9.5t34.5 27.5t19.5 45t6 66v999h-434v-852h-180v852h-434v-852h-180v852h-189zM1417 1294v205h197v-205h-197z" />
    <glyph glyph-name="f_f_k.liga" unicode="ffk" horiz-adv-x="2301" 
d="M8 852v147h189v164q0 82 21.5 145.5t63.5 105.5t105.5 63.5t144.5 21.5h115v-156h-98q-49 0 -82 -12t-52.5 -35.5t-28.5 -58.5t-9 -82v-156h434v164q0 82 21.5 145.5t63.5 105.5t105.5 63.5t145.5 21.5h459v-981l434 481h213l-371 -399l412 -600h-213l-322 469l-153 -168
v-301h-181v1343h-262q-49 0 -81.5 -12t-52 -35.5t-29 -58.5t-9.5 -82v-156h271v-147h-271v-852h-180v852h-434v-852h-180v852h-189z" />
    <glyph glyph-name="f_f_t.liga" unicode="fft" horiz-adv-x="1900" 
d="M8 852v147h189v164q0 82 21.5 145.5t63.5 105.5t105.5 63.5t144.5 21.5h115v-156h-98q-49 0 -82 -12t-52.5 -35.5t-28.5 -58.5t-9 -82v-156h434v164q0 82 21.5 145.5t63.5 105.5t105.5 63.5t145.5 21.5h115v-156h-99q-49 0 -81.5 -12t-52 -35.5t-29 -58.5t-9.5 -82v-156
h418v304h180v-304h262v-147h-262v-549q0 -39 9.5 -67.5t25.5 -46t41 -25.5t55 -8h131v-156h-147q-74 0 -129 18.5t-92 55.5t-55.5 92t-18.5 129v557h-418v-852h-180v852h-434v-852h-180v852h-189z" />
    <glyph glyph-name=".notdef" horiz-adv-x="748" 
d="M68 0v1365h544v-1365h-544zM136 68h408v1229h-408v-1229z" />
    <glyph glyph-name="glyph1" horiz-adv-x="0" 
 />
    <glyph glyph-name="glyph2" horiz-adv-x="682" 
 />
    <glyph glyph-name="space" unicode=" " horiz-adv-x="450" 
 />
    <glyph glyph-name="exclam" unicode="!" horiz-adv-x="573" 
d="M180 0v221h213v-221h-213zM180 1016v393h213v-393l-57 -623h-98z" />
    <glyph glyph-name="quotedbl" unicode="&#x22;" horiz-adv-x="802" 
d="M131 1237v172h180v-172l-32 -344h-115zM492 1237v172h180v-172l-33 -344h-115z" />
    <glyph glyph-name="numbersign" unicode="#" horiz-adv-x="1261" 
d="M41 344v139h240l77 451h-235v139h260l59 336h164l-59 -336h295l59 336h164l-59 -336h215v-139h-240l-78 -451h236v-139h-260l-60 -344h-164l60 344h-295l-60 -344h-163l59 344h-215zM444 483h295l78 451h-295z" />
    <glyph glyph-name="dollar" unicode="$" horiz-adv-x="1163" 
d="M90 393h180q4 -63 28 -113.5t64.5 -85t94 -53t116.5 -18.5q68 0 122.5 17.5t93 50t59 79.5t20.5 107q0 51 -17 88t-49 63.5t-77 46t-111 39.5l-180 58q-59 18 -112.5 48t-98.5 75t-72.5 108.5t-27.5 145.5q0 76 26.5 139t74.5 112.5t115 81t144 43.5v222h181v-222
q74 -12 137 -41.5t111.5 -78t77 -110.5t34.5 -138h-180q-8 57 -32 101t-59.5 71.5t-80.5 42t-99 14.5q-53 0 -101 -13t-84 -42t-56.5 -70t-20.5 -96q0 -51 14.5 -87t44 -62.5t72.5 -47t107 -41.5l180 -57q84 -27 144.5 -62.5t101.5 -82.5t61.5 -106.5t20.5 -133.5
q0 -84 -29 -153.5t-81 -122t-124.5 -85t-158.5 -42.5v-228h-181v228q-86 12 -157.5 44.5t-122.5 86t-81 124t-32 156.5z" />
    <glyph glyph-name="percent" unicode="%" horiz-adv-x="1589" 
d="M57 1057q0 78 18.5 145.5t55.5 117.5t94.5 77.5t134.5 27.5q78 0 135.5 -27.5t95.5 -77.5t55.5 -117.5t17.5 -145.5t-17.5 -145.5t-55.5 -118t-95.5 -78t-135.5 -27.5t-135 27.5t-94 78t-55.5 118t-18.5 145.5zM213 1057q0 -59 10 -105.5t28.5 -77t46.5 -47t62 -16.5
q37 0 65 16.5t46 47t27.5 76.5t9.5 106q0 59 -9.5 105t-27.5 78t-46 47.5t-65 15.5t-64.5 -16.5t-46 -47.5t-27.5 -77t-9 -105zM369 -25l712 1459h140l-713 -1459h-139zM926 352q0 78 18.5 145.5t55 118t94 78t135.5 27.5t135 -27.5t95 -78t55.5 -118t17.5 -145.5
t-17.5 -145.5t-55.5 -117.5t-95 -77.5t-135 -27.5t-135.5 27.5t-94 77.5t-55 117.5t-18.5 145.5zM1081 352q0 -59 10.5 -105t29 -77t46 -47.5t62.5 -16.5q37 0 64.5 16.5t46 47.5t27.5 77t9 105t-9 105.5t-27.5 78t-46 47t-64.5 15.5t-64.5 -16.5t-46 -47t-28 -76.5
t-9.5 -106z" />
    <glyph glyph-name="ampersand" unicode="&#x26;" horiz-adv-x="1458" 
d="M98 369q0 78 26 141t71 111.5t101 85t128 71.5q-47 49 -79 88t-51.5 75t-29.5 74t-10 83q0 66 25.5 126t74.5 107t122 75t163 28q88 0 159.5 -24t122 -65.5t77 -101t26.5 -129.5q0 -72 -27.5 -128t-73.5 -99t-104.5 -75t-136.5 -67l369 -372q16 35 27.5 71.5t19.5 76.5
t12 82t4 85v17h164v-41q0 -39 -5 -87.5t-18.5 -102.5t-35 -110.5t-54.5 -109.5l252 -254h-213l-135 135q-39 -37 -84 -65.5t-100.5 -50t-121 -33t-140.5 -11.5q-123 0 -220.5 28t-166 80t-103.5 125t-35 161zM279 385q0 -61 25.5 -110.5t72.5 -83t109.5 -51t136.5 -17.5
q55 0 103 8t90 23.5t78 38t64 51.5l-430 432q-57 -29 -101 -56.5t-78 -61.5t-52 -77t-18 -96zM418 1106q0 -31 10 -60.5t29.5 -59.5t48.5 -61.5t72 -76.5q66 31 112.5 55.5t83.5 55t57.5 69.5t20.5 86q0 37 -13.5 70t-41 57.5t-67.5 38.5t-91 14q-53 0 -95 -15t-71 -42
t-42 -60.5t-13 -70.5z" />
    <glyph glyph-name="quotesingle" unicode="'" horiz-adv-x="442" 
d="M131 1237v172h180v-172l-32 -344h-115z" />
    <glyph glyph-name="parenleft" unicode="(" horiz-adv-x="581" 
d="M49 532q0 156 31 303.5t80 275.5t107.5 230.5t117.5 182.5h164q-49 -63 -104.5 -165t-106.5 -234t-84 -285.5t-33 -307.5t34 -307t85 -287.5t106.5 -236.5t102.5 -168h-164q-59 78 -117.5 182.5t-107.5 233.5t-80 278.5t-31 304.5z" />
    <glyph glyph-name="parenright" unicode=")" horiz-adv-x="581" 
d="M33 -467q47 66 102 168t106.5 236.5t85 288t33.5 306.5q0 154 -32.5 307.5t-83.5 285.5t-106.5 233.5t-104.5 165.5h164q59 -80 117.5 -182.5t107.5 -230.5t79.5 -275.5t30.5 -303.5t-30.5 -305t-79.5 -278t-107.5 -233.5t-117.5 -182.5h-164z" />
    <glyph glyph-name="asterisk" unicode="*" horiz-adv-x="933" 
d="M133 1128l45 142l248 -117l-33 272h148l-35 -274l250 119l45 -142l-269 -53l187 -198l-119 -86l-135 237l-131 -237l-119 86l184 200z" />
    <glyph glyph-name="plus" unicode="+" horiz-adv-x="1163" 
d="M115 442v156h385v385h164v-385h385v-156h-385v-385h-164v385h-385z" />
    <glyph glyph-name="comma" unicode="," horiz-adv-x="540" 
d="M156 0v238h229v-222l-90 -335h-107l66 319h-98z" />
    <glyph glyph-name="hyphen" unicode="-" horiz-adv-x="811" 
d="M123 434v164h565v-164h-565z" />
    <glyph glyph-name="period" unicode="." horiz-adv-x="540" 
d="M156 0v238h229v-238h-229z" />
    <glyph glyph-name="slash" unicode="/" horiz-adv-x="819" 
d="M16 -25l631 1459h156l-631 -1459h-156z" />
    <glyph glyph-name="zero" unicode="0" horiz-adv-x="1163" 
d="M90 705q0 158 27.5 289.5t87 231t154 154t223.5 54.5t223 -54.5t153.5 -154t87 -231.5t27.5 -289q0 -158 -27.5 -290t-87 -231.5t-153.5 -154t-223 -54.5t-223.5 54.5t-154 154t-87 231.5t-27.5 290zM279 705q0 -135 18 -241t56 -178.5t95.5 -109.5t133.5 -37t133 37
t95 109.5t56.5 178t18.5 241.5q0 135 -18.5 240.5t-56.5 178t-95.5 109.5t-132.5 37q-78 0 -135.5 -37t-95.5 -109.5t-55 -177t-17 -241.5z" />
    <glyph glyph-name="one" unicode="1" horiz-adv-x="1163" 
d="M123 1098l450 311h140v-1253h336v-156h-877v156h360v1030l-327 -228z" />
    <glyph glyph-name="two" unicode="2" horiz-adv-x="1163" 
d="M115 0q4 117 27.5 206t66.5 157.5t103.5 126t146.5 116.5l155 107q78 53 112 78.5t63.5 59.5t46 78t16.5 103q0 45 -15.5 88t-47 79t-82 57.5t-117.5 21.5q-68 0 -119 -18.5t-86 -54.5t-55.5 -89t-26.5 -125h-164q6 121 45 207t101.5 138.5t139.5 75t165 22.5
q96 0 177 -28t140.5 -80t92 -127t32.5 -167q0 -88 -25.5 -153.5t-67.5 -112.5t-77 -73.5t-133 -94.5l-156 -106q-76 -51 -126 -98.5t-76.5 -88.5t-36.5 -75.5t-15 -73.5h730v-156h-934z" />
    <glyph glyph-name="three" unicode="3" horiz-adv-x="1163" 
d="M98 426h172q0 -74 22.5 -129t63.5 -92t96.5 -55.5t120.5 -18.5q66 0 122.5 17.5t96 51t62.5 82t23 109.5q0 59 -24 107.5t-66 82t-97 52t-117 18.5h-106v156h106q51 0 98.5 17.5t82 50t54 77.5t19.5 99q0 53 -19.5 96t-54 71.5t-80.5 44t-100 15.5q-53 0 -99 -15.5
t-81 -47t-54.5 -80t-19.5 -111.5h-163q0 92 29.5 168t85 130t133 83t169.5 29q94 0 174 -28t136.5 -79t86 -121.5t29.5 -152.5q0 -49 -16 -99.5t-45 -94.5t-66.5 -75.5t-76.5 -46.5v-8q55 -14 103 -47t84 -80t55.5 -104.5t19.5 -120.5q0 -92 -37 -167t-103.5 -127
t-154.5 -80t-189 -28q-109 0 -195.5 28t-149 84t-96.5 141t-34 198z" />
    <glyph glyph-name="four" unicode="4" horiz-adv-x="1163" 
d="M66 352v131l679 926h148v-901h205v-156h-205v-352h-180v352h-647zM250 508h463v620z" />
    <glyph glyph-name="five" unicode="5" horiz-adv-x="1163" 
d="M98 377h181q6 -47 27.5 -91t58 -79t92 -55.5t125.5 -20.5q59 0 113.5 19.5t97.5 58.5t67.5 96t24.5 129t-22.5 130.5t-63.5 98t-97.5 61t-119.5 21.5q-41 0 -78 -9t-70 -26.5t-62.5 -43t-60.5 -60.5l-164 8l41 795h795v-164h-631l-24 -442h8q23 23 50.5 40t61 30.5
t73.5 20.5t85 7q94 0 178 -30.5t146.5 -89t98.5 -143.5t36 -187q0 -115 -40 -205t-107.5 -150.5t-154.5 -90.5t-181 -30q-106 0 -192.5 29t-148 81t-98.5 127t-45 165z" />
    <glyph glyph-name="six" unicode="6" horiz-adv-x="1163" 
d="M98 672q0 205 44 352t119 237.5t169 131.5t201 41q98 0 175 -28t129 -77t82 -118.5t40 -153.5h-180q-6 49 -22.5 88t-46.5 69.5t-74 47t-103 16.5q-66 0 -125.5 -30.5t-107.5 -97.5t-77.5 -175.5t-33.5 -259.5q20 43 58 76.5t87 58t104.5 38t110.5 13.5q98 0 179 -31.5
t140.5 -93t91.5 -146.5t32 -188q0 -109 -39 -196.5t-105.5 -148t-152.5 -91.5t-179 -31q-109 0 -202 38t-163.5 120t-110.5 216t-40 323zM311 440q0 -66 21.5 -122t61.5 -98t94.5 -65.5t117.5 -23.5t118.5 20.5t96.5 60.5t64.5 98.5t23.5 131.5q0 66 -22.5 122.5t-62.5 97
t-92 62t-109 21.5q-66 0 -122.5 -22.5t-99.5 -64.5t-66.5 -98t-23.5 -120z" />
    <glyph glyph-name="seven" unicode="7" horiz-adv-x="1163" 
d="M106 1245v164h967v-131l-598 -1278h-188l590 1245h-771z" />
    <glyph glyph-name="eight" unicode="8" horiz-adv-x="1163" 
d="M90 377q0 63 19.5 120.5t55.5 104.5t84 80t103 47v8q-43 14 -79.5 46t-65.5 75t-44.5 93t-15.5 102q0 82 31 152.5t87.5 121.5t137 79t179.5 28q98 0 179 -28t137 -79t87 -121.5t31 -152.5q0 -51 -15.5 -101.5t-44 -93.5t-65.5 -74.5t-80 -46.5v-8q55 -14 103.5 -47
t84 -80t55 -104.5t19.5 -120.5q0 -92 -34.5 -168t-100.5 -127t-157 -79t-199 -28q-109 0 -200 28t-156.5 79t-100.5 127t-35 168zM270 391q0 -61 22.5 -109.5t64.5 -82t99.5 -51t125.5 -17.5t125 17.5t99 51t64.5 82t22.5 109.5q0 57 -23.5 105.5t-66.5 83t-99.5 53
t-121.5 18.5q-66 0 -122.5 -18.5t-99.5 -53t-66.5 -82.5t-23.5 -106zM319 1051q0 -53 19.5 -98.5t55.5 -78t84 -50t104 -17.5q55 0 103 17.5t84 50t55.5 77.5t19.5 99q0 53 -19.5 97t-55.5 74.5t-84 47t-103 16.5t-103.5 -16.5t-84.5 -47t-55.5 -74.5t-19.5 -97z" />
    <glyph glyph-name="nine" unicode="9" horiz-adv-x="1163" 
d="M74 967q0 109 39 196.5t105.5 148t152.5 91.5t178 31q109 0 202 -38t163.5 -120t110.5 -216t40 -323q0 -207 -38 -354t-107.5 -236.5t-162.5 -130.5t-208 -41q-102 0 -180 27t-132.5 77t-86 118.5t-44.5 154.5h181q10 -47 28.5 -86t49 -69.5t76.5 -48t108 -17.5
q74 0 132 29.5t101 96.5t67.5 175.5t27.5 259.5q-20 -41 -58.5 -75.5t-87.5 -58t-104.5 -37t-110.5 -13.5q-98 0 -179 31.5t-140.5 93t-91 146.5t-31.5 188zM254 967q0 -66 22.5 -122.5t62.5 -97t92 -62t110 -21.5q66 0 122 22.5t99 64.5t66.5 98t23.5 120q0 63 -22.5 120.5
t-62.5 99.5t-94.5 65.5t-115.5 23.5t-115.5 -20.5t-96.5 -60.5t-66.5 -98.5t-24.5 -131.5z" />
    <glyph glyph-name="colon" unicode=":" horiz-adv-x="540" 
d="M156 0v238h229v-238h-229zM156 762v237h229v-237h-229z" />
    <glyph glyph-name="semicolon" unicode=";" horiz-adv-x="540" 
d="M156 0v238h229v-222l-90 -335h-107l66 319h-98zM156 762v237h229v-237h-229z" />
    <glyph glyph-name="less" unicode="&#x3c;" horiz-adv-x="1163" 
d="M147 442v156l869 369v-164l-686 -279l686 -278v-172z" />
    <glyph glyph-name="equal" unicode="=" horiz-adv-x="1163" 
d="M115 229v156h934v-156h-934zM115 655v156h934v-156h-934z" />
    <glyph glyph-name="greater" unicode="&#x3e;" horiz-adv-x="1163" 
d="M147 74v164l687 278l-687 279v172l869 -369v-156z" />
    <glyph glyph-name="question" unicode="?" horiz-adv-x="1032" 
d="M82 983q0 88 27.5 169t84 144.5t141.5 100.5t197 37q92 0 171 -26t136.5 -74t88 -116.5t30.5 -152.5q0 -113 -47 -181.5t-138 -140t-133 -123t-42 -137.5v-82h-180v58q0 129 46 206.5t138 151.5t130 117t38 123q0 47 -16.5 87t-48 70.5t-75.5 47t-98 16.5
q-68 0 -119 -22.5t-84.5 -63.5t-50 -94.5t-16.5 -114.5h-180zM401 0v221h213v-221h-213z" />
    <glyph glyph-name="at" unicode="@" horiz-adv-x="2113" 
d="M98 475q0 199 69 374t197 306t307 205t394 74q203 0 377 -61.5t303 -177.5t199.5 -278.5t70.5 -359.5q0 -147 -33.5 -258t-93 -180.5t-134.5 -102t-157 -32.5q-49 0 -92 8t-81 27.5t-66.5 52t-46.5 80.5q-27 -47 -65 -81t-84 -55.5t-99 -31t-113 -9.5q-78 0 -141.5 20.5
t-106.5 59.5t-65.5 91.5t-22.5 115.5q0 59 18.5 108.5t58.5 88.5t102.5 65.5t148.5 40.5l197 33q43 6 65.5 12t36.5 13.5t21.5 18.5t7.5 30q0 49 -12.5 87t-39 64.5t-66.5 40t-95 13.5t-96 -12.5t-70 -37t-44.5 -59.5t-19.5 -80h-172q4 72 32 132.5t78 106.5t121.5 71.5
t162.5 25.5q100 0 175.5 -25.5t126 -73.5t75 -118t24.5 -160v-309q0 -68 13.5 -114t37 -71.5t52 -36t61.5 -10.5q47 0 90 27t79 82t56.5 142t20.5 200q0 170 -59.5 309.5t-167 236.5t-253 148.5t-315.5 51.5q-182 0 -332.5 -62.5t-258 -176.5t-164 -265.5t-56.5 -323.5
t56.5 -320.5t160.5 -259t249.5 -171t319.5 -60.5q61 0 122 9.5t117 28.5t106.5 49t89.5 69h204q-55 -70 -123.5 -123t-149.5 -90t-173 -55.5t-193 -18.5q-207 0 -381 70.5t-300 199.5t-193.5 301t-67.5 371zM795 270q0 -35 12 -63.5t36.5 -49t60.5 -31.5t79 -11
q59 0 111.5 18.5t91.5 57t61.5 96t22.5 131.5v96q-8 -8 -18.5 -16.5t-24 -13.5t-29.5 -9t-35 -8l-196 -33q-47 -8 -80 -22.5t-53.5 -35t-29.5 -47t-9 -59.5z" />
    <glyph glyph-name="A" unicode="A" horiz-adv-x="1318" 
d="M25 0l524 1409h221l524 -1409h-196l-133 369h-619l-133 -369h-188zM406 532h499l-246 680h-8z" />
    <glyph glyph-name="B" unicode="B" horiz-adv-x="1359" 
d="M172 0v1409h582q113 0 197.5 -24.5t141 -72.5t84 -116t27.5 -156q0 -51 -14 -96t-42 -84t-69 -68.5t-96 -46.5v-8q63 -12 114.5 -39.5t88.5 -69.5t56.5 -95.5t19.5 -114.5q0 -90 -31 -167t-90.5 -133.5t-146.5 -87t-199 -30.5h-623zM360 164h435q70 0 122 18.5t86.5 52
t52 79.5t17.5 102q0 49 -17.5 92t-52 73.5t-87 48t-121.5 17.5h-435v-483zM360 811h394q63 0 112 17.5t83 49t50.5 73.5t16.5 91q0 47 -14.5 84t-46 64t-82 41t-119.5 14h-394v-434z" />
    <glyph glyph-name="C" unicode="C" horiz-adv-x="1458" 
d="M90 705q0 156 49 289.5t140.5 232t216.5 153t274 54.5q121 0 222.5 -34t178 -95.5t126 -147.5t71.5 -190h-194q-20 72 -55.5 127t-85.5 92t-116.5 56.5t-146.5 19.5q-106 0 -195.5 -40t-154 -115t-99 -178.5t-34.5 -223.5q0 -119 34.5 -221.5t98 -178.5t150.5 -117
t192 -41q86 0 154.5 19.5t118.5 56.5t84 92.5t55 126.5h194q-23 -104 -73 -190t-129 -147.5t-181 -95.5t-223 -34q-145 0 -269 53.5t-214.5 150.5t-139.5 232.5t-49 293.5z" />
    <glyph glyph-name="D" unicode="D" horiz-adv-x="1441" 
d="M180 0v1409h434q178 0 317.5 -51t232.5 -145.5t140.5 -223.5t47.5 -284q0 -156 -47.5 -285t-140.5 -223.5t-232 -145.5t-318 -51h-434zM369 164h245q143 0 248 43t169.5 117.5t94 171t29.5 209.5t-29.5 209t-94 170.5t-169 117.5t-248.5 43h-245v-1081z" />
    <glyph glyph-name="E" unicode="E" horiz-adv-x="1253" 
d="M180 0v1409h950v-164h-761v-446h606v-164h-606v-471h778v-164h-967z" />
    <glyph glyph-name="F" unicode="F" horiz-adv-x="1179" 
d="M180 0v1409h934v-164h-745v-491h589v-164h-589v-590h-189z" />
    <glyph glyph-name="G" unicode="G" horiz-adv-x="1556" 
d="M90 705q0 156 50 289.5t143.5 232t222.5 153t280 54.5q123 0 226.5 -33t182.5 -93.5t131 -141.5t75 -175h-197q-18 57 -52 105.5t-86 85.5t-123 58.5t-157 21.5q-113 0 -205 -41t-158.5 -117t-101 -178.5t-34.5 -220.5q0 -119 35.5 -221.5t101 -178.5t157 -117t197.5 -41
q90 0 171 26t144.5 77t99.5 125t36 166v41h-443v163h615v-745h-123l-33 205h-6q-37 -59 -84 -102.5t-104.5 -72t-125 -42t-147.5 -13.5q-150 0 -276.5 54.5t-219 153t-142.5 232.5t-50 290z" />
    <glyph glyph-name="H" unicode="H" horiz-adv-x="1490" 
d="M180 0v1409h189v-614h753v614h189v-1409h-189v631h-753v-631h-189z" />
    <glyph glyph-name="I" unicode="I" horiz-adv-x="548" 
d="M180 0v1409h189v-1409h-189z" />
    <glyph glyph-name="J" unicode="J" horiz-adv-x="1048" 
d="M74 401v66h188v-49q0 -74 16.5 -127t46 -87t69.5 -49.5t89 -15.5t89 15.5t70 49.5t46.5 87t16.5 127v991h188v-1008q0 -113 -29.5 -194.5t-84 -132.5t-129.5 -75t-167 -24t-166.5 24t-129 75t-84 133t-29.5 194z" />
    <glyph glyph-name="K" unicode="K" horiz-adv-x="1335" 
d="M180 0v1409h189v-758l704 758h221l-579 -612l604 -797h-213l-516 666l-221 -236v-430h-189z" />
    <glyph glyph-name="L" unicode="L" horiz-adv-x="1114" 
d="M180 0v1409h189v-1245h688v-164h-877z" />
    <glyph glyph-name="M" unicode="M" horiz-adv-x="1851" 
d="M180 0v1409h230l518 -1155h4l510 1155h229v-1409h-188l16 1114h-8l-492 -1114h-147l-492 1090h-8l17 -1090h-189z" />
    <glyph glyph-name="N" unicode="N" horiz-adv-x="1507" 
d="M180 0v1409h180l779 -1090h8l-8 1090h188v-1409h-180l-778 1081h-9l9 -1081h-189z" />
    <glyph glyph-name="O" unicode="O" horiz-adv-x="1556" 
d="M90 705q0 156 49 289.5t141.5 232t219.5 153t278 54.5q150 0 277 -54.5t219 -153t142 -232.5t50 -289q0 -156 -50 -290t-142 -232.5t-219 -153t-277 -54.5q-152 0 -278.5 54.5t-219 153t-141.5 232.5t-49 290zM287 705q0 -119 34.5 -221.5t100 -178.5t157 -117t199.5 -41
q109 0 200 41t156.5 117t100.5 178.5t35 221.5t-35 221t-100.5 178t-156.5 117t-200 41t-200 -41t-156.5 -117t-100 -178.5t-34.5 -220.5z" />
    <glyph glyph-name="P" unicode="P" horiz-adv-x="1302" 
d="M180 0v1409h533q119 0 212 -33t157.5 -93t97 -143t32.5 -182q0 -100 -32.5 -185t-97 -148.5t-158 -98t-211.5 -34.5h-344v-492h-189zM369 655h352q74 0 131 23.5t96 65.5t57.5 96.5t18.5 117.5q0 61 -18.5 113.5t-56.5 91.5t-95 60.5t-133 21.5h-352v-590z" />
    <glyph glyph-name="Q" unicode="Q" horiz-adv-x="1564" 
d="M90 705q0 156 49 289.5t141.5 232t219.5 153t278 54.5q150 0 277 -54.5t219 -153t142 -232.5t50 -289q0 -84 -14 -162t-43 -147.5t-70 -130t-92 -109.5l269 -279l-132 -131l-286 303q-35 -18 -73 -31.5t-78 -22.5t-82 -14.5t-87 -5.5q-152 0 -278.5 54.5t-219 153
t-141.5 232.5t-49 290zM287 705q0 -119 34.5 -221.5t100 -178.5t157 -117t199.5 -41q109 0 200 41t156.5 117t100.5 178.5t35 221.5t-35 221t-100.5 178t-156.5 117t-200 41t-200 -41t-156.5 -117t-100 -178.5t-34.5 -220.5z" />
    <glyph glyph-name="R" unicode="R" horiz-adv-x="1335" 
d="M180 0v1409h533q119 0 211 -27.5t154.5 -82t94 -132t31.5 -176.5q0 -78 -19.5 -145.5t-59.5 -121.5t-97 -93t-133 -60l358 -571h-204l-351 549h-329v-549h-189zM369 713h352q72 0 127 21.5t93 59t56.5 88t18.5 109.5q0 57 -19.5 104.5t-57.5 81t-93 51t-125 17.5h-352
v-532z" />
    <glyph glyph-name="S" unicode="S" horiz-adv-x="1327" 
d="M115 401h188q0 -57 23.5 -106t69.5 -86t111.5 -57.5t147.5 -20.5q86 0 152.5 17.5t114 51t71 83t23.5 110.5q0 55 -24.5 94t-67.5 65t-98.5 42t-129.5 29l-90 16q-104 18 -182 40.5t-144.5 64.5t-105.5 111t-39 169q0 88 37 164t105.5 131t165 85t212.5 30q113 0 208 -28
t164 -80t106.5 -127t37.5 -167h-188q0 57 -24.5 103.5t-68.5 78t-103.5 48t-131.5 16.5q-70 0 -129 -15.5t-104 -45t-69.5 -74.5t-24.5 -103q0 -57 26.5 -96t72.5 -63.5t104.5 -40t140.5 -29.5l90 -16q100 -18 176 -42t138.5 -67t99 -112.5t36.5 -172.5q0 -94 -37.5 -172.5
t-109.5 -135t-175.5 -87.5t-234.5 -31q-127 0 -228 31t-171 87.5t-105.5 135t-35.5 172.5z" />
    <glyph glyph-name="T" unicode="T" horiz-adv-x="1204" 
d="M16 1249v160h1172v-160h-492v-1249h-188v1249h-492z" />
    <glyph glyph-name="U" unicode="U" horiz-adv-x="1425" 
d="M147 557v852h189v-852q0 -98 23.5 -174t69.5 -128t117.5 -80t166.5 -28q94 0 165.5 28t117.5 80t70 128t24 174v852h188v-852q0 -154 -40 -265.5t-115.5 -181t-178 -102.5t-231.5 -33t-231.5 33t-178.5 102.5t-116 181t-40 265.5z" />
    <glyph glyph-name="V" unicode="V" horiz-adv-x="1269" 
d="M16 1409h197l422 -1212h8l422 1212h188l-516 -1409h-209z" />
    <glyph glyph-name="W" unicode="W" horiz-adv-x="1916" 
d="M25 1409h196l299 -1212h8l324 1212h229l324 -1212h8l291 1212h188l-368 -1409h-238l-319 1196h-9l-319 -1196h-238z" />
    <glyph glyph-name="X" unicode="X" horiz-adv-x="1220" 
d="M16 0l486 719l-469 690h213l362 -541l359 541h204l-460 -684l493 -725h-213l-387 575l-383 -575h-205z" />
    <glyph glyph-name="Y" unicode="Y" horiz-adv-x="1245" 
d="M25 1409h213l380 -664h9l397 664h197l-508 -842v-567h-189v553z" />
    <glyph glyph-name="Z" unicode="Z" horiz-adv-x="1196" 
d="M74 0v123l813 1126h-772v160h1007v-123l-813 -1126h805v-160h-1040z" />
    <glyph glyph-name="bracketleft" unicode="[" horiz-adv-x="679" 
d="M180 -467v1991h467v-148h-303v-1695h303v-148h-467z" />
    <glyph glyph-name="backslash" unicode="\" horiz-adv-x="819" 
d="M16 1434h156l631 -1459h-156z" />
    <glyph glyph-name="bracketright" unicode="]" horiz-adv-x="679" 
d="M33 -319h303v1695h-303v148h467v-1991h-467v148z" />
    <glyph glyph-name="asciicircum" unicode="^" horiz-adv-x="1163" 
d="M111 721l385 688h180l385 -688h-189l-290 543l-291 -543h-180z" />
    <glyph glyph-name="underscore" unicode="_" horiz-adv-x="1024" 
d="M0 -147h1024v-140h-1024v140z" />
    <glyph glyph-name="grave" unicode="`" horiz-adv-x="1146" 
d="M213 1499h213l213 -336h-131z" />
    <glyph glyph-name="a" unicode="a" horiz-adv-x="1073" 
d="M98 254q0 63 18.5 112.5t58.5 88.5t101.5 65.5t149.5 40.5l197 33q43 8 67.5 14t37.5 14.5t19.5 19.5t6.5 30q0 45 -13.5 83t-40 65.5t-67.5 42t-92 14.5q-53 0 -95.5 -13.5t-71 -39t-44 -60.5t-19.5 -76h-172q4 72 32 133.5t79 106.5t125 70.5t166 25.5
q96 0 170.5 -24.5t124 -72.5t74 -117t24.5 -155v-655h-172v133h-8q-20 -39 -53 -68.5t-74 -49t-89.5 -30t-103.5 -10.5q-78 0 -141.5 19.5t-106.5 56.5t-65.5 88t-22.5 115zM279 270q0 -33 11 -59.5t34.5 -47t59.5 -30.5t83 -10q59 0 111.5 18.5t91.5 56.5t61.5 93t22.5 127
v96q-8 -8 -18.5 -16.5t-24 -13.5t-29.5 -9t-35 -8l-188 -33q-49 -8 -83 -22.5t-55.5 -35t-31.5 -47t-10 -59.5z" />
    <glyph glyph-name="b" unicode="b" horiz-adv-x="1196" 
d="M156 0v1499h180v-319v-72t-1 -77t-3 -93t-4 -94h8q25 47 59.5 82t78.5 56.5t94 31.5t104 10q96 0 177 -35t140.5 -101.5t92 -162.5t32.5 -217t-35 -219.5t-98 -169t-147 -107.5t-179 -37q-53 0 -100 10.5t-88 32t-74 55t-57 83.5h-8v-156h-172zM336 500q0 -86 22.5 -156
t62.5 -117t94 -71.5t116 -24.5q61 0 115.5 25.5t94.5 75t62.5 120t22.5 156.5t-22.5 154.5t-62.5 113.5t-94.5 68.5t-115.5 23.5q-59 0 -112.5 -23.5t-93.5 -68.5t-63.5 -110.5t-25.5 -149.5v-16z" />
    <glyph glyph-name="c" unicode="c" horiz-adv-x="1056" 
d="M82 500q0 117 36 214t100.5 166.5t151.5 106.5t187 37q94 0 171 -26.5t132 -75t88 -115t43 -143.5h-180q-8 45 -26.5 81.5t-50.5 64.5t-76 43t-101 15q-61 0 -113.5 -26.5t-91.5 -75.5t-60.5 -116.5t-21.5 -149.5t21.5 -149.5t60.5 -117t91.5 -76t113.5 -26.5
q57 0 101 15.5t76 43t50.5 64.5t26.5 82h180q-10 -78 -43 -144.5t-88 -114.5t-132 -75t-171 -27q-109 0 -198 37t-150.5 105.5t-94 166t-32.5 216.5z" />
    <glyph glyph-name="d" unicode="d" horiz-adv-x="1196" 
d="M82 492q0 121 35 219t98.5 168.5t147 107.5t178.5 37q53 0 100 -10t88 -31.5t74 -55.5t57 -83h8q-2 45 -4 94t-3 93t-1 77v72v319h180v-1499h-172v156h-8q-25 -47 -59.5 -82t-78.5 -56.5t-94 -32t-104 -10.5q-96 0 -177 35t-140.5 101.5t-92 163t-32.5 217.5zM270 492
q0 -86 22.5 -155t62.5 -114t94.5 -68.5t115.5 -23.5t115.5 24.5t94.5 71.5t62.5 117t22.5 156t-22.5 155.5t-62.5 116.5t-94 71.5t-116 24.5q-61 0 -115.5 -25.5t-94.5 -74.5t-62.5 -119.5t-22.5 -156.5z" />
    <glyph glyph-name="e" unicode="e" horiz-adv-x="1073" 
d="M82 500q0 115 36 212t100.5 166.5t151.5 107.5t187 38q98 0 179 -31.5t140.5 -94t91 -151t31.5 -198.5v-74h-729q2 -78 24.5 -141.5t61.5 -108.5t91.5 -69.5t117.5 -24.5q53 0 96.5 13.5t74 38t49 55t26.5 65.5h180q-10 -68 -45 -127t-91 -104t-130 -71t-160 -26
q-115 0 -206 37t-152.5 105.5t-93 166t-31.5 216.5zM281 610h534q-6 68 -25.5 116t-52 80t-78 47t-102.5 15q-51 0 -96 -17t-81 -51t-61.5 -82t-37.5 -108z" />
    <glyph glyph-name="f" unicode="f" horiz-adv-x="630" 
d="M8 852v147h189v164q0 82 21.5 145.5t63.5 105.5t105.5 63.5t144.5 21.5h123v-156h-106q-49 0 -82 -12t-52.5 -35.5t-28.5 -58.5t-9 -82v-156h246v-147h-246v-852h-180v852h-189z" />
    <glyph glyph-name="g" unicode="g" horiz-adv-x="1196" 
d="M82 492q0 121 35 219t98.5 168.5t147 107.5t178.5 37q53 0 100 -10t88 -31.5t74 -55.5t57 -83h8v155h172v-950q0 -137 -37.5 -236.5t-105.5 -161t-156 -90t-192 -28.5q-94 0 -175 22.5t-141.5 66.5t-93.5 108.5t-33 146.5h173q0 -45 20 -82t56 -62.5t86.5 -38.5
t107.5 -13q70 0 127 19t100 61t67.5 114t24.5 174v107h-8q-25 -47 -59.5 -82t-78.5 -56.5t-94 -32t-104 -10.5q-96 0 -177 35t-140.5 101.5t-92 163t-32.5 217.5zM270 492q0 -86 22.5 -155t62.5 -114t94.5 -68.5t115.5 -23.5t115.5 24.5t94.5 71.5t62.5 117t22.5 156
t-22.5 155.5t-62.5 116.5t-94 71.5t-116 24.5q-61 0 -115.5 -25.5t-94.5 -74.5t-62.5 -119.5t-22.5 -156.5z" />
    <glyph glyph-name="h" unicode="h" horiz-adv-x="1155" 
d="M156 0v1499h180v-311v-72t-1 -77t-3 -93t-4 -94h8q20 43 51 74.5t71 53t87 33t102 11.5q78 0 143.5 -22.5t116.5 -71.5t80 -130t29 -194v-606h-180v582q0 78 -16.5 133t-46.5 89t-72 49t-95 15q-57 0 -106 -23.5t-86 -69.5t-57.5 -110.5t-20.5 -142.5v-522h-180z" />
    <glyph glyph-name="i" unicode="i" horiz-adv-x="491" 
d="M147 1294v205h197v-205h-197zM156 0v999h180v-999h-180z" />
    <glyph glyph-name="j" unicode="j" horiz-adv-x="491" 
d="M-8 -295h49q33 0 54.5 9.5t34.5 27.5t19.5 45t6.5 66v1146h180v-1179q0 -59 -15.5 -108.5t-48 -86.5t-86 -56.5t-129.5 -19.5h-65v156zM147 1294v205h197v-205h-197z" />
    <glyph glyph-name="k" unicode="k" horiz-adv-x="1032" 
d="M156 0v1499h180v-981l434 481h213l-371 -399l412 -600h-213l-322 469l-153 -168v-301h-180z" />
    <glyph glyph-name="l" unicode="l" horiz-adv-x="491" 
d="M156 0v1499h180v-1499h-180z" />
    <glyph glyph-name="m" unicode="m" horiz-adv-x="1769" 
d="M156 0v999h172v-147h8q20 43 51 74.5t70 53t84 33t98 11.5t100 -11.5t87 -36t72 -63.5t52 -92q25 53 58.5 91t74.5 62.5t91.5 37t111.5 12.5q74 0 135.5 -21.5t108.5 -69.5t73.5 -126t26.5 -184v-623h-180v598q0 74 -12.5 125t-38 83t-63.5 47t-91 15t-101 -24.5
t-84 -69.5t-56.5 -110.5t-20.5 -143.5v-520h-180v598q0 74 -13.5 125t-39 83t-63.5 47t-89 15q-53 0 -101 -24.5t-84 -70.5t-56.5 -110.5t-20.5 -144.5v-518h-180z" />
    <glyph glyph-name="n" unicode="n" horiz-adv-x="1155" 
d="M156 0v999h172v-147h8q20 43 51 74.5t71 53t87 33t102 11.5q78 0 143.5 -22.5t116.5 -71.5t80 -130t29 -194v-606h-180v582q0 78 -16.5 133t-46.5 89t-72 49t-95 15q-57 0 -106 -24.5t-86 -69.5t-57.5 -110.5t-20.5 -145.5v-518h-180z" />
    <glyph glyph-name="o" unicode="o" horiz-adv-x="1146" 
d="M82 500q0 119 36 216t102.5 165.5t156.5 105.5t196 37q113 0 204 -37t155.5 -105.5t98.5 -166t34 -215.5q0 -119 -36 -216.5t-102.5 -166t-156.5 -105.5t-197 -37q-113 0 -203.5 37t-155 105.5t-98.5 166t-34 216.5zM270 500q0 -82 21.5 -150.5t62.5 -117t96.5 -75
t122.5 -26.5q68 0 123.5 26.5t96.5 75t62.5 117t21.5 150.5q0 84 -21.5 152.5t-62.5 116.5t-96.5 73.5t-123.5 25.5t-123 -26.5t-96 -74.5t-62.5 -116.5t-21.5 -150.5z" />
    <glyph glyph-name="p" unicode="p" horiz-adv-x="1196" 
d="M156 -451v1450h172v-155h8q25 47 59.5 82t78.5 56.5t94 31.5t104 10q96 0 177 -35t140.5 -101.5t92 -162.5t32.5 -217t-35 -219.5t-98 -169t-147 -107.5t-179 -37q-53 0 -100 10.5t-88 32t-74 55t-57 83.5h-8q2 -45 4 -94.5t3 -93.5t1 -76.5v-71.5v-271h-180zM336 500
q0 -86 22.5 -156t62.5 -117t94 -71.5t116 -24.5q61 0 115.5 25.5t94.5 75t62.5 120t22.5 156.5t-22.5 154.5t-62.5 113.5t-94.5 68.5t-115.5 23.5q-59 0 -112.5 -23.5t-93.5 -68.5t-63.5 -110.5t-25.5 -149.5v-16z" />
    <glyph glyph-name="q" unicode="q" horiz-adv-x="1187" 
d="M82 492q0 121 35 219t98.5 168.5t147 107.5t178.5 37q53 0 100 -10t88 -31.5t74 -55.5t57 -83h8v155h172v-1450h-180v271v71.5t1 76.5t3 93.5t4 94.5h-8q-25 -47 -59.5 -82t-78.5 -56.5t-94 -32t-104 -10.5q-96 0 -177 35t-140.5 101.5t-92 163t-32.5 217.5zM270 492
q0 -86 22.5 -155t62.5 -114t94.5 -68.5t115.5 -23.5q59 0 112.5 23.5t93.5 68.5t63.5 110.5t25.5 147.5v35q-2 84 -25.5 149.5t-63.5 110.5t-93 68.5t-113 23.5q-61 0 -115.5 -25.5t-94.5 -74.5t-62.5 -119.5t-22.5 -156.5z" />
    <glyph glyph-name="r" unicode="r" horiz-adv-x="737" 
d="M156 0v999h172v-145h6q18 41 43.5 71.5t59.5 53t74 34t87 11.5q16 0 32.5 -2t34 -6t36 -12.5t36.5 -20.5l-57 -164q-16 8 -32.5 14.5t-31 10.5t-30 6t-29.5 2q-55 0 -96 -26.5t-70 -71.5t-42 -105.5t-13 -126.5v-522h-180z" />
    <glyph glyph-name="s" unicode="s" horiz-adv-x="1007" 
d="M82 287h172q0 -43 19.5 -76t54 -54.5t76.5 -31.5t88 -10q61 0 107 11t77 31.5t46 51.5t15 70q0 29 -10 50t-29.5 36.5t-48 26.5t-67.5 18l-189 32q-57 10 -107 26.5t-92 47.5t-67 79t-25 118q0 72 31 130t85 98t126 61.5t156 21.5q82 0 152.5 -17.5t124.5 -55.5t85 -95
t31 -135h-172q0 39 -15.5 69.5t-45 52t-70.5 32t-90 10.5q-47 0 -87 -10.5t-71 -30t-47 -49t-16 -66.5q0 -29 10 -49.5t30.5 -36.5t53.5 -27.5t78 -19.5l188 -33q61 -10 110.5 -28.5t87 -49t59.5 -78t22 -112.5q0 -78 -31 -138.5t-87.5 -100.5t-134 -60.5t-173.5 -20.5
q-90 0 -165 19.5t-130.5 59.5t-85 98.5t-29.5 134.5z" />
    <glyph glyph-name="t" unicode="t" horiz-adv-x="671" 
d="M-8 852v147h188v304h180v-304h263v-147h-263v-549q0 -41 8.5 -68.5t25 -45t43 -25.5t63.5 -8h123v-156h-148q-74 0 -129 18.5t-92 55.5t-55.5 92t-18.5 129v557h-188z" />
    <glyph glyph-name="u" unicode="u" horiz-adv-x="1146" 
d="M139 393v606h180v-581q0 -78 16.5 -133.5t46.5 -89t72 -49t95 -15.5q57 0 105 24.5t84 71.5t54.5 113t18.5 143v516h180v-999h-172v147h-8q-23 -43 -51.5 -75.5t-66.5 -54t-84 -32t-101 -10.5q-78 0 -143.5 22.5t-116.5 72t-80 130.5t-29 193z" />
    <glyph glyph-name="v" unicode="v" horiz-adv-x="958" 
d="M8 999h197l278 -802h9l278 802h180l-368 -999h-197z" />
    <glyph glyph-name="w" unicode="w" horiz-adv-x="1482" 
d="M8 999h189l204 -811h9l229 811h213l229 -811h9l204 811h181l-287 -999h-221l-222 819h-8l-221 -819h-221z" />
    <glyph glyph-name="x" unicode="x" horiz-adv-x="950" 
d="M25 0l352 504l-344 495h213l239 -358l236 358h197l-347 -493l355 -506h-213l-248 371l-244 -371h-196z" />
    <glyph glyph-name="y" unicode="y" horiz-adv-x="958" 
d="M8 999h197l278 -802h9l278 802h180l-424 -1155q-23 -61 -53.5 -115.5t-73.5 -98.5t-102 -70.5t-131 -26.5h-98v156h65q43 0 80 13t67.5 39t55 63.5t43.5 89.5l22 63z" />
    <glyph glyph-name="z" unicode="z" horiz-adv-x="909" 
d="M66 852v147h770v-122l-531 -730h539v-147h-770v106l540 746h-548z" />
    <glyph glyph-name="braceleft" unicode="{" horiz-adv-x="729" 
d="M41 475v123q72 0 116 14.5t68.5 45t34.5 80.5t10 130v344q0 76 16.5 133.5t52.5 97.5t98.5 60.5t152.5 20.5h106v-140h-98q-47 0 -79 -9t-50 -28.5t-26.5 -50t-8.5 -75.5v-402q0 -57 -11 -101t-34.5 -79t-62.5 -59.5t-97 -38.5v-9q57 -14 96.5 -38.5t63 -59.5t34.5 -79
t11 -101v-418q0 -45 8.5 -75.5t26.5 -50t50 -29t79 -9.5h98v-139h-106q-90 0 -152.5 20.5t-98.5 60.5t-52.5 97.5t-16.5 132.5v361q0 80 -10 130t-34.5 80.5t-68.5 45t-116 14.5z" />
    <glyph glyph-name="bar" unicode="|" horiz-adv-x="524" 
d="M180 -492v2048h164v-2048h-164z" />
    <glyph glyph-name="braceright" unicode="}" horiz-adv-x="729" 
d="M33 -328h98q47 0 79 9.5t50.5 29t26.5 50t8 75.5v418q0 57 11 101t35 79t62.5 59.5t96.5 38.5v9q-57 14 -96 38.5t-63 59.5t-35 79t-11 101v402q0 45 -8 75.5t-26.5 50t-50.5 28.5t-79 9h-98v140h106q90 0 152.5 -20.5t98.5 -60.5t52.5 -97.5t16.5 -133.5v-344
q0 -80 10 -130t34.5 -80.5t68.5 -45t116 -14.5v-123q-72 0 -116 -14.5t-68.5 -45t-34.5 -80.5t-10 -130v-361q0 -76 -16.5 -133t-52.5 -97t-98.5 -60.5t-152.5 -20.5h-106v139z" />
    <glyph glyph-name="asciitilde" unicode="~" horiz-adv-x="1163" 
d="M115 377q0 78 20.5 137t56 97t84 57.5t101.5 19.5q63 0 115.5 -20.5t119 -60.5t100 -57.5t74.5 -17.5q25 0 44.5 8.5t34 27t21.5 48t7 72.5h156q0 -78 -20.5 -136t-55.5 -97t-81 -58.5t-97 -19.5q-63 0 -117.5 21.5t-123.5 64.5t-103.5 60.5t-73.5 17.5q-25 0 -44.5 -9.5
t-33.5 -30t-21.5 -51t-7.5 -73.5h-155z" />
    <glyph glyph-name="uni00A0" unicode="&#xa0;" horiz-adv-x="450" 
 />
    <glyph glyph-name="exclamdown" unicode="&#xa1;" horiz-adv-x="573" 
d="M180 -16l58 622h98l57 -622v-394h-213v394zM180 778v221h213v-221h-213z" />
    <glyph glyph-name="cent" unicode="&#xa2;" horiz-adv-x="1163" 
d="M115 713q0 104 30.5 194t87 158t131 110t160.5 56v203h181v-205q76 -12 137 -44t106 -78t72 -104.5t37 -125.5h-180q-8 43 -29 80.5t-54.5 65.5t-80.5 43t-107 15q-63 0 -118.5 -26.5t-97.5 -75.5t-64.5 -116.5t-22.5 -149.5t22.5 -149.5t64.5 -117t97.5 -76t118.5 -26.5
q59 0 106.5 15.5t81 43t54 65.5t29.5 81h180q-10 -70 -38 -129.5t-74 -105.5t-108.5 -76.5t-140.5 -42.5v-220h-180v220q-92 14 -167 56t-127 109.5t-79.5 156.5t-27.5 196z" />
    <glyph glyph-name="sterling" unicode="&#xa3;" horiz-adv-x="1163" 
d="M8 164q0 53 17.5 94t50.5 69.5t76 43t94 14.5q18 0 36.5 -2t36 -7t35 -10.5t35.5 -13.5q2 12 2 19.5t1 15.5t1 15.5v15.5q0 31 -4 61.5t-10 62t-15.5 61.5t-19.5 65h-221v127h178q-12 39 -21.5 71.5t-17.5 67.5t-12 69.5t-4 69.5q0 82 26.5 148.5t76.5 113.5t120 73
t154 26q82 0 148.5 -24t112.5 -70t73.5 -112.5t33.5 -154.5h-180q-6 55 -20.5 95t-38 67t-58.5 39t-80 12q-39 0 -72.5 -13t-60 -39t-41 -62.5t-14.5 -81.5q0 -37 5 -73t14.5 -72t20.5 -70.5t28 -79.5h325v-127h-282q6 -25 11 -47.5t9 -45t6 -46t2 -46.5q0 -29 -2 -56.5
t-5 -54t-9 -53t-12 -51.5q84 -57 99 -67.5t50 -28.5t71 -29.5t70 -11.5q33 0 57.5 11.5t42 36t28 63.5t12.5 94h155q-4 -72 -21.5 -134.5t-51 -113.5t-91 -82t-139.5 -31q-43 0 -87 13.5t-85 36t-76.5 48t-87.5 64.5q-20 -37 -47.5 -66.5t-60.5 -51t-72 -33t-82 -11.5
q-49 0 -89 14.5t-67.5 40t-42 60.5t-14.5 74zM131 176q0 -20 6 -37.5t18.5 -30t30 -19.5t39.5 -7q27 0 48.5 10t39 29.5t29.5 44t23 55.5q-18 10 -35 19.5t-34 16.5t-33.5 10t-33.5 3q-20 0 -37.5 -7t-31 -19.5t-21.5 -29.5t-8 -38z" />
    <glyph glyph-name="currency" unicode="&#xa4;" horiz-adv-x="1163" 
d="M180 393l119 121q-14 20 -24.5 43t-19.5 46.5t-13 49t-4 52.5t5 53t13 51t20.5 47.5t26.5 42.5l-123 125l90 90l123 -127q20 12 42 22.5t45.5 17.5t49 10t52.5 3t51 -3t48 -10t45.5 -17.5t41.5 -22.5l125 127l90 -90l-123 -125q14 -20 26.5 -42.5t20.5 -47.5t13.5 -51.5
t5.5 -52.5q0 -27 -5.5 -52.5t-13.5 -49t-19 -46t-26 -43.5l121 -121l-90 -90l-119 121q-20 -14 -42.5 -24.5t-46 -17.5t-50.5 -10t-53 -3q-29 0 -54.5 3t-50 10t-46 17.5t-42.5 24.5l-119 -121zM385 705q0 -45 15.5 -84t42 -66t62.5 -41t77 -14t76.5 14t62.5 41t42 65.5
t15 84.5q0 45 -15 83.5t-42 65.5t-62.5 41t-76.5 14t-77 -14t-62.5 -41t-42 -65.5t-15.5 -83.5z" />
    <glyph glyph-name="yen" unicode="&#xa5;" horiz-adv-x="1163" 
d="M33 1409h205l348 -606h8l348 606h188l-458 -780v-6h311v-115h-311v-156h311v-114h-311v-238h-180v238h-312v114h312v156h-312v115h312v12z" />
    <glyph glyph-name="brokenbar" unicode="&#xa6;" horiz-adv-x="524" 
d="M180 -336v721h164v-721h-164zM180 688v721h164v-721h-164z" />
    <glyph glyph-name="section" unicode="&#xa7;" horiz-adv-x="1171" 
d="M123 475q0 53 16.5 102.5t48 90.5t75.5 72.5t99 52.5q-47 20 -82.5 46.5t-61 60.5t-40 79t-14.5 102q0 82 31.5 147.5t90 111.5t138.5 70t174 24t171 -19.5t133 -59.5t90 -102.5t40 -146.5h-172q-4 49 -24.5 85t-55.5 58.5t-81 33.5t-101 11q-61 0 -108.5 -13t-80 -38.5
t-49 -62.5t-16.5 -82q0 -39 13.5 -69t38 -50.5t59 -36.5t86.5 -33l188 -57q84 -25 144.5 -58.5t99.5 -77.5t57.5 -99.5t18.5 -124.5q0 -55 -16.5 -103.5t-48.5 -89.5t-76 -72.5t-99 -52.5q45 -20 82 -47t62.5 -61.5t40 -79.5t14.5 -101q0 -82 -32 -147.5t-90.5 -111.5
t-138 -69.5t-174.5 -23.5q-94 0 -170.5 19.5t-133 59.5t-90.5 102.5t-40 146.5h172q4 -49 24.5 -85t55.5 -58.5t81 -34t101 -11.5q61 0 108.5 13.5t80.5 39t49 62.5t16 82q0 39 -13 68.5t-37.5 50t-59.5 37t-86 32.5l-189 58q-84 25 -144 58.5t-99 77.5t-57.5 99.5
t-18.5 124.5zM295 500q0 -51 14.5 -87t41 -61.5t66.5 -45t99 -36.5l117 -37q59 12 105 36t77 54.5t46.5 66.5t15.5 77q0 51 -14.5 87t-41 61.5t-66.5 44t-100 36.5l-133 39q-55 -14 -98 -37.5t-71.5 -55.5t-43 -67.5t-14.5 -74.5z" />
    <glyph glyph-name="dieresis" unicode="&#xa8;" horiz-adv-x="1146" 
d="M279 1237v188h180v-188h-180zM688 1237v188h180v-188h-180z" />
    <glyph glyph-name="copyright" unicode="&#xa9;" horiz-adv-x="1589" 
d="M74 713q0 152 53 284.5t151.5 230t230.5 152t286 54.5q152 0 283.5 -54.5t230 -153t153 -230.5t54.5 -283q0 -152 -53.5 -287t-152 -236.5t-230.5 -158t-285 -56.5q-154 0 -286 56.5t-230.5 158t-151.5 236.5t-53 287zM221 713q0 -125 42 -236.5t119 -196.5t182.5 -133.5
t230.5 -48.5q121 0 226 48.5t183 133.5t121 196.5t43 236.5t-42 232.5t-119 188t-182 125t-230 44.5t-230.5 -44.5t-182.5 -125t-119 -188t-42 -232.5zM442 713q0 74 25 139.5t71 115.5t111.5 77.5t145.5 27.5q63 0 115.5 -16.5t91 -48t64.5 -75.5t36 -97h-144q-8 27 -21 48
t-32.5 35.5t-47.5 22.5t-62 8q-45 0 -83 -18.5t-66 -51t-42 -75.5t-14 -92t14 -92t42 -76t66 -51.5t83 -18.5q35 0 62.5 8.5t47 22.5t32.5 35.5t21 48.5h144q-10 -53 -36 -97t-64.5 -76t-91 -48.5t-115.5 -16.5q-80 0 -145.5 28t-111.5 78t-71 115.5t-25 139.5z" />
    <glyph glyph-name="ordfeminine" unicode="&#xaa;" horiz-adv-x="790" 
d="M74 889q0 43 14 79t43 63.5t73 46t105 26.5l133 16q27 4 43.5 7t26.5 10.5t15 16.5t5 26q0 27 -8 49t-24.5 39.5t-42 28t-58.5 10.5q-29 0 -53 -7.5t-42.5 -22.5t-30 -39t-13.5 -54h-154q4 63 28 109t65 76t91 44t109 14q70 0 125.5 -15t93 -48t58 -80t20.5 -110v-469
h-157v86h-7q-14 -25 -36.5 -44.5t-51 -32t-62.5 -19.5t-73 -7q-55 0 -99 14.5t-75 41t-46 63.5t-15 82zM238 901q0 -23 8 -41t22.5 -30.5t37 -19.5t48.5 -7q37 0 69 11t56.5 33.5t38.5 57.5t14 82v64q-4 -6 -11 -12.5t-16 -10.5t-19.5 -6t-22.5 -4l-115 -14
q-29 -4 -50.5 -13.5t-34.5 -23t-19 -29.5t-6 -37z" />
    <glyph glyph-name="guillemotleft" unicode="&#xab;" horiz-adv-x="1048" 
d="M106 516l295 418h148l-238 -418l238 -418h-148zM500 516l295 418h147l-237 -418l237 -418h-147z" />
    <glyph glyph-name="logicalnot" unicode="&#xac;" horiz-adv-x="1163" 
d="M115 442v156h934v-541h-164v385h-770z" />
    <glyph glyph-name="uni00AD" unicode="&#xad;" horiz-adv-x="811" 
d="M123 434v164h565v-164h-565z" />
    <glyph glyph-name="registered" unicode="&#xae;" horiz-adv-x="1589" 
d="M74 713q0 152 53 284.5t151.5 230t230.5 152t286 54.5q152 0 283.5 -54.5t230 -153t153 -230.5t54.5 -283q0 -152 -53.5 -287t-152 -236.5t-230.5 -158t-285 -56.5q-154 0 -286 56.5t-230.5 158t-151.5 236.5t-53 287zM221 713q0 -125 42 -236.5t119 -196.5t182.5 -133.5
t230.5 -48.5q121 0 226 48.5t183 133.5t121 196.5t43 236.5t-42 232.5t-119 188t-182 125t-230 44.5t-230.5 -44.5t-182.5 -125t-119 -188t-42 -232.5zM508 360v705h323q66 0 115 -15.5t83 -44t51.5 -69.5t17.5 -92q0 -35 -11.5 -68t-32 -60.5t-49 -49t-63.5 -33.5l180 -273
h-159l-158 254h-150v-254h-147zM655 737h172q31 0 53.5 7.5t38 21.5t23.5 33.5t8 44.5t-8 43t-23.5 30.5t-38 18.5t-53.5 6h-172v-205z" />
    <glyph glyph-name="macron" unicode="&#xaf;" horiz-adv-x="1146" 
d="M287 1262v139h565v-139h-565z" />
    <glyph glyph-name="degree" unicode="&#xb0;" horiz-adv-x="737" 
d="M82 1155q0 61 21.5 112.5t60.5 88.5t92 57.5t113 20.5q59 0 112.5 -20.5t92 -57.5t60 -88t21.5 -113q0 -61 -21.5 -112.5t-60 -88t-92 -57t-112.5 -20.5t-112.5 20.5t-92.5 57t-60.5 88t-21.5 112.5zM229 1155q0 -33 10.5 -59.5t30 -47t45 -30.5t54.5 -10t54.5 10
t44.5 30.5t29.5 47t10.5 59.5t-10.5 59.5t-29.5 47t-45 31t-54 10.5q-29 0 -54.5 -10.5t-45 -31t-30 -47t-10.5 -59.5z" />
    <glyph glyph-name="plusminus" unicode="&#xb1;" horiz-adv-x="1163" 
d="M115 0v156h934v-156h-934zM115 647v156h385v356h164v-356h385v-156h-385v-356h-164v356h-385z" />
    <glyph glyph-name="uni00B2" unicode="&#xb2;" 
d="M66 1016q0 76 19 133t52 96t71 65.5t87 51.5l49 24q31 16 56.5 31t44 31t28.5 32.5t10 35.5q0 23 -7 41t-22.5 30t-39 19.5t-54.5 7.5t-55 -8.5t-42.5 -25.5t-29 -42t-12.5 -55h-147q2 68 25.5 116t63.5 78.5t90 45t107 14.5q61 0 112.5 -14.5t88.5 -42t57.5 -68.5
t20.5 -92q0 -47 -19.5 -84t-51 -65t-67.5 -48t-91 -47l-50 -25q-23 -10 -43 -24.5t-36.5 -28.5t-25.5 -27.5t-9 -23.5h393v-131h-573z" />
    <glyph glyph-name="uni00B3" unicode="&#xb3;" 
d="M70 1229h147q0 -27 10.5 -48.5t29.5 -37t46 -22.5t57 -7q31 0 57.5 6t46 19.5t30 34t10.5 47.5t-10.5 47t-30 33.5t-46 19.5t-57.5 6h-57v107h57q29 0 52.5 6t40 18t25.5 29.5t9 40.5t-9 40t-25.5 29.5t-40 18.5t-52.5 6t-52 -7t-39.5 -21.5t-26 -34t-9.5 -43.5h-147
q0 53 19.5 94t57.5 69.5t90 43t116 14.5q61 0 110 -14.5t85 -41t55.5 -62.5t19.5 -79q0 -29 -7 -53.5t-22.5 -46t-37 -35.5t-48.5 -21v-6q31 -6 56.5 -21.5t44 -39t29 -52t10.5 -61.5q0 -49 -20.5 -87t-60.5 -64.5t-96.5 -40t-126.5 -13.5q-66 0 -119 13.5t-91.5 40
t-59 70.5t-20.5 106z" />
    <glyph glyph-name="acute" unicode="&#xb4;" horiz-adv-x="1146" 
d="M508 1163l213 336h213l-295 -336h-131z" />
    <glyph glyph-name="mu" unicode="&#xb5;" horiz-adv-x="1163" 
d="M156 -451v1450h180v-581q0 -80 15.5 -134.5t44 -88t70.5 -49t99 -15.5t105.5 24.5t84.5 71.5t54 113t18 143v516h181v-999h-172v147h-9q-23 -43 -51 -75.5t-66 -54t-84 -32t-102 -10.5q-29 0 -55.5 3.5t-51 10.5t-49 18t-44.5 26h-13q8 -57 12.5 -94t7.5 -74t4 -76t1 -84
v-156h-180z" />
    <glyph glyph-name="paragraph" unicode="&#xb6;" horiz-adv-x="1286" 
d="M82 958q0 102 35 185.5t102.5 143t163.5 91t215 31.5h123v-1409h-180v510q-106 8 -191.5 43t-145 93.5t-91 137t-31.5 174.5zM893 0v1409h180v-1409h-180z" />
    <glyph glyph-name="periodcentered" unicode="&#xb7;" horiz-adv-x="540" 
d="M156 401v230h229v-230h-229z" />
    <glyph glyph-name="cedilla" unicode="&#xb8;" horiz-adv-x="1146" 
d="M442 -336h107q27 0 46 4t32.5 13.5t20.5 24.5t7 40q0 20 -7 36.5t-21.5 26t-34 14.5t-43.5 5h-66l58 172h65v-74q45 -2 81 -17t59.5 -40t36 -55.5t12.5 -67.5q0 -43 -15.5 -79t-45 -62.5t-75 -41t-102.5 -14.5h-115v115z" />
    <glyph glyph-name="uni00B9" unicode="&#xb9;" 
d="M82 1548l287 172h98v-573h188v-131h-549v131h205v385l-164 -94z" />
    <glyph glyph-name="ordmasculine" unicode="&#xba;" horiz-adv-x="845" 
d="M61 1057q0 84 26 152.5t74 117.5t114.5 74.5t146.5 25.5q82 0 149.5 -25.5t115.5 -74.5t72.5 -117.5t24.5 -152.5t-25.5 -151.5t-74.5 -117t-115.5 -75t-146.5 -25.5q-82 0 -148.5 25.5t-114.5 74t-73 117t-25 152.5zM231 1057q0 -53 13.5 -96t39 -75t60.5 -49.5
t78 -17.5t79 17.5t61.5 49.5t38.5 75t13 96t-13 97t-38.5 76t-61.5 48t-79 16t-78 -16t-60.5 -48t-39 -76t-13.5 -97z" />
    <glyph glyph-name="guillemotright" unicode="&#xbb;" horiz-adv-x="1048" 
d="M106 98l238 418l-238 418h148l295 -418l-295 -418h-148zM500 98l237 418l-237 418h147l295 -418l-295 -418h-147z" />
    <glyph glyph-name="onequarter" unicode="&#xbc;" horiz-adv-x="1589" 
d="M82 1237l287 172h98v-573h188v-131h-549v131h205v385l-164 -95zM442 -25l713 1459h139l-712 -1459h-140zM918 131v98l385 476h131v-451h98v-123h-98v-131h-156v131h-360zM1087 254h191v240z" />
    <glyph glyph-name="onehalf" unicode="&#xbd;" horiz-adv-x="1589" 
d="M82 1237l287 172h98v-573h188v-131h-549v131h205v385l-164 -95zM393 -25l713 1459h139l-713 -1459h-139zM934 0q0 76 19.5 133t52 96t70.5 66t87 51l49 25q31 16 56.5 30.5t44 31t29 32.5t10.5 35q0 23 -7.5 41t-22.5 30.5t-38.5 19.5t-54.5 7t-55.5 -8t-43 -25.5
t-28.5 -42t-12 -55.5h-148q2 68 25.5 116t63.5 78.5t90 45t108 14.5q61 0 112.5 -14.5t88 -42t57 -68.5t20.5 -92q0 -47 -19.5 -84t-51 -64.5t-67.5 -48t-91 -47.5l-49 -24q-23 -10 -43.5 -24.5t-36.5 -29t-25.5 -28t-9.5 -23.5h393v-131h-573z" />
    <glyph glyph-name="threequarters" unicode="&#xbe;" horiz-adv-x="1589" 
d="M70 918h147q0 -27 10.5 -48.5t29.5 -37t46 -22.5t57 -7q31 0 57.5 6t46 19.5t30 34t10.5 46.5q0 27 -10.5 47.5t-30 34t-46 19.5t-57.5 6h-57v106h57q29 0 52.5 6.5t40 18.5t25.5 29.5t9 40.5t-9 40t-25.5 29t-40 18.5t-52.5 6.5t-52 -7.5t-39.5 -21.5t-26 -33.5
t-9.5 -44.5h-147q0 53 19.5 94t57.5 70t90 43t116 14q61 0 110 -14t85 -41t55.5 -62.5t19.5 -78.5q0 -29 -7 -53.5t-22.5 -46t-37 -36t-48.5 -20.5v-6q31 -6 56.5 -21.5t44 -39t29 -52t10.5 -61.5q0 -49 -20.5 -87t-60.5 -64.5t-96.5 -40t-126.5 -13.5q-66 0 -119 13.5
t-91.5 40t-59 70.5t-20.5 106zM418 -25l712 1459h140l-713 -1459h-139zM918 131v98l385 476h131v-451h98v-123h-98v-131h-156v131h-360zM1087 254h191v240z" />
    <glyph glyph-name="questiondown" unicode="&#xbf;" horiz-adv-x="1032" 
d="M82 -66q0 113 47 181.5t138 140.5t133 123t42 137v82h181v-57q0 -129 -46.5 -207t-138.5 -151.5t-130 -116.5t-38 -123q0 -47 16.5 -87t48.5 -71t76 -47.5t97 -16.5q68 0 119 23t84.5 63.5t50 94t16.5 114.5h180q0 -88 -27.5 -168.5t-83.5 -144t-141 -100.5t-198 -37
q-92 0 -171 25.5t-136.5 73.5t-88 116.5t-30.5 152.5zM426 778v221h213v-221h-213z" />
    <glyph glyph-name="Agrave" unicode="&#xc0;" horiz-adv-x="1318" 
d="M25 0l524 1409h221l524 -1409h-196l-133 369h-619l-133 -369h-188zM295 1909h213l213 -336h-131zM406 532h499l-246 680h-8z" />
    <glyph glyph-name="Aacute" unicode="&#xc1;" horiz-adv-x="1318" 
d="M25 0l524 1409h221l524 -1409h-196l-133 369h-619l-133 -369h-188zM406 532h499l-246 680h-8zM590 1573l213 336h213l-295 -336h-131z" />
    <glyph glyph-name="Acircumflex" unicode="&#xc2;" horiz-adv-x="1318" 
d="M25 0l524 1409h221l524 -1409h-196l-133 369h-619l-133 -369h-188zM311 1573l262 336h164l262 -336h-172l-172 229l-172 -229h-172zM406 532h499l-246 680h-8z" />
    <glyph glyph-name="Atilde" unicode="&#xc3;" horiz-adv-x="1318" 
d="M25 0l524 1409h221l524 -1409h-196l-133 369h-619l-133 -369h-188zM319 1573q2 47 15.5 87t39 70.5t61.5 47t81 16.5q41 0 79 -13.5t89 -39t73.5 -35.5t45.5 -10q20 0 35.5 8t27 22.5t17.5 32t10 35.5h98q-2 -47 -15 -87t-39 -70.5t-61.5 -47t-80.5 -16.5q-41 0 -79 13
t-89.5 39t-74 36t-44.5 10q-20 0 -35.5 -8t-27 -22.5t-17.5 -32t-10 -35.5h-99zM406 532h499l-246 680h-8z" />
    <glyph glyph-name="Adieresis" unicode="&#xc4;" horiz-adv-x="1318" 
d="M25 0l524 1409h221l524 -1409h-196l-133 369h-619l-133 -369h-188zM360 1573v188h181v-188h-181zM406 532h499l-246 680h-8zM770 1573v188h180v-188h-180z" />
    <glyph glyph-name="Aring" unicode="&#xc5;" horiz-adv-x="1318" 
d="M25 0l524 1409h221l524 -1409h-196l-133 369h-619l-133 -369h-188zM406 532h499l-246 680h-8zM451 1761q0 43 16 79t45 62.5t65.5 41t77.5 14.5t78 -14.5t65.5 -41t45 -62.5t16.5 -79t-16.5 -78.5t-45 -62.5t-65.5 -41t-78 -14t-77.5 14t-65.5 41t-45 62.5t-16 78.5z
M549 1761q0 -23 8 -42t22.5 -33.5t34 -22.5t41.5 -8q23 0 42.5 8t33.5 22.5t22.5 34t8.5 41.5q0 23 -8.5 42.5t-22.5 33.5t-33.5 22.5t-42.5 8.5t-42 -8.5t-33.5 -22.5t-22.5 -33.5t-8 -42.5z" />
    <glyph glyph-name="AE" unicode="&#xc6;" horiz-adv-x="2179" 
d="M25 0l1015 1409h1016v-164h-762v-446h607v-164h-607v-471h779v-164h-967v328h-625l-235 -328h-221zM598 492h508v696h-8z" />
    <glyph glyph-name="Ccedilla" unicode="&#xc7;" horiz-adv-x="1458" 
d="M90 705q0 156 49 289.5t140.5 232t216.5 153t274 54.5q121 0 222.5 -34t178 -95.5t126 -147.5t71.5 -190h-194q-20 72 -55.5 127t-85.5 92t-116.5 56.5t-146.5 19.5q-106 0 -195.5 -40t-154 -115t-99 -178.5t-34.5 -223.5q0 -119 34.5 -221.5t98 -178.5t150.5 -117
t192 -41q86 0 154.5 19.5t118.5 56.5t84 92.5t55 126.5h194q-20 -100 -68.5 -184t-122 -145.5t-171 -97t-211.5 -40.5v-49q45 -2 80.5 -17t59 -40t36 -55.5t12.5 -67.5q0 -43 -15.5 -79t-45 -62.5t-74.5 -41t-103 -14.5h-114v115h106q27 0 46.5 4t32.5 13.5t20.5 24.5
t7.5 40q0 20 -7.5 36.5t-21.5 26t-33.5 14.5t-44.5 5h-65l49 149q-139 8 -256 63.5t-201 153t-129 227.5t-45 284z" />
    <glyph glyph-name="Egrave" unicode="&#xc8;" horiz-adv-x="1253" 
d="M180 0v1409h950v-164h-761v-446h606v-164h-606v-471h778v-164h-967zM295 1909h213l213 -336h-131z" />
    <glyph glyph-name="Eacute" unicode="&#xc9;" horiz-adv-x="1253" 
d="M180 0v1409h950v-164h-761v-446h606v-164h-606v-471h778v-164h-967zM590 1573l213 336h213l-295 -336h-131z" />
    <glyph glyph-name="Ecircumflex" unicode="&#xca;" horiz-adv-x="1253" 
d="M180 0v1409h950v-164h-761v-446h606v-164h-606v-471h778v-164h-967zM311 1573l262 336h164l262 -336h-172l-172 229l-172 -229h-172z" />
    <glyph glyph-name="Edieresis" unicode="&#xcb;" horiz-adv-x="1253" 
d="M180 0v1409h950v-164h-761v-446h606v-164h-606v-471h778v-164h-967zM360 1573v188h181v-188h-181zM770 1573v188h180v-188h-180z" />
    <glyph glyph-name="Igrave" unicode="&#xcc;" horiz-adv-x="548" 
d="M-86 1909h213l213 -336h-131zM180 0v1409h189v-1409h-189z" />
    <glyph glyph-name="Iacute" unicode="&#xcd;" horiz-adv-x="548" 
d="M180 0v1409h189v-1409h-189zM209 1573l213 336h213l-295 -336h-131z" />
    <glyph glyph-name="Icircumflex" unicode="&#xce;" horiz-adv-x="548" 
d="M-70 1573l263 336h163l262 -336h-172l-172 229l-172 -229h-172zM180 0v1409h189v-1409h-189z" />
    <glyph glyph-name="Idieresis" unicode="&#xcf;" horiz-adv-x="548" 
d="M-20 1573v188h180v-188h-180zM180 0v1409h189v-1409h-189zM389 1573v188h180v-188h-180z" />
    <glyph glyph-name="Eth" unicode="&#xd0;" horiz-adv-x="1441" 
d="M8 631v155h172v623h434q178 0 317.5 -51t232.5 -145.5t140.5 -223.5t47.5 -284q0 -156 -47.5 -285t-140.5 -223.5t-232 -145.5t-318 -51h-434v631h-172zM369 164h245q143 0 248 43t169.5 117.5t94 171t29.5 209.5t-29.5 209t-94 170.5t-169 117.5t-248.5 43h-245v-459
h327v-155h-327v-467z" />
    <glyph glyph-name="Ntilde" unicode="&#xd1;" horiz-adv-x="1507" 
d="M180 0v1409h180l779 -1090h8l-8 1090h188v-1409h-180l-778 1081h-9l9 -1081h-189zM418 1573q2 47 15 87t39 70.5t61.5 47t80.5 16.5q41 0 79 -13.5t89.5 -39t74 -35.5t44.5 -10q20 0 35.5 8t27 22.5t17.5 32t10 35.5h99q-2 -47 -15.5 -87t-39 -70.5t-61.5 -47t-81 -16.5
q-41 0 -79 13t-89 39t-73.5 36t-45.5 10q-20 0 -35.5 -8t-27 -22.5t-17.5 -32t-10 -35.5h-98z" />
    <glyph glyph-name="Ograve" unicode="&#xd2;" horiz-adv-x="1556" 
d="M90 705q0 156 49 289.5t141.5 232t219.5 153t278 54.5q150 0 277 -54.5t219 -153t142 -232.5t50 -289q0 -156 -50 -290t-142 -232.5t-219 -153t-277 -54.5q-152 0 -278.5 54.5t-219 153t-141.5 232.5t-49 290zM287 705q0 -119 34.5 -221.5t100 -178.5t157 -117t199.5 -41
q109 0 200 41t156.5 117t100.5 178.5t35 221.5t-35 221t-100.5 178t-156.5 117t-200 41t-200 -41t-156.5 -117t-100 -178.5t-34.5 -220.5zM418 1909h213l213 -336h-131z" />
    <glyph glyph-name="Oacute" unicode="&#xd3;" horiz-adv-x="1556" 
d="M90 705q0 156 49 289.5t141.5 232t219.5 153t278 54.5q150 0 277 -54.5t219 -153t142 -232.5t50 -289q0 -156 -50 -290t-142 -232.5t-219 -153t-277 -54.5q-152 0 -278.5 54.5t-219 153t-141.5 232.5t-49 290zM287 705q0 -119 34.5 -221.5t100 -178.5t157 -117t199.5 -41
q109 0 200 41t156.5 117t100.5 178.5t35 221.5t-35 221t-100.5 178t-156.5 117t-200 41t-200 -41t-156.5 -117t-100 -178.5t-34.5 -220.5zM713 1573l213 336h213l-295 -336h-131z" />
    <glyph glyph-name="Ocircumflex" unicode="&#xd4;" horiz-adv-x="1556" 
d="M90 705q0 156 49 289.5t141.5 232t219.5 153t278 54.5q150 0 277 -54.5t219 -153t142 -232.5t50 -289q0 -156 -50 -290t-142 -232.5t-219 -153t-277 -54.5q-152 0 -278.5 54.5t-219 153t-141.5 232.5t-49 290zM287 705q0 -119 34.5 -221.5t100 -178.5t157 -117t199.5 -41
q109 0 200 41t156.5 117t100.5 178.5t35 221.5t-35 221t-100.5 178t-156.5 117t-200 41t-200 -41t-156.5 -117t-100 -178.5t-34.5 -220.5zM434 1573l262 336h164l262 -336h-172l-172 229l-172 -229h-172z" />
    <glyph glyph-name="Otilde" unicode="&#xd5;" horiz-adv-x="1556" 
d="M90 705q0 156 49 289.5t141.5 232t219.5 153t278 54.5q150 0 277 -54.5t219 -153t142 -232.5t50 -289q0 -156 -50 -290t-142 -232.5t-219 -153t-277 -54.5q-152 0 -278.5 54.5t-219 153t-141.5 232.5t-49 290zM287 705q0 -119 34.5 -221.5t100 -178.5t157 -117t199.5 -41
q109 0 200 41t156.5 117t100.5 178.5t35 221.5t-35 221t-100.5 178t-156.5 117t-200 41t-200 -41t-156.5 -117t-100 -178.5t-34.5 -220.5zM442 1573q2 47 15.5 87t39 70.5t61.5 47t81 16.5q41 0 79 -13.5t89 -39t73.5 -35.5t45.5 -10q20 0 35.5 8t26.5 22.5t17.5 32
t10.5 35.5h98q-2 -47 -15.5 -87t-39 -70.5t-61 -47t-80.5 -16.5q-41 0 -79 13t-89.5 39t-74 36t-44.5 10q-20 0 -35.5 -8t-27 -22.5t-17.5 -32t-10 -35.5h-99z" />
    <glyph glyph-name="Odieresis" unicode="&#xd6;" horiz-adv-x="1556" 
d="M90 705q0 156 49 289.5t141.5 232t219.5 153t278 54.5q150 0 277 -54.5t219 -153t142 -232.5t50 -289q0 -156 -50 -290t-142 -232.5t-219 -153t-277 -54.5q-152 0 -278.5 54.5t-219 153t-141.5 232.5t-49 290zM287 705q0 -119 34.5 -221.5t100 -178.5t157 -117t199.5 -41
q109 0 200 41t156.5 117t100.5 178.5t35 221.5t-35 221t-100.5 178t-156.5 117t-200 41t-200 -41t-156.5 -117t-100 -178.5t-34.5 -220.5zM483 1573v188h181v-188h-181zM893 1573v188h180v-188h-180z" />
    <glyph glyph-name="multiply" unicode="&#xd7;" horiz-adv-x="1163" 
d="M156 197l319 323l-319 324l106 106l320 -323l319 323l107 -106l-322 -324l322 -323l-107 -107l-319 324l-320 -324z" />
    <glyph glyph-name="Oslash" unicode="&#xd8;" horiz-adv-x="1556" 
d="M90 705q0 156 50 289.5t142.5 232t219.5 153t276 54.5q57 0 111.5 -9.5t106 -26t97.5 -41t89 -54.5l104 131h156l-168 -211q45 -49 81 -106.5t60.5 -124t37.5 -138.5t13 -149q0 -156 -51 -290t-144 -232.5t-220 -153t-273 -54.5q-59 0 -113.5 8.5t-105.5 25t-98 40
t-88 53.5l-103 -127h-155l166 207q-45 49 -81 107.5t-60.5 125t-37 139.5t-12.5 151zM287 705q0 -55 7 -106.5t21.5 -98.5t36 -89t47.5 -79l670 831q-29 23 -62.5 41.5t-69.5 31.5t-76 19.5t-83 6.5q-109 0 -200 -41t-156.5 -117t-100 -178.5t-34.5 -220.5zM485 244
q31 -23 64 -41.5t69.5 -30.5t76.5 -18.5t83 -6.5q109 0 200 41t156.5 117t100.5 178.5t35 221.5q0 53 -7.5 105t-22.5 99t-35.5 89t-49.5 79z" />
    <glyph glyph-name="Ugrave" unicode="&#xd9;" horiz-adv-x="1425" 
d="M147 557v852h189v-852q0 -98 23.5 -174t69.5 -128t117.5 -80t166.5 -28q94 0 165.5 28t117.5 80t70 128t24 174v852h188v-852q0 -154 -40 -265.5t-115.5 -181t-178 -102.5t-231.5 -33t-231.5 33t-178.5 102.5t-116 181t-40 265.5zM352 1909h213l213 -336h-131z" />
    <glyph glyph-name="Uacute" unicode="&#xda;" horiz-adv-x="1425" 
d="M147 557v852h189v-852q0 -98 23.5 -174t69.5 -128t117.5 -80t166.5 -28q94 0 165.5 28t117.5 80t70 128t24 174v852h188v-852q0 -154 -40 -265.5t-115.5 -181t-178 -102.5t-231.5 -33t-231.5 33t-178.5 102.5t-116 181t-40 265.5zM647 1573l213 336h213l-295 -336h-131z
" />
    <glyph glyph-name="Ucircumflex" unicode="&#xdb;" horiz-adv-x="1425" 
d="M147 557v852h189v-852q0 -98 23.5 -174t69.5 -128t117.5 -80t166.5 -28q94 0 165.5 28t117.5 80t70 128t24 174v852h188v-852q0 -154 -40 -265.5t-115.5 -181t-178 -102.5t-231.5 -33t-231.5 33t-178.5 102.5t-116 181t-40 265.5zM369 1573l262 336h164l262 -336h-172
l-172 229l-172 -229h-172z" />
    <glyph glyph-name="Udieresis" unicode="&#xdc;" horiz-adv-x="1425" 
d="M147 557v852h189v-852q0 -98 23.5 -174t69.5 -128t117.5 -80t166.5 -28q94 0 165.5 28t117.5 80t70 128t24 174v852h188v-852q0 -154 -40 -265.5t-115.5 -181t-178 -102.5t-231.5 -33t-231.5 33t-178.5 102.5t-116 181t-40 265.5zM418 1573v188h180v-188h-180zM827 1573
v188h181v-188h-181z" />
    <glyph glyph-name="Yacute" unicode="&#xdd;" horiz-adv-x="1245" 
d="M25 1409h213l380 -664h9l397 664h197l-508 -842v-567h-189v553zM557 1573l213 336h213l-295 -336h-131z" />
    <glyph glyph-name="Thorn" unicode="&#xde;" horiz-adv-x="1302" 
d="M180 0v1409h189v-229h344q119 0 212 -33t157.5 -93.5t97 -143.5t32.5 -181q0 -100 -32.5 -185t-97 -148.5t-158 -98.5t-211.5 -35h-344v-262h-189zM369 426h352q74 0 131 23.5t96 65.5t57.5 96.5t18.5 117.5q0 61 -18.5 113.5t-56.5 91.5t-95 60.5t-133 21.5h-352v-590z
" />
    <glyph glyph-name="germandbls" unicode="&#xdf;" horiz-adv-x="1163" 
d="M156 0v1049q0 121 32.5 212t92 149t140.5 86t177 28q94 0 166 -25.5t119 -70t69.5 -99.5t22.5 -117q0 -72 -28.5 -122t-85 -106t-78 -81.5t-21.5 -66.5q0 -51 28.5 -77t126 -97.5t143.5 -139t46 -170.5q0 -84 -29.5 -149.5t-85 -110.5t-130.5 -68.5t-165 -23.5h-172v147
h172q51 0 93 12.5t73 36t47.5 59.5t16.5 81q0 78 -39 122t-122 99t-125 110.5t-42 151.5q0 72 27.5 119t82 99.5t79 87t24.5 87.5q0 31 -13.5 61t-40 53.5t-69.5 36.5t-98 13q-59 0 -105.5 -18.5t-80 -58t-51 -102t-17.5 -148.5v-1049h-180z" />
    <glyph glyph-name="agrave" unicode="&#xe0;" horiz-adv-x="1073" 
d="M98 254q0 63 18.5 112.5t58.5 88.5t101.5 65.5t149.5 40.5l197 33q43 8 67.5 14t37.5 14.5t19.5 19.5t6.5 30q0 45 -13.5 83t-40 65.5t-67.5 42t-92 14.5q-53 0 -95.5 -13.5t-71 -39t-44 -60.5t-19.5 -76h-172q4 72 32 133.5t79 106.5t125 70.5t166 25.5
q96 0 170.5 -24.5t124 -72.5t74 -117t24.5 -155v-655h-172v133h-8q-20 -39 -53 -68.5t-74 -49t-89.5 -30t-103.5 -10.5q-78 0 -141.5 19.5t-106.5 56.5t-65.5 88t-22.5 115zM188 1499h213l213 -336h-131zM279 270q0 -33 11 -59.5t34.5 -47t59.5 -30.5t83 -10
q59 0 111.5 18.5t91.5 56.5t61.5 93t22.5 127v96q-8 -8 -18.5 -16.5t-24 -13.5t-29.5 -9t-35 -8l-188 -33q-49 -8 -83 -22.5t-55.5 -35t-31.5 -47t-10 -59.5z" />
    <glyph glyph-name="aacute" unicode="&#xe1;" horiz-adv-x="1073" 
d="M98 254q0 63 18.5 112.5t58.5 88.5t101.5 65.5t149.5 40.5l197 33q43 8 67.5 14t37.5 14.5t19.5 19.5t6.5 30q0 45 -13.5 83t-40 65.5t-67.5 42t-92 14.5q-53 0 -95.5 -13.5t-71 -39t-44 -60.5t-19.5 -76h-172q4 72 32 133.5t79 106.5t125 70.5t166 25.5
q96 0 170.5 -24.5t124 -72.5t74 -117t24.5 -155v-655h-172v133h-8q-20 -39 -53 -68.5t-74 -49t-89.5 -30t-103.5 -10.5q-78 0 -141.5 19.5t-106.5 56.5t-65.5 88t-22.5 115zM279 270q0 -33 11 -59.5t34.5 -47t59.5 -30.5t83 -10q59 0 111.5 18.5t91.5 56.5t61.5 93t22.5 127
v96q-8 -8 -18.5 -16.5t-24 -13.5t-29.5 -9t-35 -8l-188 -33q-49 -8 -83 -22.5t-55.5 -35t-31.5 -47t-10 -59.5zM451 1163l213 336h213l-295 -336h-131z" />
    <glyph glyph-name="acircumflex" unicode="&#xe2;" horiz-adv-x="1073" 
d="M98 254q0 63 18.5 112.5t58.5 88.5t101.5 65.5t149.5 40.5l197 33q43 8 67.5 14t37.5 14.5t19.5 19.5t6.5 30q0 45 -13.5 83t-40 65.5t-67.5 42t-92 14.5q-53 0 -95.5 -13.5t-71 -39t-44 -60.5t-19.5 -76h-172q4 72 32 133.5t79 106.5t125 70.5t166 25.5
q96 0 170.5 -24.5t124 -72.5t74 -117t24.5 -155v-655h-172v133h-8q-20 -39 -53 -68.5t-74 -49t-89.5 -30t-103.5 -10.5q-78 0 -141.5 19.5t-106.5 56.5t-65.5 88t-22.5 115zM188 1163l263 336h163l263 -336h-172l-173 230l-172 -230h-172zM279 270q0 -33 11 -59.5t34.5 -47
t59.5 -30.5t83 -10q59 0 111.5 18.5t91.5 56.5t61.5 93t22.5 127v96q-8 -8 -18.5 -16.5t-24 -13.5t-29.5 -9t-35 -8l-188 -33q-49 -8 -83 -22.5t-55.5 -35t-31.5 -47t-10 -59.5z" />
    <glyph glyph-name="atilde" unicode="&#xe3;" horiz-adv-x="1073" 
d="M98 254q0 63 18.5 112.5t58.5 88.5t101.5 65.5t149.5 40.5l197 33q43 8 67.5 14t37.5 14.5t19.5 19.5t6.5 30q0 45 -13.5 83t-40 65.5t-67.5 42t-92 14.5q-53 0 -95.5 -13.5t-71 -39t-44 -60.5t-19.5 -76h-172q4 72 32 133.5t79 106.5t125 70.5t166 25.5
q96 0 170.5 -24.5t124 -72.5t74 -117t24.5 -155v-655h-172v133h-8q-20 -39 -53 -68.5t-74 -49t-89.5 -30t-103.5 -10.5q-78 0 -141.5 19.5t-106.5 56.5t-65.5 88t-22.5 115zM197 1221q2 47 15 87t38.5 70.5t61.5 47t81 16.5q41 0 79 -13.5t89 -39t73.5 -36t45.5 -10.5
q20 0 35.5 8.5t27 23t17.5 31.5t10 36h98q-2 -47 -15 -87t-39 -71t-61.5 -47t-80.5 -16q-41 0 -79 13t-89 38.5t-73.5 36t-45.5 10.5q-20 0 -35.5 -8t-27 -22.5t-17.5 -32t-10 -35.5h-98zM279 270q0 -33 11 -59.5t34.5 -47t59.5 -30.5t83 -10q59 0 111.5 18.5t91.5 56.5
t61.5 93t22.5 127v96q-8 -8 -18.5 -16.5t-24 -13.5t-29.5 -9t-35 -8l-188 -33q-49 -8 -83 -22.5t-55.5 -35t-31.5 -47t-10 -59.5z" />
    <glyph glyph-name="adieresis" unicode="&#xe4;" horiz-adv-x="1073" 
d="M98 254q0 63 18.5 112.5t58.5 88.5t101.5 65.5t149.5 40.5l197 33q43 8 67.5 14t37.5 14.5t19.5 19.5t6.5 30q0 45 -13.5 83t-40 65.5t-67.5 42t-92 14.5q-53 0 -95.5 -13.5t-71 -39t-44 -60.5t-19.5 -76h-172q4 72 32 133.5t79 106.5t125 70.5t166 25.5
q96 0 170.5 -24.5t124 -72.5t74 -117t24.5 -155v-655h-172v133h-8q-20 -39 -53 -68.5t-74 -49t-89.5 -30t-103.5 -10.5q-78 0 -141.5 19.5t-106.5 56.5t-65.5 88t-22.5 115zM238 1237v188h180v-188h-180zM279 270q0 -33 11 -59.5t34.5 -47t59.5 -30.5t83 -10
q59 0 111.5 18.5t91.5 56.5t61.5 93t22.5 127v96q-8 -8 -18.5 -16.5t-24 -13.5t-29.5 -9t-35 -8l-188 -33q-49 -8 -83 -22.5t-55.5 -35t-31.5 -47t-10 -59.5zM647 1237v188h180v-188h-180z" />
    <glyph glyph-name="aring" unicode="&#xe5;" horiz-adv-x="1073" 
d="M98 254q0 63 18.5 112.5t58.5 88.5t101.5 65.5t149.5 40.5l197 33q43 8 67.5 14t37.5 14.5t19.5 19.5t6.5 30q0 45 -13.5 83t-40 65.5t-67.5 42t-92 14.5q-53 0 -95.5 -13.5t-71 -39t-44 -60.5t-19.5 -76h-172q4 72 32 133.5t79 106.5t125 70.5t166 25.5
q96 0 170.5 -24.5t124 -72.5t74 -117t24.5 -155v-655h-172v133h-8q-20 -39 -53 -68.5t-74 -49t-89.5 -30t-103.5 -10.5q-78 0 -141.5 19.5t-106.5 56.5t-65.5 88t-22.5 115zM279 270q0 -33 11 -59.5t34.5 -47t59.5 -30.5t83 -10q59 0 111.5 18.5t91.5 56.5t61.5 93t22.5 127
v96q-8 -8 -18.5 -16.5t-24 -13.5t-29.5 -9t-35 -8l-188 -33q-49 -8 -83 -22.5t-55.5 -35t-31.5 -47t-10 -59.5zM328 1352q0 43 16 78.5t45 62.5t66 41t77 14q41 0 78 -14t66 -41t45 -62.5t16 -78.5t-16 -79t-45 -62.5t-66 -41t-78 -14.5t-77.5 14.5t-65.5 41t-45 62.5
t-16 79zM426 1352q0 -23 8 -42.5t22.5 -33.5t34 -22.5t41.5 -8.5q23 0 42.5 8.5t34 22.5t22.5 33.5t8 42.5t-8 42t-22.5 33.5t-34 22.5t-42.5 8t-42 -8t-33.5 -22.5t-22.5 -34t-8 -41.5z" />
    <glyph glyph-name="ae" unicode="&#xe6;" horiz-adv-x="1728" 
d="M98 254q0 61 18.5 110.5t58.5 88.5t102.5 66.5t148.5 41.5l197 33q43 8 67.5 14t37.5 14.5t19.5 19.5t6.5 30q0 43 -12.5 81t-39 65.5t-67.5 43t-94 15.5q-45 0 -86 -11.5t-72 -36t-50.5 -59.5t-21.5 -82h-172q6 86 40 150.5t89.5 105.5t125 60.5t147.5 19.5q59 0 109 -9
t93 -28.5t77 -48.5t57 -66q29 37 65.5 65t79.5 47.5t93 29.5t106 10q94 0 174 -31.5t138 -94t90 -151t32 -198.5v-74h-713q2 -80 24.5 -143.5t60.5 -108.5t89 -68.5t113 -23.5q55 0 97 13.5t70.5 38t45 54t24.5 66.5h181q-10 -68 -45 -127t-90.5 -104t-128 -71t-154.5 -26
q-70 0 -129.5 13.5t-109.5 41t-89 65.5t-67 89q-35 -59 -80 -100t-97.5 -64.5t-107.5 -34t-115 -10.5q-78 0 -141.5 19.5t-106.5 56.5t-65.5 88t-22.5 115zM279 270q0 -35 12 -62.5t36.5 -46t59.5 -28.5t80 -10q59 0 111.5 17.5t91.5 54t61.5 93t22.5 130.5v96
q-8 -8 -18.5 -16.5t-24 -13.5t-29.5 -9t-35 -8l-188 -33q-47 -8 -81 -22.5t-56.5 -35t-32.5 -47t-10 -59.5zM950 610h514q-4 61 -23.5 110.5t-51 82.5t-73.5 49t-95 16t-97.5 -18.5t-79 -52t-58 -80.5t-36.5 -107z" />
    <glyph glyph-name="ccedilla" unicode="&#xe7;" horiz-adv-x="1056" 
d="M82 500q0 117 36 214t100.5 166.5t151.5 106.5t187 37q94 0 171 -26.5t132 -75t88 -115t43 -143.5h-180q-8 45 -26.5 81.5t-50.5 64.5t-76 43t-101 15q-61 0 -113.5 -26.5t-91.5 -75.5t-60.5 -116.5t-21.5 -149.5t21.5 -149.5t60.5 -117t91.5 -76t113.5 -26.5
q57 0 101 15.5t76 43t50.5 64.5t26.5 82h180q-10 -76 -40.5 -139.5t-82 -110.5t-121 -75.5t-157.5 -33.5v-51q45 -2 81 -17t59.5 -40t35.5 -55.5t12 -67.5q0 -43 -15 -79t-45 -62.5t-75 -41t-102 -14.5h-115v115h106q27 0 46.5 4t33 13.5t20.5 24.5t7 40q0 20 -7 36.5
t-21.5 26t-34 14.5t-44.5 5h-65l49 149q-100 6 -181 46t-137.5 108t-86 162t-29.5 207z" />
    <glyph glyph-name="egrave" unicode="&#xe8;" horiz-adv-x="1073" 
d="M82 500q0 115 36 212t100.5 166.5t151.5 107.5t187 38q98 0 179 -31.5t140.5 -94t91 -151t31.5 -198.5v-74h-729q2 -78 24.5 -141.5t61.5 -108.5t91.5 -69.5t117.5 -24.5q53 0 96.5 13.5t74 38t49 55t26.5 65.5h180q-10 -68 -45 -127t-91 -104t-130 -71t-160 -26
q-115 0 -206 37t-152.5 105.5t-93 166t-31.5 216.5zM197 1499h213l213 -336h-131zM281 610h534q-6 68 -25.5 116t-52 80t-78 47t-102.5 15q-51 0 -96 -17t-81 -51t-61.5 -82t-37.5 -108z" />
    <glyph glyph-name="eacute" unicode="&#xe9;" horiz-adv-x="1073" 
d="M82 500q0 115 36 212t100.5 166.5t151.5 107.5t187 38q98 0 179 -31.5t140.5 -94t91 -151t31.5 -198.5v-74h-729q2 -78 24.5 -141.5t61.5 -108.5t91.5 -69.5t117.5 -24.5q53 0 96.5 13.5t74 38t49 55t26.5 65.5h180q-10 -68 -45 -127t-91 -104t-130 -71t-160 -26
q-115 0 -206 37t-152.5 105.5t-93 166t-31.5 216.5zM281 610h534q-6 68 -25.5 116t-52 80t-78 47t-102.5 15q-51 0 -96 -17t-81 -51t-61.5 -82t-37.5 -108zM492 1163l213 336h213l-295 -336h-131z" />
    <glyph glyph-name="ecircumflex" unicode="&#xea;" horiz-adv-x="1073" 
d="M82 500q0 115 36 212t100.5 166.5t151.5 107.5t187 38q98 0 179 -31.5t140.5 -94t91 -151t31.5 -198.5v-74h-729q2 -78 24.5 -141.5t61.5 -108.5t91.5 -69.5t117.5 -24.5q53 0 96.5 13.5t74 38t49 55t26.5 65.5h180q-10 -68 -45 -127t-91 -104t-130 -71t-160 -26
q-115 0 -206 37t-152.5 105.5t-93 166t-31.5 216.5zM213 1163l262 336h164l262 -336h-172l-172 230l-172 -230h-172zM281 610h534q-6 68 -25.5 116t-52 80t-78 47t-102.5 15q-51 0 -96 -17t-81 -51t-61.5 -82t-37.5 -108z" />
    <glyph glyph-name="edieresis" unicode="&#xeb;" horiz-adv-x="1073" 
d="M82 500q0 115 36 212t100.5 166.5t151.5 107.5t187 38q98 0 179 -31.5t140.5 -94t91 -151t31.5 -198.5v-74h-729q2 -78 24.5 -141.5t61.5 -108.5t91.5 -69.5t117.5 -24.5q53 0 96.5 13.5t74 38t49 55t26.5 65.5h180q-10 -68 -45 -127t-91 -104t-130 -71t-160 -26
q-115 0 -206 37t-152.5 105.5t-93 166t-31.5 216.5zM262 1237v188h180v-188h-180zM281 610h534q-6 68 -25.5 116t-52 80t-78 47t-102.5 15q-51 0 -96 -17t-81 -51t-61.5 -82t-37.5 -108zM672 1237v188h180v-188h-180z" />
    <glyph glyph-name="igrave" unicode="&#xec;" horiz-adv-x="491" 
d="M-115 1499h213l213 -336h-131zM156 0v999h180v-999h-180z" />
    <glyph glyph-name="iacute" unicode="&#xed;" horiz-adv-x="491" 
d="M156 0v999h180v-999h-180zM180 1163l213 336h213l-295 -336h-131z" />
    <glyph glyph-name="icircumflex" unicode="&#xee;" horiz-adv-x="491" 
d="M-98 1163l262 336h164l262 -336h-172l-172 230l-172 -230h-172zM156 0v999h180v-999h-180z" />
    <glyph glyph-name="idieresis" unicode="&#xef;" horiz-adv-x="491" 
d="M-49 1237v188h180v-188h-180zM156 0v999h180v-999h-180zM360 1237v188h181v-188h-181z" />
    <glyph glyph-name="eth" unicode="&#xf0;" horiz-adv-x="1179" 
d="M90 467q0 104 38 195.5t105.5 158t154.5 102t185 35.5q39 0 80 -7t82 -21.5t78 -38t64 -55.5h10q-18 63 -42 118.5t-53.5 102.5t-66.5 88t-82 76l-225 -156l-66 98l185 127q-27 14 -57.5 27.5t-63.5 27t-70 24.5t-76 24l41 131q51 -14 99.5 -29.5t93.5 -33t86 -37
t80 -42.5l207 142l65 -99l-166 -114q74 -57 131.5 -128t98.5 -161t62.5 -207t21.5 -260v-6q0 -135 -37 -242.5t-104.5 -181.5t-159 -112t-199.5 -38q-113 0 -205 36t-158.5 102.5t-101.5 156.5t-35 197zM279 467q0 -72 22.5 -134.5t65.5 -107.5t99 -69.5t124 -24.5t124 24.5
t99 69.5t65.5 107.5t22.5 134.5q0 76 -22.5 138.5t-64.5 106.5t-99.5 67.5t-124.5 23.5q-68 0 -124 -24.5t-99 -69.5t-65.5 -107.5t-22.5 -134.5z" />
    <glyph glyph-name="ntilde" unicode="&#xf1;" horiz-adv-x="1155" 
d="M156 0v999h172v-147h8q20 43 51 74.5t71 53t87 33t102 11.5q78 0 143.5 -22.5t116.5 -71.5t80 -130t29 -194v-606h-180v582q0 78 -16.5 133t-46.5 89t-72 49t-95 15q-57 0 -106 -24.5t-86 -69.5t-57.5 -110.5t-20.5 -145.5v-518h-180zM246 1221q2 47 15 87t39 70.5
t61.5 47t80.5 16.5q41 0 79 -13.5t89.5 -39t74 -36t44.5 -10.5q20 0 35.5 8.5t27 23t17.5 31.5t10 36h99q-2 -47 -15.5 -87t-39 -71t-61.5 -47t-81 -16q-41 0 -79 13t-89 38.5t-73.5 36t-45.5 10.5q-20 0 -35.5 -8t-27 -22.5t-17.5 -32t-10 -35.5h-98z" />
    <glyph glyph-name="ograve" unicode="&#xf2;" horiz-adv-x="1146" 
d="M82 500q0 119 36 216t102.5 165.5t156.5 105.5t196 37q113 0 204 -37t155.5 -105.5t98.5 -166t34 -215.5q0 -119 -36 -216.5t-102.5 -166t-156.5 -105.5t-197 -37q-113 0 -203.5 37t-155 105.5t-98.5 166t-34 216.5zM213 1499h213l213 -336h-131zM270 500
q0 -82 21.5 -150.5t62.5 -117t96.5 -75t122.5 -26.5q68 0 123.5 26.5t96.5 75t62.5 117t21.5 150.5q0 84 -21.5 152.5t-62.5 116.5t-96.5 73.5t-123.5 25.5t-123 -26.5t-96 -74.5t-62.5 -116.5t-21.5 -150.5z" />
    <glyph glyph-name="oacute" unicode="&#xf3;" horiz-adv-x="1146" 
d="M82 500q0 119 36 216t102.5 165.5t156.5 105.5t196 37q113 0 204 -37t155.5 -105.5t98.5 -166t34 -215.5q0 -119 -36 -216.5t-102.5 -166t-156.5 -105.5t-197 -37q-113 0 -203.5 37t-155 105.5t-98.5 166t-34 216.5zM270 500q0 -82 21.5 -150.5t62.5 -117t96.5 -75
t122.5 -26.5q68 0 123.5 26.5t96.5 75t62.5 117t21.5 150.5q0 84 -21.5 152.5t-62.5 116.5t-96.5 73.5t-123.5 25.5t-123 -26.5t-96 -74.5t-62.5 -116.5t-21.5 -150.5zM508 1163l213 336h213l-295 -336h-131z" />
    <glyph glyph-name="ocircumflex" unicode="&#xf4;" horiz-adv-x="1146" 
d="M82 500q0 119 36 216t102.5 165.5t156.5 105.5t196 37q113 0 204 -37t155.5 -105.5t98.5 -166t34 -215.5q0 -119 -36 -216.5t-102.5 -166t-156.5 -105.5t-197 -37q-113 0 -203.5 37t-155 105.5t-98.5 166t-34 216.5zM229 1163l263 336h163l263 -336h-173l-172 230
l-172 -230h-172zM270 500q0 -82 21.5 -150.5t62.5 -117t96.5 -75t122.5 -26.5q68 0 123.5 26.5t96.5 75t62.5 117t21.5 150.5q0 84 -21.5 152.5t-62.5 116.5t-96.5 73.5t-123.5 25.5t-123 -26.5t-96 -74.5t-62.5 -116.5t-21.5 -150.5z" />
    <glyph glyph-name="otilde" unicode="&#xf5;" horiz-adv-x="1146" 
d="M82 500q0 119 36 216t102.5 165.5t156.5 105.5t196 37q113 0 204 -37t155.5 -105.5t98.5 -166t34 -215.5q0 -119 -36 -216.5t-102.5 -166t-156.5 -105.5t-197 -37q-113 0 -203.5 37t-155 105.5t-98.5 166t-34 216.5zM238 1221q2 47 15 87t38.5 70.5t61.5 47t81 16.5
q41 0 79 -13.5t89 -39t73.5 -36t45.5 -10.5q20 0 35.5 8.5t27 23t17.5 31.5t10 36h98q-2 -47 -15 -87t-39 -71t-61.5 -47t-80.5 -16q-41 0 -79 13t-89 38.5t-73.5 36t-45.5 10.5q-20 0 -35.5 -8t-27 -22.5t-17.5 -32t-10 -35.5h-98zM270 500q0 -82 21.5 -150.5t62.5 -117
t96.5 -75t122.5 -26.5q68 0 123.5 26.5t96.5 75t62.5 117t21.5 150.5q0 84 -21.5 152.5t-62.5 116.5t-96.5 73.5t-123.5 25.5t-123 -26.5t-96 -74.5t-62.5 -116.5t-21.5 -150.5z" />
    <glyph glyph-name="odieresis" unicode="&#xf6;" horiz-adv-x="1146" 
d="M82 500q0 119 36 216t102.5 165.5t156.5 105.5t196 37q113 0 204 -37t155.5 -105.5t98.5 -166t34 -215.5q0 -119 -36 -216.5t-102.5 -166t-156.5 -105.5t-197 -37q-113 0 -203.5 37t-155 105.5t-98.5 166t-34 216.5zM270 500q0 -82 21.5 -150.5t62.5 -117t96.5 -75
t122.5 -26.5q68 0 123.5 26.5t96.5 75t62.5 117t21.5 150.5q0 84 -21.5 152.5t-62.5 116.5t-96.5 73.5t-123.5 25.5t-123 -26.5t-96 -74.5t-62.5 -116.5t-21.5 -150.5zM279 1237v188h180v-188h-180zM688 1237v188h180v-188h-180z" />
    <glyph glyph-name="divide" unicode="&#xf7;" horiz-adv-x="1163" 
d="M115 442v156h934v-156h-934zM483 53v205h197v-205h-197zM483 778v205h197v-205h-197z" />
    <glyph glyph-name="oslash" unicode="&#xf8;" horiz-adv-x="1146" 
d="M82 -25l123 152q-31 35 -53.5 76t-38 87t-23.5 99t-8 111q0 119 36 216t102.5 165.5t156.5 105.5t196 37q43 0 83 -5t76 -16.5t70 -26.5t62 -36l70 84h131l-125 -154q31 -35 53.5 -74.5t39 -86.5t24.5 -99.5t8 -109.5q0 -119 -36 -216.5t-102.5 -166t-156.5 -105.5
t-197 -37q-43 0 -82.5 5.5t-76.5 16.5t-71 26.5t-62 35.5l-68 -84h-131zM270 500q0 -33 3 -63.5t10.5 -59.5t17.5 -54.5t23 -48.5l432 531q-18 16 -39 27.5t-44.5 19.5t-48 12t-51.5 4q-68 0 -123 -26.5t-96 -74.5t-62.5 -116.5t-21.5 -150.5zM391 195q18 -16 39 -27.5
t44.5 -20t48 -12.5t50.5 -4q68 0 123.5 26.5t96.5 75t62.5 117t21.5 150.5q0 33 -3.5 64.5t-10.5 59t-17 53t-23 48.5z" />
    <glyph glyph-name="ugrave" unicode="&#xf9;" horiz-adv-x="1146" 
d="M139 393v606h180v-581q0 -78 16.5 -133.5t46.5 -89t72 -49t95 -15.5q57 0 105 24.5t84 71.5t54.5 113t18.5 143v516h180v-999h-172v147h-8q-23 -43 -51.5 -75.5t-66.5 -54t-84 -32t-101 -10.5q-78 0 -143.5 22.5t-116.5 72t-80 130.5t-29 193zM217 1499h213l213 -336
h-131z" />
    <glyph glyph-name="uacute" unicode="&#xfa;" horiz-adv-x="1146" 
d="M139 393v606h180v-581q0 -78 16.5 -133.5t46.5 -89t72 -49t95 -15.5q57 0 105 24.5t84 71.5t54.5 113t18.5 143v516h180v-999h-172v147h-8q-23 -43 -51.5 -75.5t-66.5 -54t-84 -32t-101 -10.5q-78 0 -143.5 22.5t-116.5 72t-80 130.5t-29 193zM512 1163l213 336h213
l-295 -336h-131z" />
    <glyph glyph-name="ucircumflex" unicode="&#xfb;" horiz-adv-x="1146" 
d="M139 393v606h180v-581q0 -78 16.5 -133.5t46.5 -89t72 -49t95 -15.5q57 0 105 24.5t84 71.5t54.5 113t18.5 143v516h180v-999h-172v147h-8q-23 -43 -51.5 -75.5t-66.5 -54t-84 -32t-101 -10.5q-78 0 -143.5 22.5t-116.5 72t-80 130.5t-29 193zM233 1163l263 336h163
l263 -336h-172l-172 230l-172 -230h-173z" />
    <glyph glyph-name="udieresis" unicode="&#xfc;" horiz-adv-x="1146" 
d="M139 393v606h180v-581q0 -78 16.5 -133.5t46.5 -89t72 -49t95 -15.5q57 0 105 24.5t84 71.5t54.5 113t18.5 143v516h180v-999h-172v147h-8q-23 -43 -51.5 -75.5t-66.5 -54t-84 -32t-101 -10.5q-78 0 -143.5 22.5t-116.5 72t-80 130.5t-29 193zM283 1237v188h180v-188
h-180zM692 1237v188h180v-188h-180z" />
    <glyph glyph-name="yacute" unicode="&#xfd;" horiz-adv-x="958" 
d="M8 999h197l278 -802h9l278 802h180l-424 -1155q-23 -61 -53.5 -115.5t-73.5 -98.5t-102 -70.5t-131 -26.5h-98v156h65q43 0 80 13t67.5 39t55 63.5t43.5 89.5l22 63zM410 1163l213 336h213l-295 -336h-131z" />
    <glyph glyph-name="thorn" unicode="&#xfe;" horiz-adv-x="1196" 
d="M156 -451v1950h180v-319v-72t-1 -77t-3 -93t-4 -94h8q25 47 59.5 82t78.5 56.5t94 31.5t104 10q96 0 177 -35t140.5 -101.5t92 -162.5t32.5 -217t-35 -219.5t-98 -169t-147 -107.5t-179 -37q-53 0 -100 10.5t-88 32t-74 55t-57 83.5h-8q2 -45 4 -94.5t3 -93.5t1 -76.5
v-71.5v-271h-180zM336 500q0 -86 22.5 -156t62.5 -117t94 -71.5t116 -24.5q61 0 115.5 25.5t94.5 75t62.5 120t22.5 156.5t-22.5 154.5t-62.5 113.5t-94.5 68.5t-115.5 23.5q-59 0 -112.5 -23.5t-93.5 -68.5t-63.5 -110.5t-25.5 -149.5v-16z" />
    <glyph glyph-name="ydieresis" unicode="&#xff;" horiz-adv-x="958" 
d="M8 999h197l278 -802h9l278 802h180l-424 -1155q-23 -61 -53.5 -115.5t-73.5 -98.5t-102 -70.5t-131 -26.5h-98v156h65q43 0 80 13t67.5 39t55 63.5t43.5 89.5l22 63zM180 1237v188h180v-188h-180zM590 1237v188h180v-188h-180z" />
    <glyph glyph-name="OE" unicode="&#x152;" horiz-adv-x="2113" 
d="M90 705q0 156 47 284.5t140.5 223t232.5 145.5t317 51h1164v-164h-762v-446h606v-164h-606v-471h778v-164h-1180q-178 0 -317 51t-232.5 145.5t-140.5 223.5t-47 285zM287 705q0 -113 29.5 -209.5t94 -171t169 -117.5t247.5 -43h213v1081h-213q-143 0 -247.5 -43
t-169 -117.5t-94 -171t-29.5 -208.5z" />
    <glyph glyph-name="oe" unicode="&#x153;" horiz-adv-x="1859" 
d="M82 500q0 119 36 216t102.5 165.5t156.5 105.5t196 37q66 0 125.5 -13.5t109.5 -40t90 -64.5t71 -87q31 49 70.5 87t88 64.5t102.5 40t113 13.5q98 0 179.5 -31.5t140.5 -94t91 -151t32 -198.5v-74h-729q2 -78 24.5 -141.5t61.5 -108.5t91 -69.5t118 -24.5q53 0 96 13.5
t73.5 38t49 55t26.5 65.5h181q-10 -68 -45 -127t-91.5 -104t-130 -71t-159.5 -26q-68 0 -127.5 13.5t-108.5 39t-88 63.5t-67 85q-31 -47 -72 -85t-90 -63.5t-106.5 -39t-119.5 -13.5q-113 0 -203.5 37t-155 105.5t-98.5 166t-34 216.5zM270 500q0 -82 21.5 -150.5
t62.5 -117t96.5 -75t122.5 -26.5q68 0 123.5 26.5t96.5 75t62.5 117t21.5 150.5q0 84 -21.5 152.5t-62.5 116.5t-96.5 73.5t-123.5 25.5t-123 -26.5t-96 -74.5t-62.5 -116.5t-21.5 -150.5zM1067 610h535q-6 68 -26 116t-52.5 80t-77.5 47t-103 15q-51 0 -95 -18.5t-81 -52
t-62.5 -80.5t-37.5 -107z" />
    <glyph glyph-name="Ydieresis" unicode="&#x178;" horiz-adv-x="1245" 
d="M25 1409h213l380 -664h9l397 664h197l-508 -842v-567h-189v553zM328 1573v188h180v-188h-180zM737 1573v188h181v-188h-181z" />
    <glyph glyph-name="circumflex" unicode="&#x2c6;" horiz-adv-x="1146" 
d="M229 1163l263 336h163l263 -336h-173l-172 230l-172 -230h-172z" />
    <glyph glyph-name="tilde" unicode="&#x2dc;" horiz-adv-x="1146" 
d="M238 1221q2 47 15 87t38.5 70.5t61.5 47t81 16.5q41 0 79 -13.5t89 -39t73.5 -36t45.5 -10.5q20 0 35.5 8.5t27 23t17.5 31.5t10 36h98q-2 -47 -15 -87t-39 -71t-61.5 -47t-80.5 -16q-41 0 -79 13t-89 38.5t-73.5 36t-45.5 10.5q-20 0 -35.5 -8t-27 -22.5t-17.5 -32
t-10 -35.5h-98z" />
    <glyph glyph-name="uni2000" unicode="&#x2000;" horiz-adv-x="1036" 
 />
    <glyph glyph-name="uni2001" unicode="&#x2001;" horiz-adv-x="2073" 
 />
    <glyph glyph-name="uni2002" unicode="&#x2002;" horiz-adv-x="1036" 
 />
    <glyph glyph-name="uni2003" unicode="&#x2003;" horiz-adv-x="2073" 
 />
    <glyph glyph-name="uni2004" unicode="&#x2004;" horiz-adv-x="691" 
 />
    <glyph glyph-name="uni2005" unicode="&#x2005;" horiz-adv-x="518" 
 />
    <glyph glyph-name="uni2006" unicode="&#x2006;" horiz-adv-x="345" 
 />
    <glyph glyph-name="uni2007" unicode="&#x2007;" horiz-adv-x="345" 
 />
    <glyph glyph-name="uni2008" unicode="&#x2008;" horiz-adv-x="259" 
 />
    <glyph glyph-name="uni2009" unicode="&#x2009;" horiz-adv-x="414" 
 />
    <glyph glyph-name="uni200A" unicode="&#x200a;" horiz-adv-x="115" 
 />
    <glyph glyph-name="uni2010" unicode="&#x2010;" horiz-adv-x="811" 
d="M123 434v164h565v-164h-565z" />
    <glyph glyph-name="uni2011" unicode="&#x2011;" horiz-adv-x="811" 
d="M123 434v164h565v-164h-565z" />
    <glyph glyph-name="figuredash" unicode="&#x2012;" horiz-adv-x="811" 
d="M123 434v164h565v-164h-565z" />
    <glyph glyph-name="endash" unicode="&#x2013;" horiz-adv-x="1138" 
d="M123 434v164h893v-164h-893z" />
    <glyph glyph-name="emdash" unicode="&#x2014;" horiz-adv-x="1720" 
d="M123 434v164h1474v-164h-1474z" />
    <glyph glyph-name="quoteleft" unicode="&#x2018;" horiz-adv-x="507" 
d="M147 893v205l82 311h99l-58 -295h90v-221h-213z" />
    <glyph glyph-name="quoteright" unicode="&#x2019;" horiz-adv-x="507" 
d="M147 1188v221h213v-205l-81 -311h-99l58 295h-91z" />
    <glyph glyph-name="quotesinglbase" unicode="&#x201a;" horiz-adv-x="507" 
d="M147 0v221h213v-205l-81 -311h-99l58 295h-91z" />
    <glyph glyph-name="quotedblleft" unicode="&#x201c;" horiz-adv-x="876" 
d="M147 893v205l82 311h99l-58 -295h90v-221h-213zM516 893v205l82 311h98l-57 -295h90v-221h-213z" />
    <glyph glyph-name="quotedblright" unicode="&#x201d;" horiz-adv-x="876" 
d="M147 1188v221h213v-205l-81 -311h-99l58 295h-91zM516 1188v221h213v-205l-82 -311h-98l57 295h-90z" />
    <glyph glyph-name="quotedblbase" unicode="&#x201e;" horiz-adv-x="876" 
d="M147 0v221h213v-205l-81 -311h-99l58 295h-91zM516 0v221h213v-205l-82 -311h-98l57 295h-90z" />
    <glyph glyph-name="bullet" unicode="&#x2022;" horiz-adv-x="999" 
d="M147 516q0 74 27 138.5t75 112.5t112.5 74.5t138.5 26.5t138 -26.5t112.5 -74.5t75 -112.5t26.5 -138.5t-26.5 -138.5t-75 -112.5t-113 -74.5t-137.5 -26.5q-74 0 -138.5 26.5t-112.5 74.5t-75 112.5t-27 138.5z" />
    <glyph glyph-name="ellipsis" unicode="&#x2026;" horiz-adv-x="1589" 
d="M156 0v238h229v-238h-229zM680 0v238h229v-238h-229zM1204 0v238h230v-238h-230z" />
    <glyph glyph-name="uni202F" unicode="&#x202f;" horiz-adv-x="414" 
 />
    <glyph glyph-name="perthousand" unicode="&#x2030;" horiz-adv-x="2310" 
d="M57 1057q0 78 18.5 145.5t55.5 117.5t94.5 77.5t134.5 27.5q78 0 135.5 -27.5t95.5 -77.5t55.5 -117.5t17.5 -145.5t-17.5 -145.5t-55.5 -118t-95.5 -78t-135.5 -27.5t-135 27.5t-94 78t-55.5 118t-18.5 145.5zM213 1057q0 -59 10 -105.5t28.5 -77t46.5 -47t62 -16.5
q37 0 65 16.5t46 47t27.5 76.5t9.5 106q0 59 -9.5 105t-27.5 78t-46 47.5t-65 15.5t-64.5 -16.5t-46 -47.5t-27.5 -77t-9 -105zM369 -25l712 1459h140l-713 -1459h-139zM926 352q0 78 18.5 145.5t55 118t94 78t135.5 27.5t135 -27.5t95 -78t55.5 -118t17.5 -145.5
t-17.5 -145.5t-55.5 -117.5t-95 -77.5t-135 -27.5t-135.5 27.5t-94 77.5t-55 117.5t-18.5 145.5zM1081 352q0 -59 10.5 -105t29 -77t46 -47.5t62.5 -16.5q37 0 64.5 16.5t46 47.5t27.5 77t9 105t-9 105.5t-27.5 78t-46 47t-64.5 15.5t-64.5 -16.5t-46 -47t-28 -76.5
t-9.5 -106zM1647 352q0 78 18 145.5t55 118t94.5 78t135.5 27.5t135 -27.5t95 -78t55.5 -118t17.5 -145.5t-17.5 -145.5t-55.5 -117.5t-95 -77.5t-135 -27.5t-135.5 27.5t-94.5 77.5t-55 117.5t-18 145.5zM1802 352q0 -59 10.5 -105t29 -77t46 -47.5t62.5 -16.5
q37 0 64.5 16.5t46 47.5t27.5 77t9 105t-9 105.5t-27.5 78t-46 47t-64.5 15.5t-64.5 -16.5t-46 -47t-28 -76.5t-9.5 -106z" />
    <glyph glyph-name="guilsinglleft" unicode="&#x2039;" horiz-adv-x="655" 
d="M106 516l295 418h148l-238 -418l238 -418h-148z" />
    <glyph glyph-name="guilsinglright" unicode="&#x203a;" horiz-adv-x="655" 
d="M106 98l238 418l-238 418h148l295 -418l-295 -418h-148z" />
    <glyph glyph-name="fraction" unicode="&#x2044;" horiz-adv-x="147" 
d="M-352 -25l712 1459h140l-713 -1459h-139z" />
    <glyph glyph-name="uni205F" unicode="&#x205f;" horiz-adv-x="518" 
 />
    <glyph glyph-name="uni2070" unicode="&#x2070;" 
d="M57 1368q0 78 18.5 145.5t55.5 117.5t94.5 78t134.5 28q78 0 135.5 -28t95.5 -78t55.5 -117.5t17.5 -145.5t-17.5 -145.5t-55.5 -117.5t-95.5 -78t-135.5 -28t-135 28t-94 78t-55.5 117.5t-18.5 145.5zM213 1368q0 -59 10 -105t28.5 -77t46.5 -47.5t62 -16.5
q37 0 65 16.5t46 47.5t27.5 77t9.5 105t-9.5 105.5t-27.5 78t-46 47t-65 15.5t-64.5 -16.5t-46 -47t-27.5 -77t-9 -105.5z" />
    <glyph glyph-name="uni2074" unicode="&#x2074;" 
d="M49 1147v98l385 475h131v-450h99v-123h-99v-131h-155v131h-361zM219 1270h191v239z" />
    <glyph glyph-name="uni2075" unicode="&#x2075;" 
d="M98 1204h152q4 -16 13 -32.5t24.5 -30t37 -20.5t48.5 -7q25 0 48 8t40.5 23.5t28 40t10.5 55.5t-10.5 53.5t-28 37t-41 21.5t-47.5 7q-18 0 -37 -4t-33 -12.5t-26.5 -20.5t-20.5 -29l-150 9l25 417h483v-131h-344l-16 -172h8q10 12 23.5 22.5t32 18.5t40 12.5t43.5 4.5
q57 0 103.5 -13.5t80 -41t52 -72.5t18.5 -107q0 -57 -22.5 -103t-61.5 -77t-89 -46.5t-105 -15.5q-70 0 -121 15.5t-85 43t-51.5 64.5t-21.5 82z" />
    <glyph glyph-name="uni2076" unicode="&#x2076;" 
d="M74 1352q0 104 22.5 179t63.5 120t95 65.5t122 20.5q63 0 109 -15.5t78 -43t47.5 -64.5t19.5 -82h-156q0 18 -7 34.5t-20.5 29t-31 19.5t-39.5 7q-31 0 -55.5 -10t-44 -35t-33 -68t-15.5 -108q10 14 27.5 28.5t41.5 23.5t50.5 15.5t52.5 6.5q53 0 98.5 -13.5t78 -41
t51 -72.5t18.5 -107q0 -57 -22.5 -103t-61.5 -77t-89 -46.5t-105 -15.5q-68 0 -121 18.5t-92 60.5t-60.5 109.5t-21.5 164.5zM238 1241q0 -31 10 -55.5t27.5 -40t41 -23.5t48.5 -8t48 8t40.5 23.5t28 40t10.5 55.5t-10.5 53.5t-28 37t-41 21.5t-47.5 7q-25 0 -48.5 -7
t-41 -21.5t-27.5 -37t-10 -53.5z" />
    <glyph glyph-name="uni2077" unicode="&#x2077;" 
d="M66 1581v139h589v-98l-327 -606h-172l311 565h-401z" />
    <glyph glyph-name="uni2078" unicode="&#x2078;" 
d="M57 1204q0 33 10.5 61.5t29 51t44 38t56.5 21.5v8q-27 6 -48.5 20.5t-37 36t-22.5 46t-7 53.5q0 43 19.5 79t55.5 62.5t88 41t115 14.5t115.5 -14.5t88.5 -41t55.5 -62.5t19.5 -79q0 -29 -7 -53.5t-22.5 -46t-37 -35.5t-48.5 -21v-8q31 -6 56.5 -21.5t44 -38t29 -51
t10.5 -61.5q0 -49 -20.5 -87t-60.5 -64.5t-96.5 -40t-126.5 -13.5t-126 13.5t-96 40t-60.5 64.5t-20.5 87zM217 1221q0 -27 10.5 -47.5t29.5 -34t46 -19.5t57 -6q31 0 57.5 6t46 19.5t30 34t10.5 47.5t-10.5 47t-30 33.5t-46 19.5t-57.5 6t-57.5 -6t-45.5 -19.5t-29.5 -34
t-10.5 -46.5zM233 1528q0 -23 9.5 -40.5t26 -29.5t40 -18t51.5 -6q29 0 52.5 6t40 18t25.5 29.5t9 40.5t-9 40t-25.5 29.5t-40 18.5t-52.5 6t-52 -6t-39.5 -18.5t-26 -30t-9.5 -39.5z" />
    <glyph glyph-name="uni2079" unicode="&#x2079;" 
d="M66 1487q0 57 21.5 104t60 80t89 49.5t107.5 16.5q68 0 121 -18.5t92 -60.5t60.5 -109.5t21.5 -164.5q0 -104 -20.5 -179t-57.5 -120t-89 -65.5t-120 -20.5q-63 0 -112.5 15.5t-83 43t-52 65.5t-22.5 81h156q0 -18 9 -34.5t25.5 -29t37 -19.5t42.5 -7q29 0 51.5 10.5
t40 35t27.5 67.5t12 106q-6 -14 -22.5 -27.5t-39 -23.5t-48 -15t-51.5 -5q-57 0 -103.5 14t-81.5 42t-53 71t-18 98zM221 1495q0 -31 10.5 -53.5t27.5 -36.5t41 -21.5t48 -7.5q25 0 47.5 6.5t41 20.5t28.5 37.5t10 54.5t-10 55.5t-27.5 40t-41 23.5t-48.5 8t-48.5 -8
t-40.5 -23.5t-27.5 -40t-10.5 -55.5z" />
    <glyph glyph-name="uni2080" unicode="&#x2080;" 
d="M57 41q0 78 18.5 145.5t55.5 117.5t94.5 78t134.5 28q78 0 135.5 -28t95.5 -78t55.5 -117.5t17.5 -145.5t-17.5 -145.5t-55.5 -117.5t-95.5 -78t-135.5 -28t-135 28t-94 78t-55.5 117.5t-18.5 145.5zM213 41q0 -59 10 -105.5t28.5 -77t46.5 -47t62 -16.5q37 0 65 16.5
t46 47t27.5 77t9.5 105.5t-9.5 105.5t-27.5 78t-46 47t-65 15.5t-64.5 -16.5t-46 -47t-27.5 -77t-9 -105.5z" />
    <glyph glyph-name="uni2081" unicode="&#x2081;" 
d="M82 221l287 172h98v-573h188v-131h-549v131h205v385l-164 -94z" />
    <glyph glyph-name="uni2082" unicode="&#x2082;" 
d="M66 -311q0 76 19 133t52 96t71 65.5t87 51.5l49 24q31 16 56.5 30.5t44 31t28.5 33t10 34.5q0 23 -7 41.5t-22.5 30.5t-39 19.5t-54.5 7.5t-55 -8.5t-42.5 -25.5t-29 -42t-12.5 -55h-147q2 68 25.5 115.5t63.5 78.5t90 45.5t107 14.5q61 0 112.5 -14.5t88.5 -42
t57.5 -68.5t20.5 -92q0 -47 -19.5 -84t-51 -65t-67.5 -48.5t-91 -46.5l-50 -25q-23 -10 -43 -24.5t-36.5 -28.5t-25.5 -27.5t-9 -23.5h393v-131h-573z" />
    <glyph glyph-name="uni2083" unicode="&#x2083;" 
d="M70 -98h147q0 -27 10.5 -48.5t29.5 -37t46 -22.5t57 -7q31 0 57.5 6t46 19.5t30 34t10.5 47.5t-10.5 47t-30 33.5t-46 19.5t-57.5 6h-57v106h57q29 0 52.5 6.5t40 18.5t25.5 29.5t9 40.5t-9 40t-25.5 29.5t-40 18.5t-52.5 6t-52 -7t-39.5 -21.5t-26 -34t-9.5 -44.5h-147
q0 53 19.5 94.5t57.5 70t90 43t116 14.5q61 0 110 -14.5t85 -41t55.5 -62.5t19.5 -79q0 -29 -7 -53.5t-22.5 -46t-37 -36t-48.5 -20.5v-6q31 -6 56.5 -21.5t44 -39t29 -52t10.5 -61.5q0 -49 -20.5 -87t-60.5 -64.5t-96.5 -40t-126.5 -13.5q-66 0 -119 13.5t-91.5 40
t-59 70.5t-20.5 106z" />
    <glyph glyph-name="uni2084" unicode="&#x2084;" 
d="M49 -82l385 475h131v-450h99v-123h-99v-131h-155v131h-361v98zM219 -57h191v239z" />
    <glyph glyph-name="uni2085" unicode="&#x2085;" 
d="M98 -123h152q4 -18 13 -33.5t24.5 -29t37 -20.5t48.5 -7q25 0 48 8t40.5 23.5t28 40t10.5 55.5t-10.5 53.5t-28 36.5t-41 21.5t-47.5 7.5q-18 0 -37 -4t-33 -12.5t-26.5 -20.5t-20.5 -29l-150 8l25 418h483v-131h-344l-16 -172h8q10 12 23.5 22.5t32 18.5t40 12t43.5 4
q57 0 103.5 -13t80 -40.5t52 -73t18.5 -106.5q0 -57 -22.5 -103.5t-61.5 -77t-89 -46t-105 -15.5q-70 0 -121 15.5t-85 43t-51.5 64.5t-21.5 82z" />
    <glyph glyph-name="uni2086" unicode="&#x2086;" 
d="M74 25q0 104 22.5 179t63.5 120t95 65.5t122 20.5q63 0 109 -15.5t78 -43t47.5 -64.5t19.5 -82h-156q0 18 -7 34.5t-20.5 29t-31 19.5t-39.5 7q-31 0 -55.5 -10.5t-44 -35t-33 -67.5t-15.5 -108q10 14 27.5 28.5t41.5 23.5t50.5 15t52.5 6q53 0 98.5 -13t78 -40.5t51 -73
t18.5 -106.5q0 -57 -22.5 -103.5t-61.5 -77t-89 -46t-105 -15.5q-68 0 -121 18.5t-92 60.5t-60.5 109.5t-21.5 164.5zM238 -86q0 -31 10 -55.5t27.5 -40t41 -23.5t48.5 -8t48 8t40.5 23.5t28 40t10.5 55.5t-10.5 53.5t-28 36.5t-41 21.5t-47.5 7.5q-25 0 -48.5 -7.5
t-41 -21.5t-27.5 -36.5t-10 -53.5z" />
    <glyph glyph-name="uni2087" unicode="&#x2087;" 
d="M66 254v139h589v-98l-327 -606h-172l311 565h-401z" />
    <glyph glyph-name="uni2088" unicode="&#x2088;" 
d="M57 -123q0 33 10.5 61.5t29 51t44 38t56.5 21.5v8q-27 6 -48.5 20.5t-37 36t-22.5 46t-7 53.5q0 43 19.5 79t55.5 62.5t88 41t115 14.5t115.5 -14.5t88.5 -41t55.5 -62.5t19.5 -79q0 -29 -7 -53.5t-22.5 -46t-37 -36t-48.5 -20.5v-8q31 -6 56.5 -21.5t44 -38t29 -51
t10.5 -61.5q0 -49 -20.5 -87t-60.5 -64.5t-96.5 -40t-126.5 -13.5t-126 13.5t-96 40t-60.5 64.5t-20.5 87zM217 -106q0 -27 10.5 -47.5t29.5 -34t46 -19.5t57 -6q31 0 57.5 6t46 19.5t30 34t10.5 47.5t-10.5 47t-30 33.5t-46 19.5t-57.5 6t-57.5 -6t-45.5 -19.5t-29.5 -34
t-10.5 -46.5zM233 201q0 -23 9.5 -40.5t26 -29.5t40 -18.5t51.5 -6.5q29 0 52.5 6.5t40 18.5t25.5 29.5t9 40.5t-9 40t-25.5 29.5t-40 18.5t-52.5 6t-52 -6t-39.5 -18.5t-26 -30t-9.5 -39.5z" />
    <glyph glyph-name="uni2089" unicode="&#x2089;" 
d="M66 160q0 57 21.5 104t60 80t89 49.5t107.5 16.5q68 0 121 -18.5t92 -60.5t60.5 -109.5t21.5 -164.5q0 -104 -20.5 -179t-57.5 -120t-89 -65.5t-120 -20.5q-63 0 -112.5 15.5t-83 43t-52 65.5t-22.5 81h156q0 -18 9 -34.5t25.5 -29t37 -19.5t42.5 -7q29 0 51.5 10t40 35
t27.5 68t12 106q-6 -14 -22.5 -27.5t-39 -23.5t-48 -15.5t-51.5 -5.5q-57 0 -103.5 14.5t-81.5 42t-53 70.5t-18 99zM221 168q0 -31 10.5 -53.5t27.5 -37t41 -21.5t48 -7q25 0 47.5 6t41 20.5t28.5 38t10 54.5t-10 55.5t-27.5 40t-41 23.5t-48.5 8t-48.5 -8t-40.5 -23.5
t-27.5 -40t-10.5 -55.5z" />
    <glyph glyph-name="Euro" unicode="&#x20ac;" horiz-adv-x="1163" 
d="M-8 508l33 115h141q0 10 -1 19t-1 19.5v19.5v24v30.5v24.5t1 25.5t3 25.5h-135l33 115h114q20 113 61.5 206t104 160.5t149.5 104.5t193 37q96 0 171 -25t129 -72t89 -115.5t53 -156.5h-174q-18 55 -39.5 94t-52 65.5t-72.5 40t-96 13.5q-66 0 -119 -23.5t-94 -69.5
t-68.5 -110.5t-43.5 -148.5h415l-32 -115h-400q0 -12 -1 -25.5t-1 -25.5v-24.5v-30.5v-23.5v-20t1 -19.5t1 -19h391l-32 -115h-346q14 -90 41.5 -159.5t69.5 -118t96.5 -74t121.5 -25.5q49 0 87 10.5t68 32t51.5 53t39.5 76.5h176q-20 -80 -55 -140.5t-88 -102.5t-125 -63.5
t-162 -21.5q-111 0 -199 39t-151.5 110t-103 168t-56.5 216h-186z" />
    <glyph glyph-name="uni2116" unicode="&#x2116;" horiz-adv-x="2482" 
d="M180 0v1409h189l770 -1098h8l-8 1098h188v-1409h-188l-770 1090h-9l9 -1090h-189zM1616 0v131h727v-131h-727zM1616 360v132h727v-132h-727zM1618 1057q0 84 25.5 152.5t73.5 117.5t114.5 74.5t146.5 25.5q82 0 149.5 -25.5t116 -74.5t73 -117.5t24.5 -152.5
t-25.5 -151.5t-75 -117t-116 -75t-146.5 -25.5q-82 0 -148.5 25.5t-114.5 74t-72.5 117t-24.5 152.5zM1788 1057q0 -53 13.5 -96t39 -75t60 -49.5t77.5 -17.5t79 17.5t61.5 49.5t39 75t13.5 96t-13.5 97t-39 76t-61.5 48t-79 16t-77.5 -16t-60 -48t-39 -76t-13.5 -97z" />
    <glyph glyph-name="trademark" unicode="&#x2122;" horiz-adv-x="1646" 
d="M8 1286v123h631v-123h-238v-581h-147v581h-246zM737 705v704h205l205 -508h8l205 508h205v-704h-148l8 507h-8l-205 -507h-122l-205 507h-8l8 -507h-148z" />
    <glyph glyph-name="onethird" unicode="&#x2153;" horiz-adv-x="1589" 
d="M82 1237l287 172h98v-573h188v-131h-549v131h205v385l-164 -95zM401 -25l713 1459h139l-712 -1459h-140zM938 213h147q0 -27 10.5 -48.5t30 -36.5t46 -22.5t57.5 -7.5t57.5 6.5t46 19.5t29.5 33.5t10 47.5t-10 47t-29.5 33.5t-46 19.5t-57.5 6h-58v107h58q29 0 52.5 6
t39.5 18.5t25.5 29.5t9.5 40t-9.5 40t-25.5 29.5t-40 18.5t-52 6q-29 0 -52.5 -7t-40 -21.5t-25.5 -34t-9 -43.5h-148q0 53 19.5 94t57.5 69.5t90.5 43t115.5 14.5q61 0 110.5 -14.5t85 -41t55 -62.5t19.5 -79q0 -29 -7 -53.5t-22.5 -46t-37 -35.5t-47.5 -20v-7
q31 -6 56.5 -21t43.5 -38.5t28.5 -52.5t10.5 -62q0 -49 -20.5 -87t-60.5 -64.5t-96.5 -39.5t-125.5 -13q-66 0 -119 13t-92 39.5t-59.5 71t-20.5 105.5z" />
    <glyph glyph-name="twothirds" unicode="&#x2154;" horiz-adv-x="1589" 
d="M66 705q0 76 19 133t52 96t71 65.5t87 51.5l49 24q31 16 56.5 30.5t44 31t28.5 33t10 34.5q0 23 -7 41.5t-22.5 30.5t-39 19.5t-54.5 7.5t-55 -8.5t-42.5 -26t-29 -42t-12.5 -55.5h-147q2 68 25.5 116t63.5 79t90 45t107 14q61 0 112.5 -14t88.5 -42t57.5 -68.5
t20.5 -92.5q0 -47 -19.5 -84t-51 -64.5t-67.5 -48t-91 -46.5l-50 -25q-23 -10 -43 -24.5t-36.5 -29t-25.5 -27.5t-9 -23h393v-131h-573zM401 -25l713 1459h139l-712 -1459h-140zM938 213h147q0 -27 10.5 -48.5t30 -36.5t46 -22.5t57.5 -7.5t57.5 6.5t46 19.5t29.5 33.5
t10 47.5t-10 47t-29.5 33.5t-46 19.5t-57.5 6h-58v107h58q29 0 52.5 6t39.5 18.5t25.5 29.5t9.5 40t-9.5 40t-25.5 29.5t-40 18.5t-52 6q-29 0 -52.5 -7t-40 -21.5t-25.5 -34t-9 -43.5h-148q0 53 19.5 94t57.5 69.5t90.5 43t115.5 14.5q61 0 110.5 -14.5t85 -41t55 -62.5
t19.5 -79q0 -29 -7 -53.5t-22.5 -46t-37 -35.5t-47.5 -20v-7q31 -6 56.5 -21t43.5 -38.5t28.5 -52.5t10.5 -62q0 -49 -20.5 -87t-60.5 -64.5t-96.5 -39.5t-125.5 -13q-66 0 -119 13t-92 39.5t-59.5 71t-20.5 105.5z" />
    <glyph glyph-name="uni2155" unicode="&#x2155;" horiz-adv-x="1589" 
d="M82 1237l287 172h98v-573h188v-131h-549v131h205v385l-164 -95zM393 -25l713 1459h139l-713 -1459h-139zM967 188h151q4 -16 13.5 -32.5t24.5 -29.5t36.5 -20.5t48.5 -7.5q25 0 48.5 8.5t41 23.5t27.5 40t10 55q0 31 -10 53.5t-27.5 37t-41 21.5t-48.5 7q-18 0 -36.5 -4
t-33 -12.5t-26.5 -20.5t-21 -28l-149 8l24 418h484v-132h-344l-17 -167h8q10 10 24.5 20t32 17.5t39 11.5t44.5 4q57 0 103 -13.5t80 -41t52.5 -72.5t18.5 -107q0 -57 -22.5 -103t-61.5 -77t-89.5 -46t-105.5 -15q-70 0 -121 15t-84.5 43t-51 64.5t-21.5 81.5z" />
    <glyph glyph-name="uni2156" unicode="&#x2156;" horiz-adv-x="1589" 
d="M66 705q0 76 19 133t52 96t71 65.5t87 51.5l49 24q31 16 56.5 30.5t44 31t28.5 33t10 34.5q0 23 -7 41.5t-22.5 30.5t-39 19.5t-54.5 7.5t-55 -8.5t-42.5 -26t-29 -42t-12.5 -55.5h-147q2 68 25.5 116t63.5 79t90 45t107 14q61 0 112.5 -14t88.5 -42t57.5 -68.5
t20.5 -92.5q0 -47 -19.5 -84t-51 -64.5t-67.5 -48t-91 -46.5l-50 -25q-23 -10 -43 -24.5t-36.5 -29t-25.5 -27.5t-9 -23h393v-131h-573zM393 -25l713 1459h139l-713 -1459h-139zM967 188h151q4 -16 13.5 -32.5t24.5 -29.5t36.5 -20.5t48.5 -7.5q25 0 48.5 8.5t41 23.5
t27.5 40t10 55q0 31 -10 53.5t-27.5 37t-41 21.5t-48.5 7q-18 0 -36.5 -4t-33 -12.5t-26.5 -20.5t-21 -28l-149 8l24 418h484v-132h-344l-17 -167h8q10 12 23.5 21t32 16.5t40 11.5t44.5 4q57 0 103 -13.5t80 -41t52.5 -72.5t18.5 -107q0 -57 -22.5 -103t-61.5 -77
t-89.5 -46t-105.5 -15q-70 0 -121 15t-84.5 43t-51 64.5t-21.5 81.5z" />
    <glyph glyph-name="uni2157" unicode="&#x2157;" horiz-adv-x="1589" 
d="M70 918h147q0 -27 10.5 -48.5t29.5 -37t46 -22.5t57 -7q31 0 57.5 6t46 19.5t30 34t10.5 46.5q0 27 -10.5 47.5t-30 34t-46 19.5t-57.5 6h-57v106h57q29 0 52.5 6.5t40 18.5t25.5 29.5t9 40.5t-9 40t-25.5 29t-40 18.5t-52.5 6.5t-52 -7.5t-39.5 -21.5t-26 -33.5
t-9.5 -44.5h-147q0 53 19.5 94t57.5 70t90 43t116 14q61 0 110 -14t85 -41t55.5 -62.5t19.5 -78.5q0 -29 -7 -53.5t-22.5 -46t-37 -36t-48.5 -20.5v-6q31 -6 56.5 -21.5t44 -39t29 -52t10.5 -61.5q0 -49 -20.5 -87t-60.5 -64.5t-96.5 -40t-126.5 -13.5q-66 0 -119 13.5
t-91.5 40t-59 70.5t-20.5 106zM377 -25l713 1459h139l-713 -1459h-139zM967 188h151q4 -16 13.5 -32.5t24.5 -29.5t36.5 -20.5t48.5 -7.5q25 0 48.5 8.5t41 23.5t27.5 40t10 55q0 31 -10 53.5t-27.5 37t-41 21.5t-48.5 7q-18 0 -36.5 -4t-33 -12.5t-26.5 -20.5t-21 -28
l-149 8l24 418h484v-132h-344l-17 -167h8q10 12 23.5 21t32 16.5t40 11.5t44.5 4q57 0 103 -13.5t80 -41t52.5 -72.5t18.5 -107q0 -57 -22.5 -103t-61.5 -77t-89.5 -46t-105.5 -15q-70 0 -121 15t-84.5 43t-51 64.5t-21.5 81.5z" />
    <glyph glyph-name="uni2158" unicode="&#x2158;" horiz-adv-x="1589" 
d="M49 836v98l385 475h131v-451h99v-122h-99v-131h-155v131h-361zM219 958h191v240zM377 -25l713 1459h139l-713 -1459h-139zM967 188h151q4 -16 13.5 -32.5t24.5 -29.5t36.5 -20.5t48.5 -7.5q25 0 48.5 8.5t41 23.5t27.5 40t10 55q0 31 -10 53.5t-27.5 37t-41 21.5t-48.5 7
q-18 0 -36.5 -4t-33 -12.5t-26.5 -20.5t-21 -28l-149 8l24 418h484v-132h-348l-13 -167h8q10 12 23.5 21t32 16.5t40 11.5t44.5 4q57 0 103 -13.5t80 -41t52.5 -72.5t18.5 -107q0 -57 -22.5 -103t-61.5 -77t-89.5 -46t-105.5 -15q-70 0 -121 15t-84.5 43t-51 64.5
t-21.5 81.5z" />
    <glyph glyph-name="uni2159" unicode="&#x2159;" horiz-adv-x="1589" 
d="M82 1237l287 172h98v-573h188v-131h-549v131h205v385l-164 -95zM410 -25l712 1459h140l-713 -1459h-139zM942 336q0 104 22.5 179t63.5 120t95.5 65.5t121.5 20.5q63 0 109.5 -15.5t78 -43t47 -64.5t19.5 -82h-156q0 18 -7 34.5t-20 29t-30.5 19.5t-40.5 7
q-31 0 -55.5 -10t-44 -34.5t-32.5 -67.5t-15 -109h8q8 14 24.5 28.5t39 25t48 15.5t52.5 5q53 0 98 -13.5t78 -41t51.5 -72.5t18.5 -107q0 -57 -23 -103t-61.5 -77t-89 -46t-105.5 -15q-68 0 -121 18t-92 60t-60.5 110t-21.5 164zM1106 225q0 -31 10 -55.5t27.5 -39.5
t41 -23.5t48.5 -8.5t48.5 8.5t40.5 23.5t27.5 40t10.5 55q0 31 -10.5 53.5t-27.5 37t-41 21.5t-48 7q-25 0 -48.5 -7t-41 -21.5t-27.5 -37t-10 -53.5z" />
    <glyph glyph-name="uni215A" unicode="&#x215a;" horiz-adv-x="1589" 
d="M98 893h152q4 -16 13 -32.5t24.5 -30t37 -20.5t48.5 -7q25 0 48 8t40.5 23.5t28 40t10.5 55.5t-10.5 53.5t-28 36.5t-41 21.5t-47.5 7.5q-18 0 -37 -4.5t-33 -12.5t-26.5 -20.5t-20.5 -28.5l-150 8l25 418h483v-131h-344l-16 -168h8q10 12 23.5 21.5t32 16.5t40 11
t43.5 4q57 0 103.5 -13t80 -41t52 -73t18.5 -106q0 -57 -22.5 -103.5t-61.5 -77t-89 -46t-105 -15.5q-70 0 -121 15.5t-85 43t-51.5 64.5t-21.5 82zM369 -25l712 1459h140l-713 -1459h-139zM942 336q0 104 22.5 179t63.5 120t95.5 65.5t121.5 20.5q63 0 109.5 -15.5t78 -43
t47 -64.5t19.5 -82h-156q0 18 -7 34.5t-20 29t-30.5 19.5t-40.5 7q-31 0 -55.5 -10t-44 -34.5t-32.5 -67.5t-15 -109h8q8 14 24.5 28.5t39 25t48 15.5t52.5 5q53 0 98 -13.5t78 -41t51.5 -72.5t18.5 -107q0 -57 -23 -103t-61.5 -77t-89 -46t-105.5 -15q-68 0 -121 18t-92 60
t-60.5 110t-21.5 164zM1106 225q0 -31 10 -55.5t27.5 -39.5t41 -23.5t48.5 -8.5t48.5 8.5t40.5 23.5t27.5 40t10.5 55q0 31 -10.5 53.5t-27.5 37t-41 21.5t-48 7q-25 0 -47.5 -7t-41 -21.5t-28.5 -37t-10 -53.5z" />
    <glyph glyph-name="oneeighth" unicode="&#x215b;" horiz-adv-x="1589" 
d="M82 1237l287 172h98v-573h188v-131h-549v131h205v385l-164 -95zM401 -25l713 1459h139l-712 -1459h-140zM926 188q0 33 10 62t28.5 51.5t44 37.5t56.5 21v9q-27 6 -48.5 20t-36.5 35.5t-22.5 46.5t-7.5 53q0 43 19.5 79t55.5 62.5t88 41t116 14.5q63 0 115.5 -14.5
t88 -41t55 -62.5t19.5 -79q0 -29 -7 -53.5t-22.5 -46t-37 -35.5t-47.5 -20v-9q31 -6 56.5 -21t43.5 -37.5t28.5 -51.5t10.5 -62q0 -49 -20.5 -87t-60.5 -64.5t-96.5 -39.5t-125.5 -13q-70 0 -126 13t-96 39.5t-60.5 64.5t-20.5 87zM1085 205q0 -27 10.5 -47.5t30 -33.5
t46 -19.5t57.5 -6.5t57.5 6.5t46 19.5t29.5 33.5t10 47.5t-10 47t-29.5 33.5t-46 19.5t-57.5 6t-57.5 -6t-46 -19.5t-30 -34t-10.5 -46.5zM1102 512q0 -23 9 -40t25.5 -29.5t40 -18.5t52.5 -6t52.5 6t39.5 18.5t25.5 29.5t9.5 40t-9.5 40t-25.5 29.5t-40 18.5t-52 6
q-29 0 -52.5 -6t-40 -18.5t-25.5 -29.5t-9 -40z" />
    <glyph glyph-name="threeeighths" unicode="&#x215c;" horiz-adv-x="1589" 
d="M70 918h147q0 -27 10.5 -48.5t29.5 -37t46 -22.5t57 -7q31 0 57.5 6t46 19.5t30 34t10.5 46.5q0 27 -10.5 47.5t-30 34t-46 19.5t-57.5 6h-57v106h57q29 0 52.5 6.5t40 18.5t25.5 29.5t9 40.5t-9 40t-25.5 29t-40 18.5t-52.5 6.5t-52 -7.5t-39.5 -21.5t-26 -33.5
t-9.5 -44.5h-147q0 53 19.5 94t57.5 70t90 43t116 14q61 0 110 -14t85 -41t55.5 -62.5t19.5 -78.5q0 -29 -7 -53.5t-22.5 -46t-37 -36t-48.5 -20.5v-6q31 -6 56.5 -21.5t44 -39t29 -52t10.5 -61.5q0 -49 -20.5 -87t-60.5 -64.5t-96.5 -40t-126.5 -13.5q-66 0 -119 13.5
t-91.5 40t-59 70.5t-20.5 106zM369 -25l712 1459h140l-713 -1459h-139zM926 188q0 33 10 62t28.5 51.5t44 37.5t56.5 21v9q-27 6 -48.5 20t-36.5 35.5t-22.5 46.5t-7.5 53q0 43 19.5 79t55.5 62.5t88 41t116 14.5q63 0 115.5 -14.5t88 -41t55 -62.5t19.5 -79q0 -29 -7 -53.5
t-22.5 -46t-37 -35.5t-47.5 -20v-9q31 -6 56.5 -21t43.5 -37.5t28.5 -51.5t10.5 -62q0 -49 -20.5 -87t-60.5 -64.5t-96.5 -39.5t-125.5 -13q-70 0 -126 13t-96 39.5t-60.5 64.5t-20.5 87zM1085 205q0 -27 10.5 -47.5t30 -33.5t46 -19.5t57.5 -6.5t57.5 6.5t46 19.5
t29.5 33.5t10 47.5t-10 47t-29.5 33.5t-46 19.5t-57.5 6t-57.5 -6t-46 -19.5t-30 -34t-10.5 -46.5zM1102 512q0 -23 9 -40t25.5 -29.5t40 -18.5t52.5 -6t52.5 6t39.5 18.5t25.5 29.5t9.5 40t-9.5 40t-25.5 29.5t-40 18.5t-52 6q-29 0 -52.5 -6t-40 -18.5t-25.5 -29.5t-9 -40
z" />
    <glyph glyph-name="fiveeighths" unicode="&#x215d;" horiz-adv-x="1589" 
d="M98 893h152q4 -16 13 -32.5t24.5 -30t37 -20.5t48.5 -7q25 0 48 8t40.5 23.5t28 40t10.5 55.5t-10.5 53.5t-28 36.5t-41 21.5t-47.5 7.5q-18 0 -37 -4.5t-33 -12.5t-26.5 -20.5t-20.5 -28.5l-150 8l25 418h483v-131h-344l-16 -168h8q10 12 23.5 21.5t32 16.5t40 11
t43.5 4q57 0 103.5 -13t80 -41t52 -73t18.5 -106q0 -57 -22.5 -103.5t-61.5 -77t-89 -46t-105 -15.5q-70 0 -121 15.5t-85 43t-51.5 64.5t-21.5 82zM369 -25l712 1459h140l-713 -1459h-139zM926 188q0 33 10 62t28.5 51.5t44 37.5t56.5 21v9q-27 6 -48.5 20t-36.5 35.5
t-22.5 46.5t-7.5 53q0 43 19.5 79t55.5 62.5t88 41t116 14.5q63 0 115.5 -14.5t88 -41t55 -62.5t19.5 -79q0 -29 -7 -53.5t-22.5 -46t-37 -35.5t-47.5 -20v-9q31 -6 56.5 -21t43.5 -37.5t28.5 -51.5t10.5 -62q0 -49 -20.5 -87t-60.5 -64.5t-96.5 -39.5t-125.5 -13
q-70 0 -126 13t-96 39.5t-60.5 64.5t-20.5 87zM1085 205q0 -27 10.5 -47.5t30 -33.5t46 -19.5t57.5 -6.5t57.5 6.5t46 19.5t29.5 33.5t10 47.5t-10 47t-29.5 33.5t-46 19.5t-57.5 6t-57.5 -6t-46 -19.5t-30 -34t-10.5 -46.5zM1102 512q0 -23 9 -40t25.5 -29.5t40 -18.5
t52.5 -6t52.5 6t39.5 18.5t25.5 29.5t9.5 40t-9.5 40t-25.5 29.5t-40 18.5t-52 6q-29 0 -52.5 -6t-40 -18.5t-25.5 -29.5t-9 -40z" />
    <glyph glyph-name="seveneighths" unicode="&#x215e;" horiz-adv-x="1589" 
d="M66 1270v139h589v-98l-327 -606h-172l311 565h-401zM311 -25l713 1459h139l-712 -1459h-140zM926 188q0 33 10 62t28.5 51.5t44 37.5t56.5 21v9q-27 6 -48.5 20t-36.5 35.5t-22.5 46.5t-7.5 53q0 43 19.5 79t55.5 62.5t88 41t116 14.5q63 0 115.5 -14.5t88 -41t55 -62.5
t19.5 -79q0 -29 -7 -53.5t-22.5 -46t-37 -35.5t-47.5 -20v-9q31 -6 56.5 -21t43.5 -37.5t28.5 -51.5t10.5 -62q0 -49 -20.5 -87t-60.5 -64.5t-96.5 -39.5t-125.5 -13q-70 0 -126 13t-96 39.5t-60.5 64.5t-20.5 87zM1085 205q0 -27 10.5 -47.5t30 -33.5t46 -19.5t57.5 -6.5
t57.5 6.5t46 19.5t29.5 33.5t10 47.5t-10 47t-29.5 33.5t-46 19.5t-57.5 6t-57.5 -6t-46 -19.5t-30 -34t-10.5 -46.5zM1102 512q0 -23 9 -40t25.5 -29.5t40 -18.5t52.5 -6t52.5 6t39.5 18.5t25.5 29.5t9.5 40t-9.5 40t-25.5 29.5t-40 18.5t-52 6q-29 0 -52.5 -6t-40 -18.5
t-25.5 -29.5t-9 -40z" />
    <glyph glyph-name="uni25FC" unicode="&#x25fc;" horiz-adv-x="1003" 
d="M0 0v1004h1004v-1004h-1004z" />
    <glyph glyph-name="at.c2sc" horiz-adv-x="1720" 
d="M98 360q0 152 54.5 284t156 232.5t244.5 157t315 56.5q162 0 300.5 -48.5t240.5 -137.5t157.5 -214t55.5 -272q0 -113 -26.5 -196t-72.5 -136t-106.5 -77.5t-130.5 -24.5q-41 0 -76.5 6t-66.5 19.5t-55.5 37t-40.5 57.5q-20 -35 -50 -59.5t-66 -39.5t-78 -22.5t-91 -7.5
q-63 0 -113.5 16.5t-85.5 46.5t-53 71t-18 88t16 86t49 70.5t84 52t121 28.5l147 17q33 4 53.5 8t32 11t16.5 15.5t5 22.5q0 33 -10.5 60.5t-31 47t-51 29.5t-71.5 10q-35 0 -63.5 -9t-50 -26.5t-35 -44t-15.5 -59.5h-156q6 68 34 118t72 82t99.5 47t114.5 15
q78 0 138.5 -17.5t102.5 -53t64.5 -88t22.5 -119.5v-246q0 -45 10 -77t28.5 -51.5t42 -27.5t50.5 -8q35 0 67.5 19.5t57 59.5t40 102.5t15.5 146.5q0 127 -46 229.5t-130 174t-197.5 108.5t-249.5 37q-143 0 -262 -45t-203 -128t-129 -194t-45 -240t43 -238.5t125 -190.5
t196 -125t251 -44q51 0 99 6.5t92 18.5t83 32.5t70 49.5h172q-43 -53 -99.5 -96t-122 -73t-140 -45t-154.5 -15q-164 0 -302.5 55t-237.5 153.5t-152.5 230.5t-53.5 281zM664 213q0 -25 9 -46.5t27.5 -36.5t44 -23.5t58.5 -8.5q41 0 80 12.5t68.5 38t47 64.5t17.5 90v72
q-6 -6 -14.5 -11.5t-18.5 -9.5t-22.5 -6t-26.5 -4l-139 -16q-35 -4 -59.5 -14.5t-41 -26t-23.5 -35t-7 -39.5z" />
    <glyph glyph-name="A.c2sc" horiz-adv-x="1073" 
d="M16 0l418 1065h213l410 -1065h-189l-96 258h-477l-98 -258h-181zM350 406h367l-176 479h-9z" />
    <glyph glyph-name="B.c2sc" horiz-adv-x="1187" 
d="M180 0v1065h492q90 0 157.5 -18.5t112.5 -55.5t67.5 -88t22.5 -117q0 -35 -10 -68.5t-31.5 -63t-56.5 -52t-82 -33.5v-6q51 -8 93 -30.5t73 -56.5t47 -76t16 -89q0 -68 -24.5 -125t-73.5 -99t-119.5 -64.5t-158.5 -22.5h-525zM360 156h345q47 0 81.5 11t58 32.5t36 52.5
t12.5 67q0 35 -12.5 63t-37 48.5t-59 30.5t-79.5 10h-345v-315zM360 627h312q41 0 73.5 11t54 31.5t33 48t11.5 60.5q0 31 -10.5 55.5t-31 41t-53 25.5t-77.5 9h-312v-282z" />
    <glyph glyph-name="C.c2sc" horiz-adv-x="1196" 
d="M90 532q0 119 39 221.5t111.5 178.5t172 117t218.5 41q98 0 181 -27t146.5 -76t105.5 -116.5t58 -149.5h-180q-14 49 -39.5 86t-63.5 63.5t-88.5 41t-111.5 14.5q-82 0 -148.5 -29t-114.5 -82t-72.5 -125t-24.5 -158q0 -80 24.5 -151.5t70.5 -125.5t113.5 -85t151.5 -31
q63 0 112.5 13.5t86 40t62.5 64.5t42 87h180q-16 -82 -58 -150.5t-105.5 -116.5t-146.5 -75t-181 -27q-121 0 -221.5 43t-172 120t-109.5 178.5t-38 215.5z" />
    <glyph glyph-name="D.c2sc" horiz-adv-x="1228" 
d="M180 0v1065h393q133 0 239 -39t178.5 -109.5t110.5 -169t38 -215.5q0 -115 -38 -213t-110.5 -169.5t-178 -110.5t-239.5 -39h-393zM360 156h213q98 0 171 29.5t118 83t66.5 121t21.5 142.5q0 76 -21.5 143.5t-66.5 121t-117.5 83t-171.5 29.5h-213v-753z" />
    <glyph glyph-name="E.c2sc" horiz-adv-x="1089" 
d="M180 0v1065h778v-156h-598v-291h484v-151h-484v-311h615v-156h-795z" />
    <glyph glyph-name="F.c2sc" horiz-adv-x="1032" 
d="M180 0v1065h770v-156h-590v-327h467v-152h-467v-430h-180z" />
    <glyph glyph-name="G.c2sc" horiz-adv-x="1310" 
d="M98 532q0 119 40 221.5t116 178.5t180.5 117t229.5 41q98 0 182 -27t147.5 -74t104.5 -109.5t57 -134.5h-188q-12 37 -37 69t-63 57.5t-90 40t-113 14.5q-86 0 -156 -29t-120 -82t-75.5 -125t-25.5 -158q0 -82 24.5 -153.5t72.5 -125.5t117.5 -84t153.5 -30
q68 0 128.5 17.5t107.5 51.5t73.5 86t26.5 118v6h-327v147h491v-565h-115l-24 139h-6q-29 -41 -65 -70.5t-81 -51t-99 -32t-118 -10.5q-119 0 -220 43t-175 120t-114 179.5t-40 214.5z" />
    <glyph glyph-name="H.c2sc" horiz-adv-x="1286" 
d="M180 0v1065h180v-451h566v451h180v-1065h-180v459h-566v-459h-180z" />
    <glyph glyph-name="I.c2sc" horiz-adv-x="540" 
d="M180 0v1065h180v-1065h-180z" />
    <glyph glyph-name="J.c2sc" horiz-adv-x="909" 
d="M82 311v49h172v-49q0 -47 11 -81.5t34 -56t52.5 -32t66.5 -10.5t66.5 10.5t51 33t34 59t12.5 85.5v746h180v-737q0 -90 -25.5 -158t-72 -111t-108.5 -63.5t-138 -20.5t-137.5 19.5t-105.5 59.5t-68.5 104.5t-24.5 152.5z" />
    <glyph glyph-name="K.c2sc" horiz-adv-x="1146" 
d="M180 0v1065h180v-559l525 559h213l-449 -469l473 -596h-213l-381 473l-168 -176v-297h-180z" />
    <glyph glyph-name="L.c2sc" horiz-adv-x="950" 
d="M180 0v1065h180v-901h549v-164h-729z" />
    <glyph glyph-name="M.c2sc" horiz-adv-x="1572" 
d="M180 0v1065h230l378 -827h5l378 827h222v-1065h-181l15 795h-6l-369 -795h-131l-369 795h-8l16 -795h-180z" />
    <glyph glyph-name="N.c2sc" horiz-adv-x="1286" 
d="M180 0v1065h164l582 -770h6l-6 770h180v-1065h-164l-582 770h-8l8 -770h-180z" />
    <glyph glyph-name="O.c2sc" horiz-adv-x="1294" 
d="M90 532q0 119 42 221.5t117 177.5t177 117t221 42t221.5 -42t177 -117t116.5 -177.5t42 -221.5t-42 -221t-116.5 -177t-177 -117t-221.5 -42t-221 42t-177 117t-117 177.5t-42 220.5zM279 532q0 -84 25.5 -156.5t74.5 -125.5t117.5 -82t150.5 -29t150.5 29t118 82t75 126
t25.5 156q0 84 -25.5 157t-75 126t-118 82t-150.5 29t-150.5 -29t-117.5 -82t-74.5 -126t-25.5 -157z" />
    <glyph glyph-name="P.c2sc" horiz-adv-x="1122" 
d="M180 0v1065h467q92 0 165 -25.5t122 -73.5t73.5 -113t24.5 -140q0 -78 -24.5 -142.5t-73.5 -111.5t-122 -73t-165 -26h-287v-360h-180zM360 516h287q51 0 89 14.5t63.5 41t39 62.5t13.5 79t-13.5 78.5t-39 62.5t-63.5 41t-89 14h-287v-393z" />
    <glyph glyph-name="Q.c2sc" horiz-adv-x="1294" 
d="M90 532q0 119 42 221.5t117 177.5t177 117t221 42t221.5 -42t177 -117t116.5 -177.5t42 -221.5q0 -61 -11 -118.5t-32.5 -109.5t-53.5 -97t-71 -82l213 -217l-123 -113l-227 236q-29 -12 -58.5 -22.5t-61 -17.5t-64.5 -11.5t-68 -4.5q-119 0 -221 42t-177 117t-117 177.5
t-42 220.5zM279 532q0 -84 25.5 -156.5t74.5 -125.5t117.5 -82t150.5 -29t150.5 29t118 82t75 126t25.5 156q0 84 -25.5 157t-75 126t-118 82t-150.5 29t-150.5 -29t-117.5 -82t-74.5 -126t-25.5 -157z" />
    <glyph glyph-name="R.c2sc" horiz-adv-x="1163" 
d="M180 0v1065h475q90 0 161 -22.5t119 -65.5t72.5 -103.5t24.5 -136.5q0 -61 -15.5 -113.5t-46 -93.5t-75.5 -70.5t-104 -43.5l290 -416h-204l-271 401h-246v-401h-180zM360 557h295q49 0 87 12.5t61.5 37t36 57t12.5 73.5q0 39 -12.5 71t-38 54.5t-62.5 34.5t-84 12h-295
v-352z" />
    <glyph glyph-name="S.c2sc" horiz-adv-x="1081" 
d="M90 303h180q0 -43 17.5 -76.5t52.5 -56.5t83 -35t109 -12t110.5 10t83.5 31.5t51.5 54.5t17.5 76q0 39 -20.5 66.5t-57.5 44t-80 25.5t-113 22l-49 8q-80 14 -141.5 31.5t-112.5 50t-80.5 86t-29.5 133.5q0 72 29.5 132t87 104t137 68t176.5 24q94 0 169.5 -23t130 -63.5
t82 -100t27.5 -133.5h-172q0 39 -17.5 70.5t-49 54.5t-75.5 35t-95 12q-55 0 -101.5 -9t-78 -29.5t-49 -51.5t-17.5 -74q0 -41 21.5 -68.5t57.5 -45t80 -27.5t111 -23l49 -8q84 -14 144.5 -30.5t112 -48t82 -85t30.5 -131.5t-29.5 -140t-88 -105t-142.5 -67t-191 -24
q-102 0 -185 22.5t-140 65.5t-87 103.5t-30 136.5z" />
    <glyph glyph-name="T.c2sc" horiz-adv-x="1048" 
d="M41 909v156h967v-156h-394v-909h-180v909h-393z" />
    <glyph glyph-name="U.c2sc" horiz-adv-x="1220" 
d="M147 426v639h181v-639q0 -68 16 -121t51 -90t88.5 -56.5t122.5 -19.5q72 0 126 19.5t90 56.5t53.5 90t17.5 121v639h180v-639q0 -119 -34.5 -206t-97 -141t-147.5 -79t-188 -25q-102 0 -185 25t-144.5 79t-95.5 141t-34 206z" />
    <glyph glyph-name="V.c2sc" horiz-adv-x="1056" 
d="M16 1065h189l323 -885h9l323 885h180l-401 -1065h-229z" />
    <glyph glyph-name="W.c2sc" horiz-adv-x="1581" 
d="M33 1065h188l217 -868h8l259 868h188l256 -868h8l211 868h180l-278 -1065h-230l-243 836h-4l-244 -836h-230z" />
    <glyph glyph-name="X.c2sc" horiz-adv-x="1015" 
d="M16 0l392 547l-375 518h213l268 -383l264 383h205l-375 -514l391 -551h-196l-301 420l-297 -420h-189z" />
    <glyph glyph-name="Y.c2sc" horiz-adv-x="1032" 
d="M8 1065h213l297 -479h4l305 479h197l-422 -645v-420h-180v414z" />
    <glyph glyph-name="Z.c2sc" horiz-adv-x="1040" 
d="M82 0v115l618 794h-594v156h836v-115l-620 -794h612v-156h-852z" />
    <glyph glyph-name="ampersand.c2sc" horiz-adv-x="1196" 
d="M98 283q0 57 20.5 104t54.5 83t78 63.5t99 54.5q-33 37 -55.5 66.5t-35.5 56t-19.5 53.5t-6.5 57q0 51 19.5 98.5t58.5 84t98.5 58t135.5 21.5q74 0 131 -17t95 -50t56.5 -78t18.5 -100q0 -53 -20.5 -96.5t-55.5 -76t-79 -57t-101 -51.5l278 -262q12 23 20.5 46.5
t13.5 49t8 53t3 56.5v32h156v-30q0 -35 -5 -73t-15.5 -79t-27.5 -82t-42 -78l205 -190h-207l-92 86q-31 -25 -69 -45.5t-82 -34.5t-95 -22.5t-111 -8.5q-102 0 -182 21.5t-135 62.5t-84 97.5t-29 126.5zM281 295q0 -41 19 -73t53 -54.5t80 -33.5t99 -11q39 0 73 4t63.5 12
t56.5 19.5t49 27.5l-328 306q-39 -18 -67.5 -39t-51 -43.5t-34.5 -51t-12 -63.5zM391 823q0 -18 6 -37.5t18.5 -40t31 -44t47.5 -52.5q45 20 77.5 38t58 39.5t40 46t14.5 54.5q0 27 -8 49.5t-26.5 39t-47.5 25.5t-67 9q-35 0 -62 -10t-45 -27.5t-27.5 -40t-9.5 -49.5z" />
    <glyph glyph-name="uniFB01.aalt" horiz-adv-x="1572" 
d="M180 0v1065h770v-156h-590v-327h467v-152h-467v-430h-180zM1212 0v1065h181v-1065h-181z" />
    <glyph glyph-name="uniFB02.aalt" horiz-adv-x="1982" 
d="M180 0v1065h770v-156h-590v-327h467v-152h-467v-430h-180zM1212 0v1065h181v-901h549v-164h-730z" />
    <glyph glyph-name="germandbls.sc" horiz-adv-x="2138" 
d="M90 303h180q0 -43 17.5 -76.5t52.5 -56.5t83 -35t109 -12t110.5 10t83.5 31.5t51.5 54.5t17.5 76q0 39 -20.5 66.5t-57.5 44t-80 25.5t-113 22l-49 8q-80 14 -141.5 31.5t-112.5 50t-80.5 86t-29.5 133.5q0 72 29.5 132t87 104t137 68t176.5 24q94 0 169.5 -23t130 -63.5
t82 -100t27.5 -133.5h-172q0 39 -17.5 70.5t-49 54.5t-75.5 35t-95 12q-55 0 -101.5 -9t-78 -29.5t-49 -51.5t-17.5 -74q0 -41 21.5 -68.5t57.5 -45t80 -27.5t111 -23l49 -8q84 -14 144.5 -30.5t112 -48t82 -85t30.5 -131.5t-29.5 -140t-88 -105t-142.5 -67t-191 -24
q-102 0 -185 22.5t-140 65.5t-87 103.5t-30 136.5zM1147 303h180q0 -43 17.5 -76.5t52.5 -56.5t83 -35t109 -12t110.5 10t83.5 31.5t51 54.5t17 76q0 39 -20.5 66.5t-57 44t-79.5 25.5t-113 22l-49 8q-80 14 -141.5 31.5t-112.5 50t-81 86t-30 133.5q0 72 30 132t87 104
t137 68t176 24q94 0 170 -23t130.5 -63.5t82 -100t27.5 -133.5h-172q0 39 -17.5 70.5t-49 54.5t-75.5 35t-96 12q-55 0 -101 -9t-78 -29.5t-49 -51.5t-17 -74q0 -41 21.5 -68.5t57 -45t79.5 -27.5t112 -23l49 -8q84 -14 144.5 -30.5t111.5 -48t82 -85t31 -131.5t-30 -140
t-88 -105t-142 -67t-191 -24q-102 0 -185 22.5t-140.5 65.5t-87 103.5t-29.5 136.5z" />
    <glyph glyph-name="t_f.dlig" horiz-adv-x="1236" 
d="M8 852v147h180v304h181v-304h434v164q0 82 21.5 145.5t63.5 105.5t105.5 63.5t145.5 21.5h123v-156h-107q-49 0 -82 -12t-52.5 -35.5t-28.5 -58.5t-9 -82v-156h246v-147h-246v-852h-180v852h-434v-549q0 -43 4 -69.5t14 -44t29.5 -25.5t50.5 -8h123v-156h-131
q-74 0 -125 18.5t-83 55.5t-47.5 91t-15.5 130v557h-180z" />
    <glyph glyph-name="t_t.dlig" horiz-adv-x="1286" 
d="M0 852v147h180v304h180v-304h435v304h180v-304h262v-147h-262v-549q0 -39 9 -67.5t25.5 -46t41 -25.5t55.5 -8h131v-156h-147q-74 0 -129.5 18.5t-92.5 55.5t-55 92t-18 129v557h-435v-549q0 -39 7.5 -67.5t23 -46t39 -25.5t53.5 -8h99v-156h-107q-74 0 -129 18.5
t-92 55.5t-55.5 92t-18.5 129v557h-180z" />
    <glyph glyph-name="zero.zero" horiz-adv-x="1163" 
d="M90 705q0 158 27.5 289.5t87 231t154 154t223.5 54.5t223 -54.5t153.5 -154t87 -231.5t27.5 -289q0 -158 -27.5 -290t-87 -231.5t-153.5 -154t-223 -54.5t-223.5 54.5t-154 154t-87 231.5t-27.5 290zM279 705q0 -59 3 -112.5t10 -101t17 -88.5t25 -75l414 876
q-16 16 -35 28.5t-39.5 21t-44 12.5t-47.5 4q-78 0 -135.5 -37t-95.5 -109.5t-55 -177t-17 -241.5zM414 203q16 -16 35.5 -27.5t40 -20t44 -12.5t48.5 -4q76 0 133 37t95 109.5t56.5 178t18.5 241.5q0 59 -3 111t-10.5 99.5t-18.5 89.5t-26 76z" />
    <glyph glyph-name="zero.pnum" horiz-adv-x="1179" 
d="M90 705q0 158 30 289.5t90 231t155.5 154t224.5 54.5t224 -54.5t155.5 -154t90.5 -231.5t30 -289q0 -158 -30 -290t-90.5 -231.5t-155.5 -154t-224 -54.5t-224.5 54.5t-155.5 154t-90 231.5t-30 290zM279 705q0 -135 19 -241t59 -178.5t98.5 -109.5t134.5 -37t134 37
t98 109.5t59.5 178t19.5 241.5q0 135 -19.5 240.5t-59.5 178t-98 109.5t-134 37q-78 0 -137.5 -37t-97.5 -109.5t-57 -178t-19 -240.5z" />
    <glyph glyph-name="one.pnum" horiz-adv-x="704" 
d="M33 1155l368 254h140v-1409h-181v1186l-245 -170z" />
    <glyph glyph-name="two.pnum" horiz-adv-x="1081" 
d="M82 0q4 117 25.5 206t61.5 157.5t98.5 126t142.5 116.5l139 99q82 57 116.5 83.5t65.5 61.5t47.5 79t16.5 103q0 45 -13.5 89t-42 79t-76 56.5t-114.5 21.5q-63 0 -114.5 -18.5t-87.5 -54.5t-57.5 -90t-27.5 -124h-164q6 121 45 207t101.5 138.5t139.5 75t165 22.5
q96 0 175 -26t135 -77t86 -123.5t30 -167.5q0 -88 -26.5 -155.5t-69.5 -117.5t-86 -83t-129 -94l-140 -98q-76 -53 -123 -100.5t-70.5 -87.5t-31.5 -73.5t-12 -74.5h704v-156h-909z" />
    <glyph glyph-name="three.pnum" horiz-adv-x="1114" 
d="M74 426h172q0 -74 22.5 -129t63.5 -92t96 -55.5t121 -18.5t122 17.5t96 51t62.5 82t22.5 109.5q0 59 -23.5 107.5t-65.5 82t-97.5 52t-116.5 18.5h-107v156h107q51 0 98 17.5t82 50t54.5 77.5t19.5 99q0 53 -19.5 96t-54.5 71.5t-81 44t-99 15.5t-99.5 -15.5t-81 -47
t-54 -80t-19.5 -111.5h-164q0 92 29.5 168t85 130t133.5 83t170 29q94 0 174 -28t136 -79t86 -121.5t30 -152.5q0 -49 -16.5 -99.5t-45 -94.5t-66.5 -75.5t-77 -46.5v-8q55 -14 103.5 -47t84 -79t55 -101.5t19.5 -116.5q0 -94 -37 -171t-103.5 -130t-154.5 -81t-188 -28
q-109 0 -196 28t-149.5 84t-96 141t-33.5 198z" />
    <glyph glyph-name="four.pnum" horiz-adv-x="1122" 
d="M41 352v131l688 926h139v-901h197v-156h-197v-352h-180v352h-647zM236 508h452v600z" />
    <glyph glyph-name="five.pnum" horiz-adv-x="1073" 
d="M66 377h180q6 -49 26.5 -92t55 -78t86 -55.5t118.5 -20.5q55 0 107.5 19.5t92.5 58.5t63.5 96t23.5 129q0 74 -22.5 132.5t-61.5 98.5t-89 60t-105 20q-43 0 -79 -9t-68 -27.5t-59.5 -43t-55.5 -59.5l-164 8l41 795h762v-164h-599l-24 -442h8q23 23 49.5 40t58 30.5
t70.5 20.5t84 7q88 0 167 -29.5t139.5 -88t94 -142.5t33.5 -190q0 -115 -37.5 -205t-104 -150.5t-150.5 -90.5t-175 -30q-102 0 -185 29t-143.5 81t-95 127t-42.5 165z" />
    <glyph glyph-name="six.pnum" horiz-adv-x="1138" 
d="M90 664q0 207 39 355t108.5 239.5t160.5 133.5t200 42q98 0 175 -28t129 -77t82 -118.5t40 -153.5h-180q-6 49 -22.5 88t-46.5 69.5t-74 47t-103 16.5q-68 0 -124 -30.5t-99 -97.5t-68.5 -175.5t-27.5 -259.5q20 43 54 77.5t78 58t96 37t107 13.5q98 0 179 -31.5
t140.5 -93t91.5 -146.5t32 -188q0 -109 -38 -196.5t-103.5 -148t-149.5 -91.5t-176 -31q-109 0 -199 36t-157.5 117t-105.5 214t-38 322zM303 440q0 -66 20.5 -122t57.5 -98t89 -65.5t116 -23.5q63 0 116.5 20.5t92.5 60.5t60.5 98.5t21.5 131.5q0 66 -21.5 122.5t-60.5 97
t-91.5 62t-109.5 21.5q-66 0 -119 -22.5t-92 -63.5t-59.5 -97t-20.5 -122z" />
    <glyph glyph-name="seven.pnum" horiz-adv-x="942" 
d="M41 1245v164h877v-131l-599 -1278h-188l590 1245h-680z" />
    <glyph glyph-name="eight.pnum" horiz-adv-x="1146" 
d="M82 377q0 63 19.5 120.5t55.5 104.5t84 80t103 47v8q-43 14 -80 46t-65.5 75t-44 93t-15.5 102q0 82 31 152.5t87 121.5t137 79t179 28t179.5 -28t137.5 -79t87 -121.5t31 -152.5q0 -51 -15.5 -101.5t-44 -93.5t-65.5 -74.5t-80 -46.5v-8q55 -14 103 -47t84 -80
t55.5 -104.5t19.5 -120.5q0 -92 -35 -168t-100.5 -127t-156.5 -79t-200 -28t-199.5 28t-156 79t-100.5 127t-35 168zM262 391q0 -61 22.5 -109.5t64.5 -82t99.5 -51t124.5 -17.5q68 0 125.5 17.5t99.5 51t64.5 82t22.5 109.5q0 57 -23.5 105.5t-66.5 83t-99.5 53
t-122.5 18.5t-122 -18.5t-99 -53t-66.5 -82.5t-23.5 -106zM311 1051q0 -53 19.5 -98.5t55.5 -78t84 -50t103 -17.5t103.5 17.5t84.5 50t55.5 77.5t19.5 99q0 53 -19.5 97t-55.5 74.5t-84 47t-104 16.5q-55 0 -103 -16.5t-84 -47t-55.5 -74.5t-19.5 -97z" />
    <glyph glyph-name="nine.pnum" horiz-adv-x="1138" 
d="M66 967q0 109 37.5 196.5t103 148t149.5 91.5t176 31q111 0 200 -35t156.5 -114t105.5 -211t38 -320q0 -213 -37 -363.5t-104.5 -242t-159.5 -132.5t-207 -41q-96 0 -174 28t-133 78t-86 119.5t-33 151.5h181q4 -47 21 -87t48 -70.5t75 -47t101 -16.5q74 0 131.5 29.5
t98.5 96.5t64.5 174.5t25.5 260.5q-20 -41 -54 -75.5t-78 -58t-96.5 -37t-107.5 -13.5q-98 0 -179 31.5t-140.5 93t-91 146.5t-31.5 188zM246 967q0 -66 21.5 -122.5t60.5 -97t91 -62t109 -21.5q66 0 119 22.5t92 63.5t59.5 97t20.5 122t-20.5 122t-58.5 98t-90 65.5
t-113 23.5q-63 0 -116.5 -20.5t-92.5 -60.5t-60.5 -98.5t-21.5 -131.5z" />
    <glyph glyph-name="zero.c2sc" horiz-adv-x="1032" 
d="M90 532q0 119 24.5 220.5t76 177.5t133.5 118t192 42q111 0 193 -42t133 -118t75.5 -177.5t24.5 -220.5t-24.5 -220t-75.5 -177t-133 -118t-193 -42t-192.5 42t-133 118t-76 177.5t-24.5 219.5zM279 532q0 -96 14 -171.5t44 -129t75 -81t104 -27.5t104.5 27.5t75 81
t44 129t14.5 171.5q0 98 -14.5 174t-43 128.5t-73.5 80t-107 27.5q-61 0 -106 -27.5t-74 -80t-43 -128t-14 -174.5z" />
    <glyph glyph-name="one.c2sc" horiz-adv-x="1032" 
d="M139 819l385 246h131v-918h279v-147h-754v147h295v703l-262 -162z" />
    <glyph glyph-name="two.c2sc" horiz-adv-x="1032" 
d="M115 0q2 92 20.5 162.5t51 125t84 99.5t122.5 88l139 82q53 33 85 53.5t55.5 45t36 54t12.5 68.5q0 33 -12.5 61.5t-38 52t-64.5 37t-90 13.5t-91 -12t-67.5 -38t-43 -62.5t-19.5 -84.5h-164q4 92 37 159t86 108t119.5 59.5t142.5 18.5q84 0 153.5 -20.5t120 -59.5
t77 -95.5t26.5 -128.5q0 -63 -18.5 -112t-51 -87t-72.5 -66.5t-104 -69.5l-139 -82q-57 -37 -94 -67t-56.5 -55.5t-27.5 -48t-11 -51.5h590v-147h-794z" />
    <glyph glyph-name="three.c2sc" horiz-adv-x="1032" 
d="M106 311h173q0 -49 17 -87t50 -62.5t76 -35.5t94 -11t95 11t76 33.5t49.5 58.5t17.5 85q0 43 -17.5 76t-48.5 56.5t-73 35.5t-91 12h-90v140h90q41 0 77 11t62.5 32.5t42 52.5t15.5 67q0 39 -14.5 69t-41 51.5t-64.5 32.5t-85 11q-41 0 -78 -10t-65.5 -31.5t-45 -54.5
t-16.5 -76h-155q0 70 26.5 128.5t74.5 99.5t114.5 62.5t144.5 21.5q86 0 155.5 -23t117 -63.5t72 -96t24.5 -121.5q0 -39 -11.5 -74.5t-33 -65.5t-52 -51.5t-67.5 -33.5v-8q47 -14 86 -39t67.5 -59.5t44 -76.5t15.5 -91q0 -74 -32 -132.5t-89 -98.5t-133 -60.5t-164 -20.5
q-92 0 -168 19.5t-130 60.5t-83 105.5t-29 150.5z" />
    <glyph glyph-name="four.c2sc" horiz-adv-x="1032" 
d="M57 238v122l574 705h147v-680h172v-147h-172v-238h-180v238h-541zM250 385h348v432z" />
    <glyph glyph-name="five.c2sc" horiz-adv-x="1032" 
d="M106 279h181q6 -31 22.5 -58.5t44 -50.5t68.5 -35t94 -12q49 0 91 14.5t73 42t48 67.5t17 89q0 45 -17 84t-47 65.5t-71 41t-86 14.5q-39 0 -69.5 -8.5t-55 -22.5t-45 -31.5t-43.5 -44.5l-172 17l33 614h688v-156h-524l-17 -303h9q18 16 38.5 30.5t47 26t60.5 18.5t75 7
q78 0 146.5 -23.5t119.5 -68.5t81 -111.5t30 -148.5q0 -84 -33 -151.5t-90.5 -114.5t-132 -71t-154.5 -24q-92 0 -164.5 21.5t-125 61.5t-83 96.5t-37.5 124.5z" />
    <glyph glyph-name="six.c2sc" horiz-adv-x="1032" 
d="M98 508q0 156 36 267.5t97.5 181t142.5 101.5t175 32q88 0 154.5 -21.5t110.5 -61.5t69.5 -93.5t34.5 -118.5h-181q-6 29 -18 55.5t-33.5 47t-55.5 32.5t-81 12q-53 0 -97 -18.5t-80 -62.5t-57.5 -117.5t-27.5 -178.5q16 29 45.5 51.5t65.5 39t77 24.5t82 8
q82 0 151.5 -23.5t120 -68.5t78 -110.5t27.5 -149.5t-32 -151.5t-87 -114.5t-128 -71t-155 -24q-96 0 -173.5 29t-136 92.5t-91.5 166t-33 245.5zM311 328q0 -43 16.5 -80t46 -62.5t70.5 -40t88 -14.5q49 0 90.5 14.5t71 41t45 64.5t15.5 85q0 43 -16.5 80t-45 62.5
t-69.5 39.5t-91 14q-49 0 -89 -14t-69.5 -39.5t-46 -64.5t-16.5 -86z" />
    <glyph glyph-name="seven.c2sc" horiz-adv-x="1032" 
d="M98 901v164h844v-115l-500 -950h-196l491 901h-639z" />
    <glyph glyph-name="eight.c2sc" horiz-adv-x="1032" 
d="M98 287q0 49 15.5 91t44 76.5t67.5 59.5t86 39v8q-37 12 -67.5 33.5t-52 52.5t-33 66t-11.5 73q0 66 25 122.5t73 96t116.5 62.5t154.5 23t154.5 -23t117 -62.5t73 -96t24.5 -122.5q0 -39 -11.5 -73.5t-33 -65.5t-52 -52.5t-67.5 -33.5v-8q47 -14 86 -39t67.5 -59.5
t44 -76.5t15.5 -91q0 -74 -30 -133.5t-86 -98.5t-133 -59.5t-169 -20.5t-169 20.5t-133 59.5t-86 98.5t-30 133.5zM279 295q0 -41 17 -75t49 -57.5t76 -35.5t95 -12t95 12t76 35.5t49.5 57.5t17.5 75q0 43 -18.5 79t-50.5 60.5t-76 36.5t-93 12t-93 -12t-76 -36.5t-50 -60.5
t-18 -79zM311 786q0 -39 15.5 -70.5t44 -52t65.5 -30.5t80 -10t80 10t65.5 30.5t44 52.5t15.5 70q0 37 -15.5 68t-44 52.5t-65.5 32.5t-80 11t-80 -11t-65.5 -32.5t-44 -52.5t-15.5 -68z" />
    <glyph glyph-name="nine.c2sc" horiz-adv-x="1032" 
d="M98 729q0 84 32 151.5t87 114.5t128 71t155 24q96 0 174 -29t136 -92.5t91 -166t33 -245.5q0 -156 -33 -267.5t-92 -181t-137 -101.5t-172 -32q-88 0 -157 21.5t-117 61.5t-75.5 94.5t-35.5 117.5h180q6 -29 20.5 -54.5t39 -47t61.5 -33.5t84 -12q53 0 95 18.5t73.5 61.5
t51 115.5t23.5 179.5q-16 -29 -44.5 -51.5t-65.5 -38t-77 -23.5t-81 -8q-82 0 -151.5 23.5t-119.5 68.5t-78 110.5t-28 149.5zM287 729q0 -43 14 -80t43 -62.5t68 -40t88 -14.5t90 13.5t70.5 40t45 64.5t15.5 87q0 45 -16.5 82t-46 62.5t-69.5 39t-89 13.5t-89 -14.5
t-68 -41t-42 -64.5t-14 -85z" />
    <glyph glyph-name="zero.oldstyle" horiz-adv-x="1163" 
d="M90 500q0 115 36 212t102.5 166.5t156.5 107.5t197 38q113 0 204 -38t155.5 -107.5t98 -166t33.5 -212.5q0 -115 -36 -212.5t-102.5 -167t-156.5 -107.5t-196 -38q-113 0 -204 38t-155.5 107.5t-98.5 166t-34 213.5zM279 500q0 -82 21.5 -150.5t62 -117t96 -75
t123.5 -26.5t123 26.5t96 75t62.5 117t21.5 150.5q0 84 -21.5 152.5t-62.5 116.5t-96.5 73.5t-122.5 25.5q-68 0 -123.5 -26.5t-96 -74.5t-62 -116.5t-21.5 -150.5z" />
    <glyph glyph-name="one.oldstyle" horiz-adv-x="1163" 
d="M147 0v156h385v626l-294 -209l-82 132l417 294h140v-843h352v-156h-918z" />
    <glyph glyph-name="two.oldstyle" horiz-adv-x="1163" 
d="M123 0q0 104 26.5 183t73.5 134.5t109.5 92t142.5 65.5l139 49q72 27 100.5 38t57.5 30.5t46.5 49.5t17.5 71q0 31 -13.5 58.5t-43 52t-79 39t-118.5 14.5q-66 0 -118 -14.5t-90 -44.5t-59.5 -75t-27.5 -104h-164q2 104 43 179t106.5 120t145.5 65.5t164 20.5
q98 0 179 -20.5t137 -60.5t87 -96t31 -126q0 -78 -26.5 -132t-72 -89t-94.5 -55.5t-135 -51.5l-139 -49q-45 -16 -83 -35.5t-67.5 -44t-46 -52.5t-16.5 -56h688v-156h-901z" />
    <glyph glyph-name="three.oldstyle" horiz-adv-x="1163" 
d="M90 16h172q0 -74 22.5 -129t63.5 -92t96.5 -55.5t120.5 -18.5q66 0 122 17.5t96 51.5t62.5 82t22.5 110q0 59 -23.5 107t-65.5 82t-97 52.5t-117 18.5h-106v155h106q51 0 98.5 17.5t82 50.5t54 78t19.5 98t-19.5 96t-54 72t-81 44t-99.5 15t-99 -15t-81 -47t-54.5 -80
t-19.5 -112h-164q0 92 30 168t85 130.5t133 83t170 28.5q94 0 174 -27.5t136.5 -79t86 -122t29.5 -152.5q0 -49 -16.5 -99t-45 -94t-66.5 -76t-77 -46v-9q55 -14 103.5 -46.5t84.5 -80t55.5 -104.5t19.5 -121q0 -92 -37 -166.5t-103.5 -127t-154.5 -80t-189 -27.5
q-109 0 -195.5 27.5t-149 84t-96.5 141.5t-34 197z" />
    <glyph glyph-name="four.oldstyle" horiz-adv-x="1163" 
d="M66 0v131l679 868h148v-843h205v-156h-205v-410h-180v410h-647zM256 156h457v569z" />
    <glyph glyph-name="five.oldstyle" horiz-adv-x="1163" 
d="M115 -33h180q6 -47 27.5 -91t58.5 -79t92 -55.5t125 -20.5q59 0 113.5 19.5t97.5 58.5t67.5 96.5t24.5 129.5t-22.5 130t-63.5 98t-97 61.5t-120 21.5q-41 0 -78 -9.5t-69.5 -26.5t-62.5 -43t-60 -60l-164 8l41 794h794v-163h-630l-25 -443h8q23 23 50.5 40.5t61.5 30.5
t74 20.5t85 7.5q94 0 178 -31t146.5 -89.5t98 -143.5t35.5 -187q0 -115 -40 -205t-107.5 -150.5t-154.5 -90t-181 -29.5q-106 0 -192.5 28.5t-147.5 81t-98 127t-45 164.5z" />
    <glyph glyph-name="six.oldstyle" horiz-adv-x="1163" 
d="M90 672q0 205 44 352t119 237.5t169 131.5t201 41q98 0 174.5 -28t129 -77t82 -118.5t40.5 -153.5h-181q-6 49 -22.5 88t-46 69.5t-73.5 47t-103 16.5q-66 0 -125.5 -30.5t-107.5 -97.5t-77.5 -175.5t-33.5 -259.5q20 43 58 76.5t87 58t104.5 38t110.5 13.5
q98 0 179 -31.5t140.5 -93t91 -146.5t31.5 -188q0 -109 -38.5 -196.5t-105.5 -148t-153 -91.5t-178 -31q-109 0 -202 38t-163.5 120t-110.5 216t-40 323zM303 440q0 -66 21.5 -122t61.5 -98t94.5 -65.5t117.5 -23.5t118.5 20.5t96.5 60.5t64.5 98.5t23.5 131.5
q0 66 -22.5 122.5t-62.5 97t-92 62t-110 21.5q-66 0 -123 -22.5t-99 -63.5t-65.5 -97t-23.5 -122z" />
    <glyph glyph-name="seven.oldstyle" horiz-adv-x="1163" 
d="M106 836v163h967v-131l-598 -1278h-188l590 1246h-771z" />
    <glyph glyph-name="eight.oldstyle" horiz-adv-x="1163" 
d="M90 377q0 63 19.5 120.5t55.5 104.5t84 80t103 47v8q-43 14 -79.5 46t-65.5 75t-44.5 93t-15.5 102q0 82 31 152.5t87.5 121.5t137 79t179.5 28q98 0 179 -28t137 -79t87 -121.5t31 -152.5q0 -51 -15.5 -101.5t-44 -93.5t-65.5 -74.5t-80 -46.5v-8q55 -14 103.5 -47
t84 -80t55 -104.5t19.5 -120.5q0 -92 -34.5 -168t-100.5 -127t-157 -79t-199 -28q-109 0 -200 28t-156.5 79t-100.5 127t-35 168zM270 391q0 -61 22.5 -109.5t64.5 -82t99.5 -51t125.5 -17.5t125 17.5t99 51t64.5 82t22.5 109.5q0 57 -23.5 105.5t-66.5 83t-99.5 53
t-121.5 18.5q-66 0 -122.5 -18.5t-99.5 -53t-66.5 -82.5t-23.5 -106zM319 1051q0 -53 19.5 -98.5t55.5 -78t84 -50t104 -17.5q55 0 103 17.5t84 50t55.5 77.5t19.5 99q0 53 -19.5 97t-55.5 74.5t-84 47t-103 16.5t-103.5 -16.5t-84.5 -47t-55.5 -74.5t-19.5 -97z" />
    <glyph glyph-name="nine.oldstyle" horiz-adv-x="1163" 
d="M82 557q0 109 39 197t105.5 148.5t152.5 91t178 30.5q109 0 202 -38t163.5 -120t110.5 -216t40 -322q0 -207 -38 -354.5t-107.5 -236.5t-162.5 -130t-208 -41q-102 0 -180 26.5t-132.5 76.5t-86 119t-43.5 155h180q10 -47 28.5 -86t49 -70t77 -48.5t107.5 -17.5
q74 0 132.5 30t101.5 96.5t67.5 175t26.5 260.5q-20 -41 -58.5 -76t-87.5 -58.5t-104 -37t-111 -13.5q-98 0 -179 32t-140.5 93.5t-91 146.5t-31.5 187zM262 557q0 -66 22.5 -122t62.5 -97t92.5 -62.5t109.5 -21.5q66 0 123 22.5t99 63.5t65.5 97.5t23.5 121.5
q0 63 -22.5 120.5t-62.5 99.5t-94 65.5t-116 23.5q-61 0 -115.5 -20.5t-96.5 -60t-66.5 -98t-24.5 -132.5z" />
    <glyph glyph-name="percent.aalt" horiz-adv-x="1202" 
d="M43 799q0 63 13.5 113.5t42 87t71.5 57t102 20.5t103.5 -20.5t72 -57t41 -87t13.5 -113.5t-13.5 -113.5t-41 -87.5t-71.5 -57.5t-104 -20.5q-59 0 -102 20.5t-71.5 57.5t-42 87t-13.5 114zM170 799q0 -43 6 -77t19.5 -56.5t33 -33.5t43.5 -11q27 0 46.5 11t31.5 33.5
t18.5 56.5t6.5 77t-6.5 76.5t-18.5 56t-31.5 34t-46.5 11.5q-25 0 -44 -11.5t-32.5 -34t-19.5 -56t-6 -76.5zM242 -18l604 1101h115l-607 -1101h-112zM700 266q0 63 13.5 113.5t42 87.5t71.5 57.5t103 20.5q59 0 103 -20.5t72 -57.5t41 -87t13 -114q0 -63 -13 -113.5
t-41 -87t-72 -57t-103 -20.5t-102.5 20.5t-72 57t-42 87t-13.5 113.5zM827 266q0 -43 6.5 -76.5t19.5 -56t32.5 -34t44.5 -11.5q27 0 46 11.5t31.5 34t18.5 56t6 76.5t-6 77t-18.5 56.5t-32 33.5t-45.5 11q-25 0 -44.5 -11t-32.5 -33.5t-19.5 -56.5t-6.5 -77z" />
    <glyph glyph-name="a.sinf" horiz-adv-x="794" 
d="M74 -127q0 43 14 79t43 63.5t73 46t105 26.5l133 16q29 4 46.5 8.5t26.5 10.5t13 16.5t4 24.5q0 27 -8 49.5t-23.5 39.5t-41 26.5t-58.5 9.5q-31 0 -55 -7.5t-42.5 -22.5t-30 -37.5t-13.5 -53.5h-154q4 63 29 109.5t65 76t91 43t110 13.5q70 0 124.5 -15.5t93 -47.5
t58 -79t19.5 -110v-469h-157v84h-7q-14 -25 -35.5 -43.5t-49 -31.5t-61.5 -19.5t-77 -6.5q-55 0 -99 14.5t-75 41t-46 63.5t-15 82zM238 -115q0 -23 8 -41t22.5 -30.5t37 -19.5t48.5 -7q37 0 69 11.5t56.5 35t38.5 58t14 81.5v62q-4 -6 -11 -12.5t-16 -10.5t-19.5 -6
t-22.5 -4l-115 -14q-29 -4 -50.5 -13.5t-34.5 -22.5t-19 -29.5t-6 -37.5z" />
    <glyph glyph-name="b.sinf" horiz-adv-x="878" 
d="M106 -311v1056h164v-225v-49t-1 -53t-3 -66t-4 -69h6q16 33 40 57.5t54.5 40.5t67.5 23.5t78 7.5q63 0 118.5 -23.5t97.5 -71t65.5 -116t23.5 -154.5t-25.5 -155.5t-69.5 -118.5t-102.5 -75t-121.5 -26q-41 0 -75 7.5t-62.5 22.5t-50 40t-38.5 57h-6v-110h-156zM270 41
q0 -55 14.5 -99t39 -75t59.5 -47.5t76 -16.5q39 0 72.5 17.5t59 49.5t39 77t13.5 100q0 53 -13.5 97t-38 74t-58 45.5t-74.5 15.5q-39 0 -74 -15.5t-59.5 -45.5t-39 -73t-16.5 -94v-10z" />
    <glyph glyph-name="c.sinf" horiz-adv-x="798" 
d="M66 41q0 78 24.5 145.5t71.5 118.5t113.5 79t148.5 28q72 0 129 -19.5t98 -55.5t63.5 -83t26.5 -102h-161q-4 25 -15.5 48t-31 40.5t-47 28t-62.5 10.5q-45 0 -80 -18.5t-59.5 -51.5t-36.5 -76t-12 -92t12 -93t35.5 -76t56.5 -50.5t76 -18.5q37 0 66.5 10.5t49 29
t31.5 41t17 46.5h161q-4 -55 -28.5 -102t-66.5 -82t-101.5 -54.5t-128.5 -19.5q-82 0 -147.5 28t-110.5 77t-68.5 116.5t-23.5 147.5z" />
    <glyph glyph-name="d.sinf" horiz-adv-x="876" 
d="M66 35q0 86 25.5 156.5t70.5 119.5t102.5 75t120.5 26q43 0 78 -7.5t61.5 -23.5t48 -40t37.5 -58h6q-2 35 -4 68.5t-3 61t-1 49v48.5v235h164v-1056h-156v110h-6q-16 -33 -39.5 -57.5t-54.5 -39.5t-66.5 -22.5t-76.5 -7.5q-63 0 -118.5 23.5t-98.5 71t-66.5 115
t-23.5 153.5zM236 35q0 -55 13 -98t38.5 -73t59.5 -45.5t75 -15.5q39 0 71.5 15.5t58.5 45.5t40 71.5t16 93.5v12q0 53 -14 98t-39 76t-59.5 47.5t-73.5 16.5q-41 0 -75 -17.5t-59.5 -49.5t-38.5 -77t-13 -100z" />
    <glyph glyph-name="e.sinf" horiz-adv-x="815" 
d="M66 41q0 82 25.5 149.5t73.5 116.5t112.5 76t140.5 27q74 0 135 -24t105 -69t68 -109.5t24 -144.5v-49h-517q2 -53 17.5 -93t40 -65.5t58.5 -39t75 -13.5q35 0 62.5 7.5t47 21.5t30.5 31.5t18 38.5h151q-8 -49 -32.5 -90t-64.5 -72t-94.5 -48.5t-119.5 -17.5
q-82 0 -147.5 25t-112.5 72t-71.5 115.5t-24.5 154.5zM242 123h336q-4 39 -17.5 67.5t-33 49t-47 31t-62.5 10.5q-37 0 -65.5 -10.5t-51 -30t-37 -49t-22.5 -68.5z" />
    <glyph glyph-name="f.sinf" horiz-adv-x="499" 
d="M16 262v131h138v99q0 66 14 113.5t45 78.5t79 46t114 15h102v-135h-78q-33 0 -54.5 -7t-33.5 -21.5t-18.5 -38t-6.5 -56.5v-94h166v-131h-166v-573h-163v573h-138z" />
    <glyph glyph-name="g.sinf" horiz-adv-x="878" 
d="M66 35q0 86 25.5 156.5t70.5 119.5t102.5 75t120.5 26q41 0 75 -7.5t62.5 -23.5t50 -41t37.5 -57h6v110h156v-672q0 -98 -26.5 -168.5t-73.5 -112.5t-112.5 -61.5t-147.5 -19.5q-72 0 -131.5 15.5t-102.5 46t-67.5 76.5t-26.5 106h156q0 -29 13 -51.5t35.5 -38
t54.5 -22.5t69 -7q47 0 85 13.5t64.5 43t40.5 75.5t14 110v73h-6q-16 -33 -39.5 -57.5t-54.5 -39.5t-66.5 -22.5t-76.5 -7.5q-63 0 -118.5 23.5t-98.5 71t-66.5 115t-23.5 153.5zM236 35q0 -55 13 -98t38.5 -73t59.5 -45.5t75 -15.5q39 0 73.5 16.5t59.5 47.5t39 76t14 98
v10q-2 51 -16 94t-40 73t-58.5 45.5t-71.5 15.5q-41 0 -75 -17.5t-59.5 -49.5t-38.5 -77t-13 -100z" />
    <glyph glyph-name="h.sinf" horiz-adv-x="843" 
d="M106 -311v1056h164v-221v-49t-1 -53t-3 -65.5t-4 -69.5h6q14 33 37 56.5t50.5 38.5t61.5 22.5t72 7.5q53 0 99.5 -15.5t82.5 -49.5t55 -87t19 -127v-444h-163v405q0 49 -10.5 85t-29 56.5t-45 30.5t-61.5 10t-65.5 -14t-53 -43t-35 -69.5t-12.5 -92.5v-368h-164z" />
    <glyph glyph-name="i.sinf" horiz-adv-x="360" 
d="M92 580v165h176v-165h-176zM98 -311v704h164v-704h-164z" />
    <glyph glyph-name="j.sinf" horiz-adv-x="360" 
d="M-25 -494h41q23 0 39.5 6.5t25.5 19.5t13 32.5t4 46.5v782h164v-796q0 -55 -11 -96.5t-38 -70t-71 -44t-107 -15.5h-60v135zM92 580v165h176v-165h-176z" />
    <glyph glyph-name="k.sinf" horiz-adv-x="770" 
d="M106 -311v1056h164v-655l277 303h188l-262 -280l289 -424h-191l-206 307l-95 -102v-205h-164z" />
    <glyph glyph-name="l.sinf" horiz-adv-x="376" 
d="M106 -311v1056h164v-1056h-164z" />
    <glyph glyph-name="m.sinf" horiz-adv-x="1280" 
d="M106 -311v704h156v-106h6q14 33 36 56.5t48.5 38.5t59 22.5t71.5 7.5q35 0 69 -8.5t62.5 -26t51 -45t36.5 -64.5q18 39 41 66.5t52.5 45t65.5 25t79 7.5q49 0 92 -14.5t77 -46.5t53.5 -83t19.5 -123v-456h-164v420q0 45 -8.5 77.5t-24.5 52t-40.5 28.5t-57.5 9
q-35 0 -63.5 -14t-51 -40.5t-35 -67.5t-12.5 -93v-372h-162v415q0 45 -8 78t-25.5 53.5t-42 30.5t-57.5 10t-61.5 -14t-51 -40.5t-35 -66.5t-12.5 -92v-374h-164z" />
    <glyph glyph-name="n.sinf" horiz-adv-x="843" 
d="M106 -311v704h156v-106h6q14 33 37 56.5t50.5 38.5t61.5 22.5t72 7.5q53 0 99.5 -15.5t82.5 -49.5t55 -87t19 -127v-444h-163v405q0 49 -10.5 85t-29 56.5t-45 30.5t-61.5 10t-65.5 -14t-53 -43t-35 -69.5t-12.5 -92.5v-368h-164z" />
    <glyph glyph-name="o.sinf" horiz-adv-x="854" 
d="M66 41q0 84 25.5 152.5t73.5 117.5t114.5 75t146.5 26q82 0 149.5 -26t115.5 -75t72.5 -117.5t24.5 -152.5t-25.5 -151.5t-74.5 -116.5t-115.5 -75t-146.5 -26q-82 0 -148.5 26t-114.5 74t-72.5 116.5t-24.5 152.5zM236 41q0 -53 13 -96t38.5 -75t60.5 -49.5t78 -17.5
t79 17.5t61.5 49.5t38.5 75t13 96t-13 97t-38.5 76t-61.5 48.5t-79 16.5t-78 -16.5t-60.5 -48.5t-38.5 -76t-13 -97z" />
    <glyph glyph-name="p.sinf" horiz-adv-x="878" 
d="M106 393h156v-110h6q16 33 40 57.5t54.5 40.5t67.5 23.5t78 7.5q63 0 118.5 -23.5t97.5 -71t65.5 -116t23.5 -154.5t-25.5 -155.5t-69.5 -118.5t-102.5 -75t-121.5 -26q-41 0 -75 7.5t-62.5 22.5t-50 40t-38.5 57h-6q2 -35 4 -68.5t3 -61t1 -49v-48.5v-201h-164v1022z
M270 41q0 -55 14.5 -99t39 -75t59.5 -47.5t76 -16.5q39 0 72.5 17.5t59 49.5t39 77t13.5 100q0 53 -13.5 97t-38 74t-58 45.5t-74.5 15.5q-39 0 -74 -15.5t-59.5 -45.5t-39 -73t-16.5 -94v-10z" />
    <glyph glyph-name="q.sinf" horiz-adv-x="878" 
d="M66 35q0 86 25.5 156.5t70.5 119.5t102.5 75t120.5 26q41 0 75 -7.5t62.5 -23.5t51 -41t36.5 -57h6v110h156v-1022h-164v201v48.5t1 49t3 61t4 68.5h-6q-14 -33 -38.5 -57.5t-55.5 -39.5t-66.5 -22.5t-76.5 -7.5q-63 0 -118.5 23.5t-98.5 71t-66.5 115t-23.5 153.5z
M236 35q0 -55 13 -98t38.5 -73t59.5 -45.5t75 -15.5q39 0 72.5 15.5t58.5 45.5t39 71.5t16 93.5v12q0 55 -13 99t-39 75t-59.5 47.5t-74.5 16.5t-75 -17.5t-59.5 -49.5t-38.5 -77t-13 -100z" />
    <glyph glyph-name="r.sinf" horiz-adv-x="559" 
d="M106 -311v704h156v-133h6q12 33 29.5 60.5t40 48t51.5 32t64 11.5q12 0 23 -1t23.5 -5.5t26 -10.5t25.5 -14l-39 -148q-12 6 -22.5 10.5t-21.5 7.5t-21.5 4t-20.5 1q-39 0 -68.5 -18.5t-49 -51t-29 -76.5t-9.5 -94v-327h-164z" />
    <glyph glyph-name="s.sinf" horiz-adv-x="759" 
d="M66 -96h155q2 -31 15.5 -52.5t35 -36t50 -21.5t61.5 -7t60.5 6t47 17.5t29.5 29t10 37.5t-8 34.5t-22.5 25t-35 16.5t-48.5 12l-140 29q-43 8 -78.5 23.5t-61 39t-40 57t-14.5 81.5q0 51 22.5 92t62.5 68.5t95 42t121 14.5q63 0 115.5 -13.5t92.5 -40t63.5 -68.5
t27.5 -97h-156q-2 27 -13 47t-30.5 32.5t-43 17.5t-52.5 5q-33 0 -59.5 -5t-45 -16.5t-28.5 -27t-10 -35.5q0 -18 7 -32.5t20.5 -24t34 -16.5t50.5 -13l140 -29q43 -8 76.5 -21.5t61.5 -36t44 -57t16 -83.5q0 -55 -23.5 -97.5t-65.5 -71t-99 -43t-125 -14.5t-124 13.5
t-97 41t-65.5 72.5t-28.5 105z" />
    <glyph glyph-name="t.sinf" horiz-adv-x="509" 
d="M16 262v131h127v213h164v-213h170v-131h-170v-330q0 -29 4 -48t14.5 -31.5t28 -18.5t43.5 -6h80v-139h-98q-66 0 -111 13t-72.5 41t-40 72t-12.5 107v340h-127z" />
    <glyph glyph-name="u.sinf" horiz-adv-x="843" 
d="M98 -51v444h164v-405q0 -49 10.5 -85t28.5 -56.5t45 -31t62 -10.5t64.5 14.5t53 43t35.5 70.5t12 96v364h164v-704h-155v106h-7q-14 -33 -36.5 -56.5t-50 -37.5t-60.5 -21.5t-74 -7.5q-53 0 -99 15.5t-82 48.5t-55.5 86t-19.5 127z" />
    <glyph glyph-name="v.sinf" horiz-adv-x="731" 
d="M8 393h185l180 -538l182 538h168l-256 -704h-193z" />
    <glyph glyph-name="w.sinf" horiz-adv-x="1099" 
d="M8 393h166l148 -540l143 540h174l143 -543l150 543h160l-215 -704h-185l-143 528l-146 -528h-184z" />
    <glyph glyph-name="x.sinf" horiz-adv-x="690" 
d="M8 -311l250 352l-246 352h189l147 -221l150 221h180l-248 -346l252 -358h-186l-154 229l-156 -229h-178z" />
    <glyph glyph-name="y.sinf" horiz-adv-x="731" 
d="M8 393h185l180 -536l182 536h168l-287 -799q-16 -45 -39.5 -83.5t-57.5 -70.5t-79 -50.5t-100 -18.5h-80v137h45q31 0 56.5 7.5t47 21.5t38 37t28.5 55z" />
    <glyph glyph-name="z.sinf" horiz-adv-x="679" 
d="M49 262v131h576v-102l-363 -471h369v-131h-580v94l367 479h-369z" />
    <glyph glyph-name="dollar.sinf" 
d="M57 -106h148q2 -23 14 -42.5t32.5 -34t48.5 -22.5t60 -8q35 0 62 6t44 18.5t25.5 30t8.5 39.5q0 23 -10.5 38t-30 25.5t-43 17.5t-56.5 13l-41 9q-55 10 -95 22t-74.5 33.5t-55 58.5t-20.5 90q0 43 15 80t44 64.5t70 46t92 24.5v113h131v-113q45 -6 83 -22t66.5 -42
t45 -57.5t18.5 -68.5h-156q-4 20 -15 35.5t-27.5 26t-37 15.5t-43.5 5q-27 0 -50 -5t-41.5 -16.5t-29 -29t-10.5 -39.5q0 -23 12.5 -39t33 -26.5t47 -17.5t63.5 -16l41 -8q49 -10 88 -23.5t70.5 -36t51 -58t19.5 -86.5q0 -45 -15 -82t-45 -66t-73 -46t-96 -24v-127h-131v127
q-55 6 -98 24.5t-74 46.5t-48.5 64.5t-17.5 82.5z" />
    <glyph glyph-name="cent.sinf" 
d="M74 41q0 51 15 96t45 80t75 58.5t102 31.5v103h131v-105q47 -8 84 -26.5t62.5 -44t40 -56.5t18.5 -63h-155q-4 14 -12.5 27.5t-22 24.5t-34 18.5t-46.5 7.5q-33 0 -59.5 -11.5t-44 -31t-26.5 -47t-9 -62.5t9 -62.5t26.5 -47t44 -31t59.5 -11.5q27 0 47 7.5t33.5 18.5
t21.5 24.5t13 27.5h155q-4 -33 -18.5 -63.5t-40 -57t-62.5 -45t-84 -26.5v-103h-131v103q-57 8 -102 31.5t-75 58.5t-45 80t-15 96z" />
    <glyph glyph-name="Euro.sinf" 
d="M25 -57l16 65h65v66h-57l17 65h49q10 59 33.5 108.5t61.5 86.5t90 56.5t118 19.5q59 0 106 -16.5t80 -47.5t53.5 -70.5t30.5 -87.5h-156q-6 20 -15 38t-23.5 32t-33 21.5t-42.5 7.5q-29 0 -53.5 -9.5t-42 -29t-28.5 -47t-18 -62.5h216l-17 -65h-205v-66h181l-17 -65h-158
q6 -37 17.5 -65t29 -46t41 -27.5t54.5 -9.5q23 0 41 6t32.5 18.5t24.5 29t16 36.5h156q-10 -47 -31.5 -86t-55.5 -67.5t-79 -44t-104 -15.5q-68 0 -121 19.5t-91 55.5t-60.5 85t-32.5 111h-88z" />
    <glyph glyph-name="plus.sinf" 
d="M90 -16v122h205v205h131v-205h205v-122h-205v-205h-131v205h-205z" />
    <glyph glyph-name="equal.sinf" 
d="M90 -16h541v-123h-541v123zM90 106v123h541v-123h-541z" />
    <glyph glyph-name="comma.sinf" horiz-adv-x="376" 
d="M98 -123h181v-180l-58 -238h-90l45 230h-78v188z" />
    <glyph glyph-name="period.sinf" horiz-adv-x="376" 
d="M98 -123h181v-188h-181v188z" />
    <glyph glyph-name="hyphen.sinf" horiz-adv-x="565" 
d="M74 -25v140h418v-140h-418z" />
    <glyph glyph-name="a.dnom" horiz-adv-x="794" 
d="M74 184q0 43 14 79t43 63.5t73 46t105 26.5l133 17q29 4 46.5 8t26.5 10t13 16.5t4 24.5q0 27 -8 49.5t-23.5 40t-41 26.5t-58.5 9q-31 0 -55 -7t-42.5 -22.5t-30 -38t-13.5 -53.5h-154q4 63 29 109.5t65 76t91 43t110 13.5q70 0 124.5 -15.5t93 -47t58 -79t19.5 -110.5
v-469h-157v84h-7q-14 -25 -35.5 -43t-49 -31.5t-61.5 -19.5t-77 -6q-55 0 -99 14t-75 41t-46 63.5t-15 81.5zM238 197q0 -23 8 -41.5t22.5 -30.5t37 -19.5t48.5 -7.5q37 0 69 11.5t56.5 35t38.5 58.5t14 82v61q-4 -6 -11 -12t-16 -10.5t-19.5 -6.5t-22.5 -4l-115 -14
q-29 -4 -50.5 -13.5t-34.5 -22.5t-19 -29.5t-6 -36.5z" />
    <glyph glyph-name="b.dnom" horiz-adv-x="878" 
d="M106 0v1057h164v-226v-49t-1 -53t-3 -65.5t-4 -69.5h6q16 33 40 57.5t54.5 41t67.5 23.5t78 7q63 0 118.5 -23.5t97.5 -70.5t65.5 -116t23.5 -155t-25.5 -155.5t-69.5 -118.5t-102.5 -74.5t-121.5 -25.5q-41 0 -75 7t-62.5 22.5t-50 40t-38.5 57.5h-6v-111h-156zM270 352
q0 -55 14.5 -99t39 -75t59.5 -47t76 -16q39 0 72.5 17.5t59 49t39 76.5t13.5 100q0 53 -13.5 97.5t-38 74t-58 45t-74.5 15.5q-39 0 -74 -15.5t-59.5 -45t-39 -72.5t-16.5 -95v-10z" />
    <glyph glyph-name="c.dnom" horiz-adv-x="798" 
d="M66 352q0 78 24.5 145.5t71.5 119t113.5 79t148.5 27.5q72 0 129 -19.5t98 -55.5t63.5 -83t26.5 -102h-161q-4 25 -15.5 48.5t-31 40.5t-47 27.5t-62.5 10.5q-45 0 -80 -18.5t-59.5 -51.5t-36.5 -76t-12 -92t12 -93t35.5 -75.5t56.5 -50t76 -18.5q37 0 66.5 10t49 28.5
t31.5 41t17 47.5h161q-4 -55 -28.5 -102.5t-66.5 -82t-101.5 -54t-128.5 -19.5q-82 0 -147.5 27.5t-110.5 76.5t-68.5 116.5t-23.5 147.5z" />
    <glyph glyph-name="d.dnom" horiz-adv-x="876" 
d="M66 346q0 86 25.5 156.5t70.5 120t102.5 75t120.5 25.5q43 0 78 -7t61.5 -23.5t48 -40t37.5 -58.5h6q-2 35 -4 68.5t-3 61.5t-1 49.5v47.5v236h164v-1057h-156v111h-6q-16 -33 -39.5 -57.5t-54.5 -40t-66.5 -22.5t-76.5 -7q-63 0 -118.5 23.5t-98.5 70.5t-66.5 114.5
t-23.5 153.5zM236 346q0 -55 13 -98t38.5 -73t59.5 -45t75 -15q39 0 71.5 15t58.5 45t40 72t16 93v12q0 53 -14 98.5t-39 76t-59.5 47t-73.5 16.5q-41 0 -75 -17.5t-59.5 -49t-38.5 -77t-13 -100.5z" />
    <glyph glyph-name="e.dnom" horiz-adv-x="815" 
d="M66 352q0 82 25.5 149.5t73.5 117t112.5 76t140.5 26.5q74 0 135 -23.5t105 -68.5t68 -109.5t24 -144.5v-49h-517q2 -53 17.5 -93t40 -66t58.5 -39t75 -13q35 0 62.5 7t47 21.5t30.5 32t18 37.5h151q-8 -49 -32.5 -90t-64.5 -72t-94.5 -48t-119.5 -17q-82 0 -147.5 24.5
t-112.5 71.5t-71.5 115.5t-24.5 154.5zM242 434h336q-4 39 -17.5 67.5t-33 49t-47 31t-62.5 10.5q-37 0 -65.5 -10.5t-51 -30t-37 -49t-22.5 -68.5z" />
    <glyph glyph-name="f.dnom" horiz-adv-x="499" 
d="M16 573v132h138v98q0 66 14 114t45 78.5t79 46t114 15.5h102v-135h-78q-33 0 -54.5 -7.5t-33.5 -21.5t-18.5 -38t-6.5 -56v-94h166v-132h-166v-573h-163v573h-138z" />
    <glyph glyph-name="g.dnom" horiz-adv-x="878" 
d="M66 346q0 86 25.5 156.5t70.5 120t102.5 75t120.5 25.5q41 0 75 -7t62.5 -23.5t50 -41t37.5 -57.5h6v111h156v-672q0 -98 -26.5 -169t-73.5 -113t-112.5 -61.5t-147.5 -19.5q-72 0 -131.5 15.5t-102.5 46t-67.5 77t-26.5 105.5h156q0 -29 13 -51.5t35.5 -37.5t54.5 -22.5
t69 -7.5q47 0 85 13.5t64.5 43t40.5 75.5t14 110v74h-6q-16 -33 -39.5 -57.5t-54.5 -40t-66.5 -22.5t-76.5 -7q-63 0 -118.5 23.5t-98.5 70.5t-66.5 114.5t-23.5 153.5zM236 346q0 -55 13 -98t38.5 -73t59.5 -45t75 -15q39 0 73.5 16t59.5 47t39 76t14 98v10q-2 51 -16 94.5
t-40 73t-58.5 45t-71.5 15.5q-41 0 -75 -17.5t-59.5 -49t-38.5 -77t-13 -100.5z" />
    <glyph glyph-name="h.dnom" horiz-adv-x="843" 
d="M106 0v1057h164v-221v-49.5t-1 -53.5t-3 -65.5t-4 -69.5h6q14 33 37 56.5t50.5 39t61.5 22.5t72 7q53 0 99.5 -15.5t82.5 -49t55 -87t19 -127.5v-444h-163v406q0 49 -10.5 84.5t-29 56t-45 31t-61.5 10.5t-65.5 -14.5t-53 -43t-35 -69.5t-12.5 -92v-369h-164z" />
    <glyph glyph-name="i.dnom" horiz-adv-x="360" 
d="M92 891v166h176v-166h-176zM98 0v705h164v-705h-164z" />
    <glyph glyph-name="j.dnom" horiz-adv-x="360" 
d="M-25 -182h41q23 0 39.5 6t25.5 19.5t13 33t4 45.5v783h164v-797q0 -55 -11 -96t-38 -70t-71 -44t-107 -15h-60v135zM92 891v166h176v-166h-176z" />
    <glyph glyph-name="k.dnom" horiz-adv-x="770" 
d="M106 0v1057h164v-656l277 304h188l-262 -281l289 -424h-191l-206 307l-95 -102v-205h-164z" />
    <glyph glyph-name="l.dnom" horiz-adv-x="376" 
d="M106 0v1057h164v-1057h-164z" />
    <glyph glyph-name="m.dnom" horiz-adv-x="1280" 
d="M106 0v705h156v-107h6q14 33 36 56.5t48.5 39t59 22.5t71.5 7q35 0 69 -8t62.5 -25.5t51 -45.5t36.5 -64q18 39 41 66.5t52.5 45t65.5 24.5t79 7q49 0 92 -14.5t77 -46t53.5 -83t19.5 -122.5v-457h-164v420q0 45 -8.5 77.5t-24.5 52t-40.5 29t-57.5 9.5
q-35 0 -63.5 -14.5t-51 -41t-35 -67.5t-12.5 -92v-373h-162v416q0 45 -8 77.5t-25.5 53t-42 31t-57.5 10.5t-61.5 -14.5t-51 -41t-35 -66.5t-12.5 -91v-375h-164z" />
    <glyph glyph-name="n.dnom" horiz-adv-x="843" 
d="M106 0v705h156v-107h6q14 33 37 56.5t50.5 39t61.5 22.5t72 7q53 0 99.5 -15.5t82.5 -49t55 -87t19 -127.5v-444h-163v406q0 49 -10.5 84.5t-29 56t-45 31t-61.5 10.5t-65.5 -14.5t-53 -43t-35 -69.5t-12.5 -92v-369h-164z" />
    <glyph glyph-name="o.dnom" horiz-adv-x="854" 
d="M66 352q0 84 25.5 152.5t73.5 118t114.5 75t146.5 25.5q82 0 149.5 -25.5t115.5 -75t72.5 -118t24.5 -152.5t-25.5 -151.5t-74.5 -116.5t-115.5 -74.5t-146.5 -25.5q-82 0 -148.5 25.5t-114.5 73.5t-72.5 116.5t-24.5 152.5zM236 352q0 -53 13 -96t38.5 -74.5t60.5 -49
t78 -17.5t79 17.5t61.5 49t38.5 74.5t13 96t-13 97.5t-38.5 76t-61.5 48t-79 16.5t-78 -16.5t-60.5 -48t-38.5 -75.5t-13 -98z" />
    <glyph glyph-name="p.dnom" horiz-adv-x="878" 
d="M106 -317v1022h156v-111h6q16 33 40 57.5t54.5 41t67.5 23.5t78 7q63 0 118.5 -23.5t97.5 -70.5t65.5 -116t23.5 -155t-25.5 -155.5t-69.5 -118.5t-102.5 -74.5t-121.5 -25.5q-41 0 -75 7t-62.5 22.5t-50 40t-38.5 57.5h-6q2 -35 4 -69t3 -61.5t1 -49v-48.5v-200h-164z
M270 352q0 -55 14.5 -99t39 -75t59.5 -47t76 -16q39 0 72.5 17.5t59 49t39 76.5t13.5 100q0 53 -13.5 97.5t-38 74t-58 45t-74.5 15.5q-39 0 -74 -15.5t-59.5 -45t-39 -72.5t-16.5 -95v-10z" />
    <glyph glyph-name="q.dnom" horiz-adv-x="878" 
d="M66 346q0 86 25.5 156.5t70.5 120t102.5 75t120.5 25.5q41 0 75 -7t62.5 -23.5t51 -41t36.5 -57.5h6v111h156v-1022h-164v200v48.5t1 49t3 61.5t4 69h-6q-14 -33 -38.5 -57.5t-55.5 -40t-66.5 -22.5t-76.5 -7q-63 0 -118.5 23.5t-98.5 70.5t-66.5 114.5t-23.5 153.5z
M236 346q0 -55 13 -98t38.5 -73t59.5 -45t75 -15q39 0 72.5 15t58.5 45t39 72t16 93v12q0 55 -13 99.5t-39 75t-59.5 47t-74.5 16.5t-75 -17.5t-59.5 -49t-38.5 -77t-13 -100.5z" />
    <glyph glyph-name="r.dnom" horiz-adv-x="559" 
d="M106 0v705h156v-134h6q12 33 29.5 60.5t40 48t51.5 32t64 11.5q12 0 23 -1t23.5 -5t26 -10.5t25.5 -14.5l-39 -147q-12 6 -22.5 10t-21.5 7t-21.5 4t-20.5 1q-39 0 -68.5 -18.5t-49 -51t-29 -76.5t-9.5 -93v-328h-164z" />
    <glyph glyph-name="s.dnom" horiz-adv-x="759" 
d="M66 215h155q2 -31 15.5 -52.5t35 -35.5t50 -21.5t61.5 -7.5t60.5 6.5t47 17.5t29.5 28.5t10 37.5t-8 35t-22.5 25t-35 16t-48.5 12l-140 29q-43 8 -78.5 23.5t-61 39t-40 57.5t-14.5 81q0 51 22.5 92t62.5 68.5t95 42t121 14.5q63 0 115.5 -13.5t92.5 -40t63.5 -68.5
t27.5 -97h-156q-2 27 -13 47t-30.5 32.5t-43 17.5t-52.5 5q-33 0 -59.5 -5t-45 -16.5t-28.5 -26.5t-10 -36q0 -18 7 -32.5t20.5 -23.5t34 -16.5t50.5 -13.5l140 -28q43 -8 76.5 -21.5t61.5 -36t44 -57.5t16 -84q0 -55 -23.5 -97t-65.5 -71t-99 -43t-125 -14t-124 13t-97 41
t-65.5 73t-28.5 104z" />
    <glyph glyph-name="t.dnom" horiz-adv-x="509" 
d="M16 573v132h127v213h164v-213h170v-132h-170v-329q0 -29 4 -48.5t14.5 -31.5t28 -18.5t43.5 -6.5h80v-139h-98q-66 0 -111 13.5t-72.5 41t-40 71.5t-12.5 107v340h-127z" />
    <glyph glyph-name="u.dnom" horiz-adv-x="843" 
d="M98 260v445h164v-406q0 -49 10.5 -85t28.5 -56.5t45 -30.5t62 -10t64.5 14t53 43t35.5 71t12 95v365h164v-705h-155v106h-7q-14 -33 -36.5 -56t-50 -37.5t-60.5 -21.5t-74 -7q-53 0 -99 15t-82 48t-55.5 86t-19.5 127z" />
    <glyph glyph-name="v.dnom" horiz-adv-x="731" 
d="M8 705h185l180 -539l182 539h168l-256 -705h-193z" />
    <glyph glyph-name="w.dnom" horiz-adv-x="1099" 
d="M8 705h166l148 -541l143 541h174l143 -543l150 543h160l-215 -705h-185l-143 528l-146 -528h-184z" />
    <glyph glyph-name="x.dnom" horiz-adv-x="690" 
d="M8 0l250 352l-246 353h189l147 -222l150 222h180l-248 -347l252 -358h-186l-154 229l-156 -229h-178z" />
    <glyph glyph-name="y.dnom" horiz-adv-x="731" 
d="M8 705h185l180 -537l182 537h168l-287 -799q-16 -45 -39.5 -84t-57.5 -71t-79 -50t-100 -18h-80v137h45q31 0 56.5 7t47 21.5t38 37t28.5 55.5z" />
    <glyph glyph-name="z.dnom" horiz-adv-x="679" 
d="M49 573v132h576v-103l-363 -471h369v-131h-580v94l367 479h-369z" />
    <glyph glyph-name="zero.dnom" 
d="M57 352q0 78 18.5 145.5t55.5 118t94.5 78t134.5 27.5q78 0 135.5 -27.5t95.5 -78t55.5 -118t17.5 -145.5t-17.5 -145.5t-55.5 -117.5t-95.5 -77.5t-135.5 -27.5t-135 27.5t-94 77.5t-55.5 117.5t-18.5 145.5zM213 352q0 -59 10 -105t28.5 -77t46.5 -47.5t62 -16.5
q37 0 65 16.5t46 47.5t27.5 77t9.5 105t-9.5 105.5t-27.5 78t-46 47t-65 15.5t-64.5 -16.5t-46 -47t-27.5 -76.5t-9 -106z" />
    <glyph glyph-name="one.dnom" 
d="M82 532l287 173h98v-574h188v-131h-549v131h205v385l-164 -94z" />
    <glyph glyph-name="two.dnom" 
d="M66 0q0 76 19 133t52 96t71 66t87 51l49 25q31 16 56.5 30.5t44 31t28.5 32.5t10 35q0 23 -7 41t-22.5 30.5t-39 19.5t-54.5 7t-55 -8t-42.5 -25.5t-29 -42t-12.5 -55.5h-147q2 68 25.5 116t63.5 78.5t90 45t107 14.5q61 0 112.5 -14.5t88.5 -42t57.5 -68.5t20.5 -92
q0 -47 -19.5 -84t-51 -64.5t-67.5 -48t-91 -47.5l-50 -24q-23 -10 -43 -24.5t-36.5 -29t-25.5 -28t-9 -23.5h393v-131h-573z" />
    <glyph glyph-name="three.dnom" 
d="M70 213h147q0 -27 10.5 -48.5t29.5 -36.5t46 -22.5t57 -7.5q31 0 57.5 6.5t46 19.5t30 33.5t10.5 47.5t-10.5 47t-30 33.5t-46 19.5t-57.5 6h-57v107h57q29 0 52.5 6t40 18.5t25.5 29.5t9 40t-9 40t-25.5 29.5t-40 18.5t-52.5 6t-52 -7t-39.5 -21.5t-26 -34t-9.5 -43.5
h-147q0 53 19.5 94t57.5 69.5t90 43t116 14.5q61 0 110 -14.5t85 -41t55.5 -62.5t19.5 -79q0 -29 -7 -53.5t-22.5 -46t-37 -35.5t-48.5 -20v-7q31 -6 56.5 -21t44 -38.5t29 -52.5t10.5 -62q0 -49 -20.5 -87t-60.5 -64.5t-96.5 -39.5t-126.5 -13q-66 0 -119 13t-91.5 39.5
t-59 71t-20.5 105.5z" />
    <glyph glyph-name="four.dnom" 
d="M49 131v98l385 476h131v-451h99v-123h-99v-131h-155v131h-361zM219 254h191v240z" />
    <glyph glyph-name="five.dnom" 
d="M98 188h152q4 -16 13 -32.5t24.5 -29.5t37 -20.5t48.5 -7.5q25 0 48 8.5t40.5 23.5t28 40t10.5 55q0 31 -10.5 53.5t-28 37t-41 21.5t-47.5 7q-18 0 -37 -4t-33 -12.5t-26.5 -20.5t-20.5 -28l-150 8l25 418h483v-132h-344l-16 -172h8q10 12 23.5 22.5t32 19t40 12.5
t43.5 4q57 0 103.5 -13.5t80 -41t52 -72.5t18.5 -107q0 -57 -22.5 -103t-61.5 -77t-89 -46t-105 -15q-70 0 -121 15t-85 43t-51.5 64.5t-21.5 81.5z" />
    <glyph glyph-name="six.dnom" 
d="M74 336q0 104 22.5 179t63.5 120t95 65.5t122 20.5q63 0 109 -15.5t78 -43t47.5 -64.5t19.5 -82h-156q0 18 -7 34.5t-20.5 29t-31 19.5t-39.5 7q-31 0 -55.5 -10t-44 -34.5t-33 -67.5t-15.5 -109q10 14 27.5 28.5t41.5 23.5t50.5 15.5t52.5 6.5q53 0 98.5 -13.5t78 -41
t51 -72.5t18.5 -107q0 -57 -22.5 -103t-61.5 -77t-89 -46t-105 -15q-68 0 -121 18t-92 60t-60.5 110t-21.5 164zM238 225q0 -31 10 -55.5t27.5 -39.5t41 -23.5t48.5 -8.5t48 8.5t40.5 23.5t28 40t10.5 55q0 31 -10.5 53.5t-28 37t-41 21.5t-47.5 7q-25 0 -48.5 -7t-41 -21.5
t-27.5 -37t-10 -53.5z" />
    <glyph glyph-name="seven.dnom" 
d="M66 565v140h589v-99l-327 -606h-172l311 565h-401z" />
    <glyph glyph-name="eight.dnom" 
d="M57 188q0 33 10.5 62t29 51.5t44 37.5t56.5 21v9q-27 6 -48.5 20t-37 35.5t-22.5 46.5t-7 53q0 43 19.5 79t55.5 62.5t88 41t115 14.5t115.5 -14.5t88.5 -41t55.5 -62.5t19.5 -79q0 -29 -7 -53.5t-22.5 -46t-37 -35.5t-48.5 -20v-9q31 -6 56.5 -21t44 -37.5t29 -51.5
t10.5 -62q0 -49 -20.5 -87t-60.5 -64.5t-96.5 -39.5t-126.5 -13t-126 13t-96 39.5t-60.5 64.5t-20.5 87zM217 205q0 -27 10.5 -47.5t29.5 -33.5t46 -19.5t57 -6.5q31 0 57.5 6.5t46 19.5t30 33.5t10.5 47.5t-10.5 47t-30 33.5t-46 19.5t-57.5 6t-57.5 -6t-45.5 -19.5
t-29.5 -34t-10.5 -46.5zM233 512q0 -23 9.5 -40t26 -29.5t40 -18.5t51.5 -6q29 0 52.5 6t40 18.5t25.5 29.5t9 40t-9 40t-25.5 29.5t-40 18.5t-52.5 6t-52 -6t-39.5 -18.5t-26 -29.5t-9.5 -40z" />
    <glyph glyph-name="nine.dnom" 
d="M66 471q0 57 21.5 104.5t60 80t89 49t107.5 16.5q68 0 121 -18.5t92 -60.5t60.5 -109.5t21.5 -163.5q0 -104 -20.5 -179t-57.5 -120t-89 -65.5t-120 -20.5q-63 0 -112.5 15t-83 43t-52 65.5t-22.5 80.5h156q0 -18 9 -34.5t25.5 -28.5t37 -19.5t42.5 -7.5q29 0 51.5 10.5
t40 35t27.5 67.5t12 106q-6 -14 -22.5 -27.5t-39 -23.5t-48 -15t-51.5 -5q-57 0 -103.5 14t-81.5 42t-53 71t-18 98zM221 479q0 -31 10.5 -53.5t27.5 -36.5t41 -21.5t48 -7.5q25 0 47.5 6.5t41 20.5t28.5 38t10 54q0 31 -10 55.5t-27.5 40t-41 23.5t-48.5 8t-48.5 -8
t-40.5 -23.5t-27.5 -40t-10.5 -55.5z" />
    <glyph glyph-name="dollar.dnom" 
d="M57 205h148q2 -23 14 -42.5t32.5 -33.5t48.5 -22.5t60 -8.5q35 0 62 6.5t44 18.5t25.5 29.5t8.5 40.5t-10.5 38t-30 25t-43 17.5t-56.5 13.5l-41 8q-55 10 -95 22.5t-74.5 34t-55 58t-20.5 90.5q0 43 15 79.5t44 64.5t70 46.5t92 24.5v112h131v-112q45 -6 83 -22.5
t66.5 -42t45 -57.5t18.5 -69h-156q-4 20 -15 35.5t-27.5 26t-37 15.5t-43.5 5q-27 0 -50 -5t-41.5 -16.5t-29 -28.5t-10.5 -40t12.5 -39t33 -26.5t47 -17.5t63.5 -15l41 -8q49 -10 88 -23.5t70.5 -36t51 -58.5t19.5 -87q0 -45 -15 -83t-45 -65.5t-72 -45t-97 -23.5v-127
h-131v127q-55 6 -98 24.5t-74 46t-48.5 64.5t-17.5 82z" />
    <glyph glyph-name="cent.dnom" 
d="M74 352q0 51 15 96.5t45 80t75 58t102 31.5v103h131v-105q47 -8 84 -26.5t62.5 -44t40 -56t18.5 -63.5h-155q-4 14 -12.5 27.5t-22 24.5t-34 18.5t-46.5 7.5q-33 0 -59.5 -11.5t-44 -31t-26.5 -47t-9 -62.5t9 -62.5t26.5 -47t44 -30.5t59.5 -11q27 0 47 7t33.5 18.5
t21.5 24.5t13 28h155q-4 -33 -18.5 -64t-40 -57.5t-62.5 -45t-84 -26.5v-102h-131v102q-57 8 -102 31.5t-75 58.5t-45 80t-15 96z" />
    <glyph glyph-name="Euro.dnom" 
d="M25 254l16 65h65v66h-57l17 66h49q10 59 33.5 108t61.5 86t90 56.5t118 19.5q59 0 106 -16.5t80 -47t53.5 -70.5t30.5 -87h-156q-6 20 -15 37.5t-23.5 32t-33 21.5t-42.5 7q-29 0 -53.5 -9t-42 -28.5t-28.5 -47.5t-18 -62h216l-17 -66h-205v-66h181l-17 -65h-158
q6 -37 17.5 -64.5t29 -46t41 -28t54.5 -9.5q23 0 41 6.5t32.5 18.5t24.5 28.5t16 37.5h156q-10 -47 -31.5 -86t-55.5 -68t-79 -44t-104 -15q-68 0 -121 19.5t-91 55t-60.5 85t-32.5 110.5h-88z" />
    <glyph glyph-name="plus.dnom" 
d="M90 295v123h205v205h131v-205h205v-123h-205v-205h-131v205h-205z" />
    <glyph glyph-name="equal.dnom" 
d="M90 172v123h541v-123h-541zM90 418v123h541v-123h-541z" />
    <glyph glyph-name="comma.dnom" horiz-adv-x="376" 
d="M98 0v188h181v-180l-58 -237h-90l45 229h-78z" />
    <glyph glyph-name="period.dnom" horiz-adv-x="376" 
d="M98 0v188h181v-188h-181z" />
    <glyph glyph-name="hyphen.dnom" horiz-adv-x="565" 
d="M74 287v139h418v-139h-418z" />
    <glyph glyph-name="parenleft.dnom" horiz-adv-x="450" 
d="M123 352q0 76 14.5 151t38 140.5t52 118.5t59.5 90h147q-27 -35 -55.5 -87t-53 -118.5t-40 -142.5t-15.5 -152t15.5 -151.5t40 -142t53.5 -119t55 -86.5h-147q-31 37 -59.5 90t-52 118.5t-38 140t-14.5 150.5z" />
    <glyph glyph-name="parenright.dnom" horiz-adv-x="450" 
d="M16 -147q27 35 55.5 87t53.5 118.5t40 142t15 151.5t-15 152t-40 142.5t-53.5 118.5t-55.5 87h148q31 -37 59.5 -90t52 -118.5t38 -140.5t14.5 -151t-14.5 -150.5t-38 -140t-52 -119t-59.5 -89.5h-148z" />
    <glyph glyph-name="a.numr" horiz-adv-x="794" 
d="M74 889q0 43 14 79t43 63.5t73 46t105 26.5l133 16q29 4 46.5 8.5t26.5 10.5t13 16t4 25q0 27 -8 49t-23.5 39.5t-41 27t-58.5 9.5q-31 0 -55 -7.5t-42.5 -22.5t-30 -38t-13.5 -53h-154q4 63 29 109t65 76t91 43t110 13q70 0 124.5 -15t93 -47t58 -79t19.5 -110v-469
h-157v83h-7q-14 -25 -35.5 -43t-49 -31.5t-61.5 -19.5t-77 -6q-55 0 -99 14.5t-75 41t-46 63.5t-15 82zM238 901q0 -23 8 -41t22.5 -30.5t37 -19.5t48.5 -7q37 0 69 11t56.5 34.5t38.5 58.5t14 82v62q-4 -6 -11 -12.5t-16 -10.5t-19.5 -6t-22.5 -4l-115 -14
q-29 -4 -50.5 -13.5t-34.5 -23t-19 -29.5t-6 -37z" />
    <glyph glyph-name="b.numr" horiz-adv-x="878" 
d="M106 705v1056h164v-225v-49.5t-1 -53t-3 -65.5l-4 -70h6q16 33 40 57.5t54.5 41t67.5 23.5t78 7q63 0 118.5 -23.5t97.5 -70.5t65.5 -115.5t23.5 -154.5t-25.5 -155.5t-69.5 -119t-102.5 -75t-121.5 -25.5q-41 0 -75 7t-62.5 22.5t-50 40t-38.5 57.5h-6v-110h-156z
M270 1057q0 -55 14.5 -99.5t39 -75t59.5 -47t76 -16.5q39 0 72.5 17.5t59 49.5t39 77t13.5 100q0 53 -13.5 97t-38 74t-58 45t-74.5 15q-39 0 -74 -15t-59.5 -45t-39 -73t-16.5 -94v-10z" />
    <glyph glyph-name="c.numr" horiz-adv-x="798" 
d="M66 1057q0 78 24.5 145.5t71.5 118.5t113.5 78.5t148.5 27.5q72 0 129 -19t98 -55t63.5 -83t26.5 -103h-161q-4 25 -15.5 48.5t-31 41t-47 27.5t-62.5 10q-45 0 -80 -18.5t-59.5 -51t-36.5 -75.5t-12 -92t12 -93t35.5 -76t56.5 -50.5t76 -18.5q37 0 66.5 10.5t49 29
t31.5 41t17 46.5h161q-4 -55 -28.5 -102t-66.5 -82t-101.5 -54.5t-128.5 -19.5q-82 0 -147.5 27.5t-110.5 77t-68.5 117t-23.5 147.5z" />
    <glyph glyph-name="d.numr" horiz-adv-x="876" 
d="M66 1051q0 86 25.5 156.5t70.5 119.5t102.5 74.5t120.5 25.5q43 0 78 -7t61.5 -23.5t48 -40t37.5 -58.5h6q-2 35 -4 69t-3 61.5t-1 49v48.5v235h164v-1056h-156v110h-6q-16 -33 -39.5 -57.5t-54.5 -40t-66.5 -22.5t-76.5 -7q-63 0 -118.5 23.5t-98.5 70.5t-66.5 115
t-23.5 154zM236 1051q0 -55 13 -98.5t38.5 -73t59.5 -45t75 -15.5q39 0 71.5 15.5t58.5 45t40 71.5t16 93v13q0 53 -14 98t-39 76t-59.5 47t-73.5 16q-41 0 -75 -17t-59.5 -49t-38.5 -77t-13 -100z" />
    <glyph glyph-name="e.numr" horiz-adv-x="815" 
d="M66 1057q0 82 25.5 149.5t73.5 116.5t112.5 75.5t140.5 26.5q74 0 135 -23.5t105 -68.5t68 -109.5t24 -144.5v-49h-517q2 -53 17.5 -93t40 -65.5t58.5 -39t75 -13.5q35 0 62.5 7.5t47 21.5t30.5 31.5t18 38.5h151q-8 -49 -32.5 -90.5t-64.5 -72t-94.5 -48t-119.5 -17.5
q-82 0 -147.5 24.5t-112.5 72t-71.5 116t-24.5 154.5zM242 1139h336q-4 39 -17.5 67.5t-33 49t-47 30.5t-62.5 10q-37 0 -65.5 -10t-51 -29.5t-37 -49t-22.5 -68.5z" />
    <glyph glyph-name="f.numr" horiz-adv-x="499" 
d="M16 1278v131h138v98q0 66 14 114t45 79t79 46t114 15h102v-135h-78q-33 0 -54.5 -7t-33.5 -21.5t-18.5 -38t-6.5 -56.5v-94h166v-131h-166v-573h-163v573h-138z" />
    <glyph glyph-name="g.numr" horiz-adv-x="878" 
d="M66 1051q0 86 25.5 156.5t70.5 119.5t102.5 74.5t120.5 25.5q41 0 75 -7t62.5 -23.5t50 -41t37.5 -57.5h6v111h156v-672q0 -98 -26.5 -168.5t-73.5 -112.5t-112.5 -61.5t-147.5 -19.5q-72 0 -131.5 15.5t-102.5 46t-67.5 76.5t-26.5 105h156q0 -29 13 -51t35.5 -37.5
t54.5 -22.5t69 -7q47 0 85 13t64.5 43t40.5 76t14 109v74h-6q-16 -33 -39.5 -57.5t-54.5 -40t-66.5 -22.5t-76.5 -7q-63 0 -118.5 23.5t-98.5 70.5t-66.5 115t-23.5 154zM236 1051q0 -55 13 -98.5t38.5 -73t59.5 -45t75 -15.5q39 0 73.5 16.5t59.5 47t39 76t14 98.5v10
q-2 51 -16 94t-40 73t-58.5 45t-71.5 15q-41 0 -75 -17t-59.5 -49t-38.5 -77t-13 -100z" />
    <glyph glyph-name="h.numr" horiz-adv-x="843" 
d="M106 705v1056h164v-221v-49.5t-1 -53t-3 -65.5t-4 -69h6q14 33 37 56t50.5 38.5t61.5 22.5t72 7q53 0 99.5 -15t82.5 -49t55 -87t19 -127v-444h-163v405q0 49 -10.5 85t-29 56.5t-45 30.5t-61.5 10t-65.5 -14t-53 -43t-35 -70t-12.5 -92v-368h-164z" />
    <glyph glyph-name="i.numr" horiz-adv-x="360" 
d="M92 1595v166h176v-166h-176zM98 705v704h164v-704h-164z" />
    <glyph glyph-name="j.numr" horiz-adv-x="360" 
d="M-25 387v135h41q23 0 39.5 6.5t25.5 19.5t13 32.5t4 46.5v782h164v-797q0 -55 -11 -96t-38 -69.5t-71 -44t-107 -15.5h-60zM92 1595v166h176v-166h-176z" />
    <glyph glyph-name="k.numr" horiz-adv-x="770" 
d="M106 705v1056h164v-655l277 303h188l-262 -281l289 -423h-191l-206 307l-95 -103v-204h-164z" />
    <glyph glyph-name="l.numr" horiz-adv-x="376" 
d="M106 705v1056h164v-1056h-164z" />
    <glyph glyph-name="m.numr" horiz-adv-x="1280" 
d="M106 705v704h156v-106h6q14 33 36 56t48.5 38.5t59 22.5t71.5 7q35 0 69 -8t62.5 -25.5t51 -45t36.5 -64.5q18 39 41 66.5t52.5 45t65.5 24.5t79 7q49 0 92 -14t77 -46t53.5 -83t19.5 -123v-456h-164v419q0 45 -8.5 78t-24.5 52.5t-40.5 28.5t-57.5 9q-35 0 -63.5 -14
t-51 -41t-35 -68t-12.5 -92v-372h-162v415q0 45 -8 78t-25.5 53.5t-42 30.5t-57.5 10t-61.5 -14t-51 -41t-35 -67t-12.5 -91v-374h-164z" />
    <glyph glyph-name="n.numr" horiz-adv-x="843" 
d="M106 705v704h156v-106h6q14 33 37 56t50.5 38.5t61.5 22.5t72 7q53 0 99.5 -15t82.5 -49t55 -87t19 -127v-444h-163v405q0 49 -10.5 85t-29 56.5t-45 30.5t-61.5 10t-65.5 -14t-53 -43t-35 -70t-12.5 -92v-368h-164z" />
    <glyph glyph-name="o.numr" horiz-adv-x="854" 
d="M66 1057q0 84 25.5 152.5t73.5 117.5t114.5 74.5t146.5 25.5q82 0 149.5 -25.5t115.5 -74.5t72.5 -117.5t24.5 -152.5t-25.5 -151.5t-74.5 -117t-115.5 -75t-146.5 -25.5q-82 0 -148.5 25.5t-114.5 74t-72.5 117t-24.5 152.5zM236 1057q0 -53 13 -96t38.5 -75t60.5 -49.5
t78 -17.5t79 17.5t61.5 49.5t38.5 75t13 96t-13 97t-38.5 76t-61.5 48t-79 16t-78 -16t-60.5 -48t-38.5 -76t-13 -97z" />
    <glyph glyph-name="p.numr" horiz-adv-x="878" 
d="M106 387v1022h156v-111h6q16 33 40 57.5t54.5 41t67.5 23.5t78 7q63 0 118.5 -23.5t97.5 -70.5t65.5 -115.5t23.5 -154.5t-25.5 -155.5t-69.5 -119t-102.5 -75t-121.5 -25.5q-41 0 -75 7t-62.5 22.5t-50 40t-38.5 57.5h-6q2 -35 4 -68.5t3 -61.5t1 -49.5v-47.5v-201h-164
zM270 1057q0 -55 14.5 -99.5t39 -75t59.5 -47t76 -16.5q39 0 72.5 17.5t59 49.5t39 77t13.5 100q0 53 -13.5 97t-38 74t-58 45t-74.5 15q-39 0 -74 -15t-59.5 -45t-39 -73t-16.5 -94v-10z" />
    <glyph glyph-name="q.numr" horiz-adv-x="878" 
d="M66 1051q0 86 25.5 156.5t70.5 119.5t102.5 74.5t120.5 25.5q41 0 75 -7t62.5 -23.5t51 -41t36.5 -57.5h6v111h156v-1022h-164v201v48t1 49t3 61.5t4 68.5h-6q-14 -33 -38.5 -57.5t-55.5 -40t-66.5 -22.5t-76.5 -7q-63 0 -118.5 23.5t-98.5 70.5t-66.5 115t-23.5 154z
M236 1051q0 -55 13 -98.5t38.5 -73t59.5 -45t75 -15.5q39 0 72.5 15.5t58.5 45t39 71.5t16 93v13q0 55 -13 99t-39 75t-59.5 47t-74.5 16t-75 -17t-59.5 -49t-38.5 -77t-13 -100z" />
    <glyph glyph-name="r.numr" horiz-adv-x="559" 
d="M106 705v704h156v-133h6q12 33 29.5 60.5t40 48t51.5 31.5t64 11q12 0 23 -1t23.5 -5t26 -10t25.5 -14l-39 -148q-12 6 -22.5 10.5t-21.5 7.5t-21.5 4t-20.5 1q-39 0 -68.5 -18.5t-49 -51.5t-29 -77t-9.5 -93v-327h-164z" />
    <glyph glyph-name="s.numr" horiz-adv-x="759" 
d="M66 920h155q2 -31 15.5 -52.5t35 -36t50 -21.5t61.5 -7t60.5 6t47 17.5t29.5 28.5t10 38q0 20 -8 34.5t-22.5 25t-35 16.5t-48.5 12l-140 29q-43 8 -78.5 23.5t-61 39t-40 57t-14.5 80.5q0 51 22.5 92t62.5 69t95 42t121 14q63 0 115.5 -13t92.5 -39.5t63.5 -68.5
t27.5 -98h-156q-2 27 -13 47.5t-30.5 32.5t-43 17.5t-52.5 5.5q-33 0 -59.5 -5.5t-45 -16.5t-28.5 -26.5t-10 -35.5q0 -18 7 -32.5t20.5 -24t34 -16.5t50.5 -13l140 -29q43 -8 76.5 -21.5t61.5 -36t44 -57t16 -84.5q0 -55 -23.5 -97t-65.5 -70.5t-99 -43t-125 -14.5
t-124 13.5t-97 41t-65.5 72.5t-28.5 105z" />
    <glyph glyph-name="t.numr" horiz-adv-x="509" 
d="M16 1278v131h127v213h164v-213h170v-131h-170v-330q0 -29 4 -48t14.5 -31.5t28 -18.5t43.5 -6h80v-139h-98q-66 0 -111 13t-72.5 40.5t-40 71.5t-12.5 108v340h-127z" />
    <glyph glyph-name="u.numr" horiz-adv-x="843" 
d="M98 965v444h164v-405q0 -49 10.5 -85t28.5 -56.5t45 -31t62 -10.5t64.5 14.5t53 43t35.5 70.5t12 95v365h164v-704h-155v106h-7q-14 -33 -36.5 -56.5t-50 -38t-60.5 -21.5t-74 -7q-53 0 -99 15.5t-82 48t-55.5 86t-19.5 127.5z" />
    <glyph glyph-name="v.numr" horiz-adv-x="731" 
d="M8 1409h185l180 -539l182 539h168l-256 -704h-193z" />
    <glyph glyph-name="w.numr" horiz-adv-x="1099" 
d="M8 1409h166l148 -541l143 541h174l143 -543l150 543h160l-215 -704h-185l-143 528l-146 -528h-184z" />
    <glyph glyph-name="x.numr" horiz-adv-x="690" 
d="M8 705l250 352l-246 352h189l147 -221l150 221h180l-248 -346l252 -358h-186l-154 229l-156 -229h-178z" />
    <glyph glyph-name="y.numr" horiz-adv-x="731" 
d="M8 1409h185l180 -537l182 537h168l-287 -799q-16 -45 -39.5 -84t-57.5 -70.5t-79 -50t-100 -18.5h-80v137h45q31 0 56.5 7.5t47 21.5t38 36.5t28.5 55.5z" />
    <glyph glyph-name="z.numr" horiz-adv-x="679" 
d="M49 1278v131h576v-102l-363 -471h369v-131h-580v94l367 479h-369z" />
    <glyph glyph-name="zero.frac" 
d="M57 1057q0 78 18.5 145.5t55.5 117.5t94.5 77.5t134.5 27.5q78 0 135.5 -27.5t95.5 -77.5t55.5 -117.5t17.5 -145.5t-17.5 -145.5t-55.5 -118t-95.5 -78t-135.5 -27.5t-135 27.5t-94 78t-55.5 118t-18.5 145.5zM213 1057q0 -59 10 -105.5t28.5 -77t46.5 -47t62 -16.5
q37 0 65 16.5t46 47t27.5 76.5t9.5 106q0 59 -9.5 105t-27.5 78t-46 47.5t-65 15.5t-64.5 -16.5t-46 -47.5t-27.5 -77t-9 -105z" />
    <glyph glyph-name="one.frac" 
d="M82 1237l287 172h98v-573h188v-131h-549v131h205v385l-164 -95z" />
    <glyph glyph-name="two.frac" 
d="M66 705q0 76 19 133t52 96t71 65.5t87 51.5l49 24q31 16 56.5 30.5t44 31t28.5 33t10 34.5q0 23 -7 41.5t-22.5 30.5t-39 19.5t-54.5 7.5t-55 -8.5t-42.5 -26t-29 -42t-12.5 -55.5h-147q2 68 25.5 116t63.5 79t90 45t107 14q61 0 112.5 -14t88.5 -42t57.5 -68.5
t20.5 -92.5q0 -47 -19.5 -84t-51 -64.5t-67.5 -48t-91 -46.5l-50 -25q-23 -10 -43 -24.5t-36.5 -29t-25.5 -27.5t-9 -23h393v-131h-573z" />
    <glyph glyph-name="three.frac" 
d="M70 918h147q0 -27 10.5 -48.5t29.5 -37t46 -22.5t57 -7q31 0 57.5 6t46 19.5t30 34t10.5 46.5q0 27 -10.5 47.5t-30 34t-46 19.5t-57.5 6h-57v106h57q29 0 52.5 6.5t40 18.5t25.5 29.5t9 40.5t-9 40t-25.5 29t-40 18.5t-52.5 6.5t-52 -7.5t-39.5 -21.5t-26 -33.5
t-9.5 -44.5h-147q0 53 19.5 94t57.5 70t90 43t116 14q61 0 110 -14t85 -41t55.5 -62.5t19.5 -78.5q0 -29 -7 -53.5t-22.5 -46t-37 -36t-48.5 -20.5v-6q31 -6 56.5 -21.5t44 -39t29 -52t10.5 -61.5q0 -49 -20.5 -87t-60.5 -64.5t-96.5 -40t-126.5 -13.5q-66 0 -119 13.5
t-91.5 40t-59 70.5t-20.5 106z" />
    <glyph glyph-name="four.frac" 
d="M49 836v98l385 475h131v-451h99v-122h-99v-131h-155v131h-361zM219 958h191v240z" />
    <glyph glyph-name="five.frac" 
d="M98 893h152q4 -16 13 -32.5t24.5 -30t37 -20.5t48.5 -7q25 0 48 8t40.5 23.5t28 40t10.5 55.5t-10.5 53.5t-28 36.5t-41 21.5t-47.5 7.5q-18 0 -37 -4.5t-33 -12.5t-26.5 -20.5t-20.5 -28.5l-150 8l25 418h483v-131h-344l-16 -172h8q10 12 23.5 22.5t32 18.5t40 12
t43.5 4q57 0 103.5 -13t80 -41t52 -73t18.5 -106q0 -57 -22.5 -103.5t-61.5 -77t-89 -46t-105 -15.5q-70 0 -121 15.5t-85 43t-51.5 64.5t-21.5 82z" />
    <glyph glyph-name="six.frac" 
d="M74 1040q0 104 22.5 179t63.5 120t95 65.5t122 20.5q63 0 109 -15t78 -43t47.5 -64.5t19.5 -81.5h-156q0 18 -7 34.5t-20.5 28.5t-31 19.5t-39.5 7.5q-31 0 -55.5 -10.5t-44 -35t-33 -67.5t-15.5 -108q10 14 27.5 28.5t41.5 23.5t50.5 15t52.5 6q53 0 98.5 -13t78 -41
t51 -73t18.5 -106q0 -57 -22.5 -103.5t-61.5 -77t-89 -46t-105 -15.5q-68 0 -121 18.5t-92 60.5t-60.5 109.5t-21.5 163.5zM238 930q0 -31 10 -55.5t27.5 -40t41 -23.5t48.5 -8t48 8t40.5 23.5t28 40t10.5 55.5t-10.5 53.5t-28 36.5t-41 21.5t-47.5 7.5q-25 0 -48.5 -7.5
t-41 -21.5t-27.5 -36.5t-10 -53.5z" />
    <glyph glyph-name="seven.frac" 
d="M66 1270v139h589v-98l-327 -606h-172l311 565h-401z" />
    <glyph glyph-name="eight.frac" 
d="M57 893q0 33 10.5 61.5t29 51t44 38t56.5 21.5v8q-27 6 -48.5 20.5t-37 36t-22.5 46t-7 53.5q0 43 19.5 78.5t55.5 62.5t88 41t115 14t115.5 -14t88.5 -41t55.5 -62.5t19.5 -78.5q0 -29 -7 -53.5t-22.5 -46t-37 -36t-48.5 -20.5v-8q31 -6 56.5 -21.5t44 -38t29 -51
t10.5 -61.5q0 -49 -20.5 -87t-60.5 -64.5t-96.5 -40t-126.5 -13.5t-126 13.5t-96 40t-60.5 64.5t-20.5 87zM217 909q0 -27 10.5 -47t29.5 -33.5t46 -19.5t57 -6q31 0 57.5 6t46 19.5t30 34t10.5 46.5q0 27 -10.5 47.5t-30 34t-46 19.5t-57.5 6t-57.5 -6t-45.5 -19.5
t-29.5 -34t-10.5 -47.5zM233 1217q0 -23 9.5 -40.5t26 -29.5t40 -18.5t51.5 -6.5q29 0 52.5 6.5t40 18.5t25.5 29.5t9 40.5t-9 40t-25.5 29t-40 18.5t-52.5 6.5t-52 -6.5t-39.5 -18.5t-26 -29.5t-9.5 -39.5z" />
    <glyph glyph-name="nine.frac" 
d="M66 1176q0 57 21.5 104t60 80t89 49t107.5 16q68 0 121 -18t92 -60t60.5 -110t21.5 -164q0 -104 -20.5 -179t-57.5 -120t-89 -65.5t-120 -20.5q-63 0 -112.5 15.5t-83 43t-52 65.5t-22.5 81h156q0 -18 9 -34.5t25.5 -29t37 -19.5t42.5 -7q29 0 51.5 10t40 34.5t27.5 67.5
t12 107q-6 -14 -22.5 -27.5t-39 -23.5t-48 -15.5t-51.5 -5.5q-57 0 -103.5 14.5t-81.5 42t-53 70.5t-18 99zM221 1184q0 -31 10.5 -53.5t27.5 -37t41 -21.5t48 -7q25 0 47.5 6t41 20.5t28.5 38t10 54.5t-10 55.5t-27.5 39.5t-41 23.5t-48.5 8.5t-48.5 -8.5t-40.5 -23.5
t-27.5 -40t-10.5 -55z" />
    <glyph glyph-name="dollar.frac" 
d="M57 909h148q2 -23 14 -42t32.5 -33.5t48.5 -22.5t60 -8q35 0 62 6t44 18.5t25.5 29.5t8.5 40t-10.5 38t-30 25.5t-43 17.5t-56.5 13l-41 8q-55 10 -95 22.5t-74.5 34t-55 58.5t-20.5 90q0 43 15 80t44 64.5t70 46t92 24.5v113h131v-113q45 -6 83 -22.5t66.5 -42t45 -57
t18.5 -68.5h-156q-4 20 -15 35.5t-27.5 25.5t-37 15.5t-43.5 5.5q-27 0 -50 -5.5t-41.5 -16.5t-29 -28.5t-10.5 -39.5q0 -23 12.5 -39.5t33 -26.5t47 -17.5t63.5 -15.5l41 -8q49 -10 88 -23.5t70.5 -36t51 -58t19.5 -87.5q0 -45 -15 -83t-45 -65.5t-72 -46t-97 -24.5v-125
h-131v127q-55 6 -98 24.5t-74 46.5t-48.5 64.5t-17.5 81.5z" />
    <glyph glyph-name="cent.frac" 
d="M74 1057q0 51 15 96t45 80t75 58.5t102 31.5v102h131v-104q47 -8 84 -26.5t62.5 -44t40 -56.5t18.5 -64h-155q-4 14 -12.5 27.5t-22 25t-34 18.5t-46.5 7q-33 0 -59.5 -11t-44 -30.5t-26.5 -47t-9 -62.5t9 -62.5t26.5 -47t44 -31t59.5 -11.5q27 0 47 7.5t33.5 18.5
t21.5 24.5t13 27.5h155q-4 -33 -18.5 -63.5t-40 -57t-62.5 -45t-84 -26.5v-103h-131v103q-57 8 -102 31.5t-75 58t-45 80t-15 96.5z" />
    <glyph glyph-name="Euro.frac" 
d="M25 958l16 66h65v66h-57l17 65h49q10 59 33.5 108.5t61.5 86t90 56t118 19.5q59 0 106 -16t80 -47t53.5 -71t30.5 -87h-156q-6 20 -15 38t-23.5 32t-33 21.5t-42.5 7.5q-29 0 -53.5 -9.5t-42 -29t-28.5 -47t-18 -62.5h216l-17 -65h-205v-66h181l-17 -66h-158
q6 -37 17.5 -64.5t29 -46t41 -27.5t54.5 -9q23 0 41 6t32.5 18.5t24.5 29t16 36.5h156q-10 -47 -31.5 -86t-55.5 -67.5t-79 -44t-104 -15.5q-68 0 -121 19.5t-91 55.5t-60.5 85t-32.5 110h-88z" />
    <glyph glyph-name="plus.frac" 
d="M90 999v123h205v205h131v-205h205v-123h-205v-204h-131v204h-205z" />
    <glyph glyph-name="equal.frac" 
d="M90 877v122h541v-122h-541zM90 1122v123h541v-123h-541z" />
    <glyph glyph-name="comma.frac" horiz-adv-x="376" 
d="M98 705v188h181v-180l-58 -238h-90l45 230h-78z" />
    <glyph glyph-name="period.frac" horiz-adv-x="376" 
d="M98 705v188h181v-188h-181z" />
    <glyph glyph-name="hyphen.frac" horiz-adv-x="565" 
d="M74 991v139h418v-139h-418z" />
    <glyph glyph-name="parenleft.frac" horiz-adv-x="450" 
d="M123 1057q0 76 14.5 150.5t38 140t52 119t59.5 89.5h147q-27 -35 -55.5 -87t-53 -118.5t-40 -142t-15.5 -151.5t15.5 -152t40 -142.5t53.5 -118.5t55 -87h-147q-31 37 -59.5 90t-52 118.5t-38 140.5t-14.5 151z" />
    <glyph glyph-name="parenright.frac" horiz-adv-x="450" 
d="M16 557q27 35 55.5 87t53.5 118.5t40 142.5t15 152t-15 151.5t-40 142t-53.5 119t-55.5 86.5h148q31 -37 59.5 -90t52 -118.5t38 -140t14.5 -150.5t-14.5 -151t-38 -140.5t-52 -118.5t-59.5 -90h-148z" />
    <glyph glyph-name="a.superior" horiz-adv-x="794" 
d="M74 1200q0 43 14 79t43 63.5t73 46t105 26.5l133 17q29 4 46.5 8t26.5 10t13 16.5t4 24.5q0 27 -8 49.5t-23.5 39.5t-41 26.5t-58.5 9.5q-31 0 -55 -7t-42.5 -22.5t-30 -38t-13.5 -53.5h-154q4 63 29 109.5t65 76t91 43t110 13.5q70 0 124.5 -15.5t93 -47.5t58 -79
t19.5 -110v-469h-157v84h-7q-14 -25 -35.5 -43.5t-49 -31.5t-61.5 -19.5t-77 -6.5q-55 0 -99 14.5t-75 41t-46 63.5t-15 82zM238 1212q0 -23 8 -41t22.5 -30.5t37 -19.5t48.5 -7q37 0 69 11.5t56.5 35t38.5 58t14 81.5v62q-4 -6 -11 -12.5t-16 -10.5t-19.5 -6t-22.5 -4
l-115 -14q-29 -4 -50.5 -13.5t-34.5 -22.5t-19 -29.5t-6 -37.5z" />
    <glyph glyph-name="b.superior" horiz-adv-x="878" 
d="M106 1016v1057h164v-226v-49t-1 -53t-3 -65.5t-4 -69.5h6q16 33 40 57.5t54.5 40.5t67.5 23.5t78 7.5q63 0 118.5 -23.5t97.5 -71t65.5 -116t23.5 -154.5t-25.5 -155.5t-69.5 -118.5t-102.5 -75t-121.5 -26q-41 0 -75 7.5t-62.5 22.5t-50 40t-38.5 57h-6v-110h-156z
M270 1368q0 -55 14.5 -99t39 -75t59.5 -47.5t76 -16.5q39 0 72.5 17.5t59 49.5t39 77t13.5 100q0 53 -13.5 97.5t-38 74t-58 45t-74.5 15.5q-39 0 -74 -15.5t-59.5 -45t-39 -72.5t-16.5 -95v-10z" />
    <glyph glyph-name="c.superior" horiz-adv-x="798" 
d="M66 1368q0 78 24.5 145.5t71.5 118.5t113.5 79t148.5 28q72 0 129 -19.5t98 -55.5t63.5 -83t26.5 -102h-161q-4 25 -15.5 48t-31 40.5t-47 28t-62.5 10.5q-45 0 -80 -18.5t-59.5 -51.5t-36.5 -76t-12 -92t12 -93t35.5 -76t56.5 -50.5t76 -18.5q37 0 66.5 10.5t49 29
t31.5 41t17 46.5h161q-4 -55 -28.5 -102t-66.5 -82t-101.5 -54.5t-128.5 -19.5q-82 0 -147.5 28t-110.5 77t-68.5 116.5t-23.5 147.5z" />
    <glyph glyph-name="d.superior" horiz-adv-x="876" 
d="M66 1362q0 86 25.5 156.5t70.5 120t102.5 75t120.5 25.5q43 0 78 -7.5t61.5 -23.5t48 -39.5t37.5 -58.5h6q-2 35 -4 68.5t-3 61t-1 49v48.5v236h164v-1057h-156v110h-6q-16 -33 -39.5 -57.5t-54.5 -39.5t-66.5 -22.5t-76.5 -7.5q-63 0 -118.5 24t-98.5 71t-66.5 114.5
t-23.5 153.5zM236 1362q0 -55 13 -98t38.5 -73t59.5 -45.5t75 -15.5q39 0 71.5 15.5t58.5 45.5t40 72t16 93v12q0 53 -14 98t-39 76t-59.5 47.5t-73.5 16.5q-41 0 -75 -17.5t-59.5 -49.5t-38.5 -77t-13 -100z" />
    <glyph glyph-name="e.superior" horiz-adv-x="815" 
d="M66 1368q0 82 25.5 149.5t73.5 116.5t112.5 76t140.5 27q74 0 135 -23.5t105 -69t68 -110t24 -143.5v-50h-517q2 -53 17.5 -93t40 -65.5t58.5 -39t75 -13.5q35 0 62.5 7.5t47 22t30.5 31.5t18 38h151q-8 -49 -32.5 -90t-64.5 -72t-94.5 -48.5t-119.5 -17.5
q-82 0 -147.5 25t-112.5 72t-71.5 115.5t-24.5 154.5zM242 1450h336q-4 39 -17.5 67.5t-33 49t-47 31t-62.5 10.5q-37 0 -65.5 -10.5t-51 -30t-37 -49t-22.5 -68.5z" />
    <glyph glyph-name="f.superior" horiz-adv-x="499" 
d="M16 1589v131h138v99q0 66 14 113.5t45 78.5t79 46.5t114 15.5h102v-136h-78q-33 0 -54.5 -7t-33.5 -21.5t-18.5 -38t-6.5 -55.5v-95h166v-131h-166v-573h-163v573h-138z" />
    <glyph glyph-name="g.superior" horiz-adv-x="878" 
d="M66 1362q0 86 25.5 156.5t70.5 120t102.5 75t120.5 25.5q41 0 75 -7.5t62.5 -23.5t50 -41t37.5 -57h6v110h156v-671q0 -98 -26.5 -169t-73.5 -113t-112.5 -61.5t-147.5 -19.5q-72 0 -131.5 15.5t-102.5 46t-67.5 76.5t-26.5 106h156q0 -29 13 -51.5t35.5 -38t54.5 -22.5
t69 -7q47 0 85 13.5t64.5 43t40.5 75.5t14 110v73h-6q-16 -33 -39.5 -57.5t-54.5 -39.5t-66.5 -22.5t-76.5 -7.5q-63 0 -118.5 24t-98.5 71t-66.5 114.5t-23.5 153.5zM236 1362q0 -55 13 -98t38.5 -73t59.5 -45.5t75 -15.5q39 0 73.5 16.5t59.5 47.5t39 76t14 98v10
q-2 51 -16 94.5t-40 73t-58.5 45t-71.5 15.5q-41 0 -75 -17.5t-59.5 -49.5t-38.5 -77t-13 -100z" />
    <glyph glyph-name="h.superior" horiz-adv-x="843" 
d="M106 1016v1057h164v-222v-49t-1 -53t-3 -65.5t-4 -69.5h6q14 33 37 56.5t50.5 38.5t61.5 22.5t72 7.5q53 0 99.5 -15.5t82.5 -49.5t55 -87t19 -127v-444h-163v405q0 49 -10.5 85t-29 56.5t-45 31t-61.5 10.5t-65.5 -14.5t-53 -43t-35 -69.5t-12.5 -93v-368h-164z" />
    <glyph glyph-name="i.superior" horiz-adv-x="360" 
d="M92 1907v166h176v-166h-176zM98 1016v704h164v-704h-164z" />
    <glyph glyph-name="j.superior" horiz-adv-x="360" 
d="M-25 698v136h41q23 0 39.5 6t25.5 19t13 32.5t4 46.5v782h164v-796q0 -55 -11 -96.5t-38 -70t-71 -44t-107 -15.5h-60zM92 1907v166h176v-166h-176z" />
    <glyph glyph-name="k.superior" horiz-adv-x="770" 
d="M106 1016v1057h164v-656l277 303h188l-262 -280l289 -424h-191l-206 307l-95 -102v-205h-164z" />
    <glyph glyph-name="l.superior" horiz-adv-x="376" 
d="M106 1016v1057h164v-1057h-164z" />
    <glyph glyph-name="m.superior" horiz-adv-x="1280" 
d="M106 1016v704h156v-106h6q14 33 36 56.5t48.5 38.5t59 22.5t71.5 7.5q35 0 69 -8.5t62.5 -25.5t51 -45t36.5 -65q18 39 41 67t52.5 45t65.5 24.5t79 7.5q49 0 92 -14.5t77 -46t53.5 -83t19.5 -122.5v-457h-164v420q0 45 -8.5 77.5t-24.5 52t-40.5 29t-57.5 9.5
q-35 0 -63.5 -14.5t-51 -41t-35 -67.5t-12.5 -92v-373h-162v416q0 45 -8 77.5t-25.5 53t-42 31t-57.5 10.5t-61.5 -14.5t-51 -41t-35 -66.5t-12.5 -91v-375h-164z" />
    <glyph glyph-name="o.superior" horiz-adv-x="854" 
d="M66 1368q0 84 25.5 152.5t73.5 118t114.5 75t146.5 25.5q82 0 149.5 -25.5t115.5 -75t72.5 -118t24.5 -152.5t-25.5 -151.5t-74.5 -116.5t-115.5 -75t-146.5 -26q-82 0 -148.5 26t-114.5 74t-72.5 116.5t-24.5 152.5zM236 1368q0 -53 13 -96t38.5 -75t60.5 -49.5
t78 -17.5t79 17.5t61.5 49.5t38.5 75t13 96t-13 97t-38.5 76t-61.5 48.5t-79 16.5t-78 -16.5t-60.5 -48.5t-38.5 -76t-13 -97z" />
    <glyph glyph-name="p.superior" horiz-adv-x="878" 
d="M106 698v1022h156v-110h6q16 33 40 57.5t54.5 40.5t67.5 23.5t78 7.5q63 0 118.5 -23.5t97.5 -71t65.5 -116t23.5 -154.5t-25.5 -155.5t-69.5 -118.5t-102.5 -75t-121.5 -26q-41 0 -75 7.5t-62.5 22.5t-50 40t-38.5 57h-6q2 -35 4 -68.5t3 -61t1 -49v-48.5v-201h-164z
M270 1368q0 -55 14.5 -99t39 -75t59.5 -47.5t76 -16.5q39 0 72.5 17.5t59 49.5t39 77t13.5 100q0 53 -13.5 97.5t-38 74t-58 45t-74.5 15.5q-39 0 -74 -15.5t-59.5 -45t-39 -72.5t-16.5 -95v-10z" />
    <glyph glyph-name="q.superior" horiz-adv-x="878" 
d="M66 1362q0 86 25.5 156.5t70.5 120t102.5 75t120.5 25.5q41 0 75 -7.5t62.5 -23.5t51 -41t36.5 -57h6v110h156v-1022h-164v201v48.5t1 49t3 61.5l4 68h-6q-14 -33 -38.5 -57.5t-55.5 -39.5t-66.5 -22.5t-76.5 -7.5q-63 0 -118.5 24t-98.5 71t-66.5 114.5t-23.5 153.5z
M236 1362q0 -55 13 -98t38.5 -73t59.5 -45.5t75 -15.5q39 0 72.5 15.5t58.5 45.5t39 72t16 93v12q0 55 -13 99t-39 75t-59.5 47.5t-74.5 16.5t-75 -17.5t-59.5 -49.5t-38.5 -77t-13 -100z" />
    <glyph glyph-name="r.superior" horiz-adv-x="559" 
d="M106 1016v704h156v-133h6q12 33 29.5 60.5t40 48t51.5 32t64 11.5q12 0 23 -1t23.5 -5t26 -10.5t25.5 -14.5l-39 -147q-12 6 -22.5 10t-21.5 7t-21.5 4t-20.5 1q-39 0 -68.5 -18.5t-49 -51t-29 -76.5t-9.5 -94v-327h-164z" />
    <glyph glyph-name="s.superior" horiz-adv-x="759" 
d="M66 1231h155q2 -31 15.5 -52.5t35 -36t50 -21.5t61.5 -7t60.5 6t47 17.5t29.5 29t10 37.5t-8 34.5t-22.5 25t-35 16.5t-48.5 12l-140 29q-43 8 -78.5 23.5t-61 39t-40 57.5t-14.5 81q0 51 22.5 92t62.5 68.5t95 42t121 14.5q63 0 115.5 -13.5t92.5 -40t63.5 -68.5
t27.5 -97h-156q-2 27 -13 47t-30.5 32.5t-43 17.5t-52.5 5q-33 0 -59.5 -5t-45 -16.5t-28.5 -26.5t-10 -36q0 -18 7 -32.5t20.5 -23.5t34 -16.5t50.5 -13.5l140 -29q43 -8 76.5 -21t61.5 -36t44 -57.5t16 -83.5q0 -55 -23.5 -97.5t-65.5 -71t-99 -43t-125 -14.5t-124 13.5
t-97 41t-65.5 72.5t-28.5 105z" />
    <glyph glyph-name="t.superior" horiz-adv-x="509" 
d="M16 1589v131h127v213h164v-213h170v-131h-170v-329q0 -29 4 -48.5t14.5 -32t28 -18.5t43.5 -6h80v-139h-98q-66 0 -111 13t-72.5 41t-40 72t-12.5 107v340h-127z" />
    <glyph glyph-name="u.superior" horiz-adv-x="843" 
d="M98 1276v444h164v-405q0 -49 10.5 -85t28.5 -56.5t45 -30.5t62 -10t64.5 14t53 43t35.5 71t12 95v364h164v-704h-155v106h-7q-14 -33 -36.5 -56.5t-50 -37.5t-60.5 -21.5t-74 -7.5q-53 0 -99 15.5t-82 48.5t-55.5 86t-19.5 127z" />
    <glyph glyph-name="v.superior" horiz-adv-x="731" 
d="M8 1720h185l180 -538l182 538h168l-256 -704h-193z" />
    <glyph glyph-name="w.superior" horiz-adv-x="1099" 
d="M8 1720h166l148 -540l143 540h174l143 -542l150 542h160l-215 -704h-185l-143 528l-146 -528h-184z" />
    <glyph glyph-name="x.superior" horiz-adv-x="690" 
d="M8 1016l250 352l-246 352h189l147 -221l150 221h180l-248 -346l252 -358h-186l-154 229l-156 -229h-178z" />
    <glyph glyph-name="y.superior" horiz-adv-x="731" 
d="M8 1720h185l180 -536l182 536h168l-287 -798q-16 -45 -39.5 -84t-57.5 -71t-79 -50.5t-100 -18.5h-80v138h45q31 0 56.5 7t47 21.5t38 37t28.5 54.5z" />
    <glyph glyph-name="z.superior" horiz-adv-x="679" 
d="M49 1589v131h576v-102l-363 -471h369v-131h-580v94l367 479h-369z" />
    <glyph glyph-name="dollar.superior" 
d="M57 1221h148q2 -23 14 -42.5t32.5 -34t48.5 -22.5t60 -8q35 0 62 6t44 18.5t25.5 30t8.5 39.5q0 23 -10.5 38.5t-30 25.5t-43 17t-56.5 14l-41 8q-55 10 -95 22.5t-74.5 34t-55 58t-20.5 90.5q0 43 15 79.5t44 64.5t70 46t92 25v112h131v-112q45 -6 83 -22.5t66.5 -42.5
t45 -57.5t18.5 -68.5h-156q-4 20 -15 35.5t-27.5 26t-37 15.5t-43.5 5q-27 0 -50 -5t-41.5 -16.5t-29 -29t-10.5 -39.5q0 -23 12.5 -39t33 -26.5t47 -17.5t63.5 -15l41 -9q49 -10 88 -23t70.5 -36t51 -58.5t19.5 -86.5q0 -45 -15 -83t-45 -66t-72 -46t-97 -25v-124h-131v127
q-55 6 -98 24.5t-74 46t-48.5 64.5t-17.5 82z" />
    <glyph glyph-name="cent.superior" 
d="M74 1368q0 51 15 96t45 80t75 58.5t102 31.5v103h131v-105q47 -8 84 -26.5t62.5 -44t40 -56t18.5 -63.5h-155q-4 14 -12.5 27.5t-22 24.5t-34 18.5t-46.5 7.5q-33 0 -59.5 -11.5t-44 -31t-26.5 -47t-9 -62.5t9 -62.5t26.5 -47t44 -30.5t59.5 -11q27 0 47 7t33.5 18
t21.5 24.5t13 27.5h155q-4 -33 -18.5 -63.5t-40 -57t-62.5 -45t-84 -26.5v-103h-131v103q-57 8 -102 31.5t-75 58.5t-45 80t-15 96z" />
    <glyph glyph-name="Euro.superior" 
d="M25 1270l16 65h65v66h-57l17 65h49q10 59 33.5 108.5t61.5 86.5t90 56.5t118 19.5q59 0 106 -16.5t80 -47.5t53.5 -70.5t30.5 -86.5h-156q-6 20 -15 37.5t-23.5 31.5t-33 21.5t-42.5 7.5q-29 0 -53.5 -9.5t-42 -29t-28.5 -47t-18 -62.5h216l-17 -65h-205v-66h181l-17 -65
h-158q6 -37 17.5 -64.5t29 -46t41 -28t54.5 -9.5q23 0 41 6.5t32.5 18.5t24.5 28.5t16 36.5h156q-10 -47 -31.5 -86t-55.5 -67.5t-79 -44t-104 -15.5q-68 0 -121 19.5t-91 55.5t-60.5 85t-32.5 111h-88z" />
    <glyph glyph-name="plus.superior" 
d="M90 1311v123h205v204h131v-204h205v-123h-205v-205h-131v205h-205z" />
    <glyph glyph-name="equal.superior" 
d="M90 1188v123h541v-123h-541zM90 1434v122h541v-122h-541z" />
    <glyph glyph-name="comma.superior" horiz-adv-x="376" 
d="M98 1016v188h181v-180l-58 -238h-90l45 230h-78z" />
    <glyph glyph-name="period.superior" horiz-adv-x="376" 
d="M98 1016v188h181v-188h-181z" />
    <glyph glyph-name="hyphen.superior" horiz-adv-x="565" 
d="M74 1303v139h418v-139h-418z" />
    <glyph glyph-name="exclam.c2sc" horiz-adv-x="573" 
d="M180 0v213h213v-213h-213zM180 770v295h213v-295l-57 -459h-98z" />
    <glyph glyph-name="question.c2sc" horiz-adv-x="958" 
d="M82 737q0 72 25.5 136.5t77 112.5t127 76t171.5 28q86 0 158 -19.5t125 -56.5t82 -91.5t29 -119.5q0 -86 -42 -140.5t-123 -109.5t-118 -93t-37 -100v-49h-172v41q0 92 41 150.5t123 116t114.5 89t32.5 87.5q0 31 -15 57.5t-44 47t-69 31.5t-85 11q-57 0 -100 -15.5
t-71.5 -42t-43 -64.5t-14.5 -83h-172zM369 0v213h204v-213h-204z" />
    <glyph glyph-name="exclamdown.sc" horiz-adv-x="573" 
d="M180 0v295l58 459h98l57 -459v-295h-213zM180 852v213h213v-213h-213z" />
    <glyph glyph-name="questiondown.sc" horiz-adv-x="958" 
d="M82 262q0 86 42 140.5t123 109.5t117.5 93t36.5 100v49h172v-41q0 -92 -40.5 -150.5t-122.5 -116t-115 -89t-33 -87.5q0 -31 15.5 -57.5t44 -47t68.5 -31.5t85 -11q57 0 100 15.5t72 42t43.5 64.5t14.5 83h172q0 -72 -26 -136.5t-77 -112.5t-127 -76t-172 -28
q-86 0 -157.5 19.5t-125 56.5t-82 91.5t-28.5 119.5zM385 852v213h205v-213h-205z" />
    <glyph glyph-name="hyphen.sc" horiz-adv-x="811" 
d="M123 459v164h565v-164h-565z" />
    <glyph glyph-name="endash.sc" horiz-adv-x="1138" 
d="M123 459v164h893v-164h-893z" />
    <glyph glyph-name="emdash.sc" horiz-adv-x="1720" 
d="M123 459v164h1474v-164h-1474z" />
    <glyph glyph-name="periodcentered.sc" horiz-adv-x="524" 
d="M147 426v229h230v-229h-230z" />
    <glyph glyph-name="bullet.sc" horiz-adv-x="835" 
d="M147 541q0 55 20.5 105t58.5 87t87 57.5t105 20.5q55 0 104 -20.5t87 -57.5t58.5 -87t20.5 -105t-20.5 -105.5t-58.5 -87.5t-87 -57.5t-104 -20.5t-104.5 20.5t-87.5 57.5t-58.5 87t-20.5 106z" />
    <glyph glyph-name="guilsinglleft.sc" horiz-adv-x="583" 
d="M106 541l224 323h147l-184 -323l184 -326h-147z" />
    <glyph glyph-name="guilsinglright.sc" horiz-adv-x="583" 
d="M106 215l185 326l-185 323h148l223 -323l-223 -326h-148z" />
    <glyph glyph-name="guillemotleft.sc" horiz-adv-x="907" 
d="M106 541l222 323h147l-184 -323l184 -326h-147zM432 541l221 323h148l-185 -323l185 -326h-148z" />
    <glyph glyph-name="guillemotright.sc" horiz-adv-x="907" 
d="M106 215l185 326l-185 323h148l221 -323l-221 -326h-148zM432 215l184 326l-184 323h148l221 -323l-221 -326h-148z" />
    <glyph glyph-name="parenleft.sc" horiz-adv-x="606" 
d="M180 532q0 106 21.5 213t56.5 202t76 173t84 133h155q-41 -55 -80.5 -134t-73.5 -174t-54.5 -201.5t-20.5 -211.5q0 -104 20.5 -209.5t54.5 -201.5t73.5 -175t80.5 -134h-155q-43 55 -84 133t-76 174t-56.5 201.5t-21.5 211.5z" />
    <glyph glyph-name="parenright.sc" horiz-adv-x="606" 
d="M33 -188q41 55 81 134t73.5 175t54 201.5t20.5 209.5t-20.5 211t-54 202t-73.5 174t-81 134h155q43 -55 84 -133t76 -173t56.5 -201.5t21.5 -213.5q0 -106 -21.5 -211.5t-56.5 -201.5t-76 -174t-84 -133h-155z" />
    <glyph glyph-name="bracketleft.sc" horiz-adv-x="606" 
d="M180 -188v1441h393v-139h-237v-1163h237v-139h-393z" />
    <glyph glyph-name="bracketright.sc" horiz-adv-x="606" 
d="M33 -49h237v1163h-237v139h393v-1441h-393v139z" />
    <glyph glyph-name="braceleft.sc" horiz-adv-x="622" 
d="M41 483v107q55 0 91 12t57.5 39t30.5 70t9 108v172q0 66 13.5 114t44 81t83 50t130.5 17h90v-131h-74q-41 0 -67.5 -7t-42 -21.5t-22.5 -39t-7 -63.5v-213q0 -47 -10.5 -85t-32 -67.5t-56 -51t-81.5 -33.5v-9q47 -12 81.5 -33.5t56 -51t32 -67.5t10.5 -85v-221
q0 -39 7 -63.5t22.5 -39t42 -21.5t67.5 -7h74v-131h-90q-78 0 -130.5 17t-83 50t-44 81t-13.5 114v180q0 66 -9 109t-30.5 69.5t-57.5 38.5t-91 12z" />
    <glyph glyph-name="braceright.sc" horiz-adv-x="622" 
d="M33 -57h73q41 0 68 7t42 21.5t22.5 39t7.5 63.5v221q0 47 10 85t31.5 67.5t56.5 51t82 33.5v9q-47 12 -82 33.5t-56.5 51t-31.5 67.5t-10 85v213q0 39 -7.5 63.5t-22.5 39t-42 21.5t-68 7h-73v131h90q78 0 130 -17t83 -50t44 -81t13 -114v-172q0 -66 9.5 -108.5t31 -69.5
t57 -39t91.5 -12v-107q-55 0 -91 -12t-57.5 -38.5t-31 -70t-9.5 -108.5v-180q0 -66 -13 -114t-44 -81t-83 -50t-130 -17h-90v131z" />
    <glyph glyph-name="slash.c2sc" horiz-adv-x="663" 
d="M16 -25l476 1115h155l-475 -1115h-156z" />
    <glyph glyph-name="backslash.c2sc" horiz-adv-x="663" 
d="M16 1090h156l475 -1115h-155z" />
    <glyph glyph-name="quoteleft.c2sc" horiz-adv-x="524" 
d="M156 549v205l82 311h98l-57 -295h90v-221h-213z" />
    <glyph glyph-name="quotedblleft.c2sc" horiz-adv-x="892" 
d="M156 549v205l82 311h98l-57 -295h90v-221h-213zM524 549v205l82 311h99l-58 -295h90v-221h-213z" />
    <glyph glyph-name="quoteright.c2sc" horiz-adv-x="524" 
d="M156 844v221h213v-205l-82 -311h-99l58 295h-90z" />
    <glyph glyph-name="quotedblright.c2sc" horiz-adv-x="892" 
d="M156 844v221h213v-205l-82 -311h-99l58 295h-90zM524 844v221h213v-205l-82 -311h-98l57 295h-90z" />
    <glyph glyph-name="asterisk.c2sc" horiz-adv-x="933" 
d="M133 784l45 142l248 -117l-33 272h148l-35 -274l250 119l45 -142l-269 -53l187 -199l-119 -86l-135 238l-131 -238l-119 86l184 201z" />
    <glyph glyph-name="degree.c2sc" horiz-adv-x="737" 
d="M82 811q0 61 21.5 112.5t60.5 88.5t92 57.5t113 20.5q59 0 112.5 -20.5t92 -57.5t60 -88.5t21.5 -112.5t-21.5 -112.5t-60 -88.5t-92 -57.5t-112.5 -20.5t-112.5 20.5t-92.5 57.5t-60.5 88.5t-21.5 112.5zM229 811q0 -33 10.5 -59.5t30 -47t45 -30.5t54.5 -10t54.5 10
t44.5 30.5t29.5 47t10.5 59.5t-10.5 59.5t-29.5 47t-45 30.5t-54 10q-29 0 -54.5 -10t-45 -30.5t-30 -47t-10.5 -59.5z" />
    <glyph glyph-name="quotesingle.c2sc" horiz-adv-x="442" 
d="M131 893v172h180v-172l-32 -344h-115z" />
    <glyph glyph-name="quotedbl.c2sc" horiz-adv-x="802" 
d="M131 893v172h180v-172l-32 -344h-115zM492 893v172h180v-172l-33 -344h-115z" />
    <glyph glyph-name="ordfeminine.c2sc" horiz-adv-x="598" 
d="M55 672q0 33 10.5 59.5t33 48t56 34.5t78.5 20l101 12q23 4 36 7t20 8t10 12.5t3 17.5q0 20 -6 37.5t-19 31t-32.5 20.5t-44.5 7q-23 0 -41 -5t-31.5 -17.5t-21.5 -29.5t-10 -40h-117q2 47 20.5 83t49 58.5t68.5 32.5t83 10q53 0 94 -12t71 -35.5t45 -60.5t15 -84v-355
h-118v64h-5q-12 -18 -28.5 -32.5t-38 -24t-47 -14.5t-56.5 -5q-43 0 -75.5 11.5t-56 31t-35 47t-11.5 62.5zM180 682q0 -18 6.5 -31.5t17.5 -24t27.5 -15.5t36.5 -5q27 0 50.5 8.5t43 24.5t30.5 43t11 63v50q-2 -6 -7 -9.5t-12 -6.5t-15.5 -5t-18.5 -4l-86 -12
q-23 -2 -39 -9.5t-25.5 -17.5t-14.5 -22.5t-5 -26.5z" />
    <glyph glyph-name="ordmasculine.c2sc" horiz-adv-x="638" 
d="M47 799q0 63 19.5 114.5t56.5 89t87 57t109 19.5q61 0 112.5 -19.5t87.5 -56t55.5 -89t19.5 -115.5t-19.5 -114.5t-56.5 -88.5t-88 -56.5t-111 -19.5q-61 0 -112 19.5t-87 56.5t-54.5 88t-18.5 115zM174 799q0 -39 10.5 -73t29.5 -57.5t46 -37t59 -13.5q33 0 60 13.5
t46 37t29.5 57.5t10.5 73q0 41 -10.5 74.5t-29.5 57t-46 36t-60 12.5t-59.5 -12.5t-45.5 -37t-29.5 -57t-10.5 -73.5z" />
    <glyph glyph-name="trademark.c2sc" horiz-adv-x="1277" 
d="M8 958v107h484v-107h-173v-426h-131v426h-180zM565 532v533h180l136 -360h4l139 360h172v-533h-123l6 369h-6l-147 -369h-99l-139 369h-8l8 -369h-123z" />
    <glyph glyph-name="copyright.c2sc" horiz-adv-x="1253" 
d="M82 541q0 115 40 216t112.5 176t172 116t216.5 41q115 0 215 -41t176 -117t116.5 -176.5t40.5 -214.5q0 -115 -40.5 -218.5t-114.5 -181.5t-175.5 -122t-217.5 -44q-117 0 -216.5 44t-172 122t-112.5 181.5t-40 218.5zM197 541q0 -92 30.5 -175t89 -147.5t136 -100.5
t170.5 -36q90 0 168.5 36t139 100.5t93.5 147.5t33 175t-33 173t-91.5 141t-138 94t-171.5 34t-171 -34t-136.5 -94t-88 -141t-30.5 -173zM360 541q0 57 17.5 107t52.5 89t86 60.5t115 21.5q49 0 89 -13t71.5 -39t51 -60.5t25.5 -75.5h-123q-6 16 -15 31.5t-22.5 26.5
t-33 17.5t-43.5 6.5q-35 0 -61.5 -12.5t-46 -36t-30 -55t-10.5 -68.5t10.5 -69t30 -55.5t46 -35.5t61.5 -12q25 0 44 6t32.5 17t22.5 26.5t15 32.5h123q-6 -41 -25.5 -76t-51 -60.5t-71.5 -39t-89 -13.5q-63 0 -114.5 21.5t-86.5 60.5t-52.5 89t-17.5 108z" />
    <glyph glyph-name="registered.c2sc" horiz-adv-x="1253" 
d="M82 541q0 115 40 216t112.5 176t172 116t216.5 41q115 0 215 -41t176 -117t116.5 -176.5t40.5 -214.5q0 -115 -40.5 -218.5t-114.5 -181.5t-175.5 -122t-217.5 -44q-117 0 -216.5 44t-172 122t-112.5 181.5t-40 218.5zM197 541q0 -92 30.5 -175t89 -147.5t136 -100.5
t170.5 -36q90 0 168.5 36t139 100.5t93.5 147.5t33 175t-33 173t-91.5 141t-138 94t-171.5 34t-171 -34t-136.5 -94t-88 -141t-30.5 -173zM401 279v524h254q49 0 88 -11.5t65 -34t39 -54t13 -72.5q0 -27 -8 -51.5t-23.5 -46t-37 -39t-48.5 -27.5l125 -188h-131l-114 172h-91
v-172h-131zM532 553h107q23 0 39 5t27.5 15.5t17.5 24.5t6 33q0 18 -6 30.5t-17.5 21.5t-27.5 13t-39 4h-107v-147z" />
    <glyph glyph-name="paragraph.c2sc" horiz-adv-x="1058" 
d="M82 725q0 76 26.5 139.5t78 108.5t124 68.5t162.5 23.5h105v-1065h-166v385q-76 8 -137.5 34.5t-104.5 71t-65.5 103.5t-22.5 131zM713 0v1065h166v-1065h-166z" />
    <glyph glyph-name="section.c2sc" horiz-adv-x="878" 
d="M82 352q0 39 11 74t34 64.5t54.5 53t70.5 40.5q-35 18 -61.5 38.5t-45 47t-29 60.5t-10.5 75q0 61 24 112.5t69 88t108.5 57t143.5 20.5q74 0 133 -15t103 -46t69.5 -77t29.5 -107h-155q-2 31 -17.5 54t-40 38.5t-56.5 23t-66 7.5q-43 0 -76 -9.5t-56.5 -27t-36 -44
t-12.5 -59.5q0 -29 10.5 -50t29 -36.5t44 -28t64.5 -24.5l147 -49q61 -20 103.5 -44t71 -53.5t42 -67.5t13.5 -89q0 -39 -11.5 -75t-34 -65.5t-54 -53t-70.5 -40.5q35 -16 61.5 -36.5t45 -47t28.5 -60.5t10 -75q0 -61 -23.5 -112.5t-68.5 -88t-108.5 -57t-143.5 -20.5
q-74 0 -133.5 15t-103.5 46t-69.5 77t-29.5 108h156q2 -31 17.5 -54.5t40 -39t56 -22.5t66.5 -7q43 0 76 9t56.5 26.5t35.5 44t12 59.5q0 29 -10 50.5t-28.5 36.5t-44 27.5t-64.5 24.5l-148 49q-61 20 -103 44t-70.5 53.5t-42 67.5t-13.5 89zM238 377q0 -33 9 -55.5
t28.5 -38t46 -27.5t71.5 -27l92 -30q35 10 64 25.5t49 36t30.5 45t10.5 48.5q0 33 -9 55.5t-28.5 38t-46.5 27.5t-72 27l-94 30q-35 -10 -63.5 -25t-48 -35.5t-29.5 -45.5t-10 -49z" />
    <glyph glyph-name="exclamdown.case" horiz-adv-x="573" 
d="M180 0v393l58 623h98l57 -623v-393h-213zM180 1188v221h213v-221h-213z" />
    <glyph glyph-name="questiondown.case" horiz-adv-x="1032" 
d="M82 344q0 113 47 181.5t138 140t133 123t42 137.5v82h181v-58q0 -129 -46.5 -206.5t-138.5 -151.5t-130 -117t-38 -123q0 -47 16.5 -87t48.5 -70.5t76 -47t97 -16.5q68 0 119 22.5t84.5 63.5t50 94.5t16.5 114.5h180q0 -88 -27.5 -169t-83.5 -144.5t-141 -100.5t-198 -37
q-92 0 -171 26t-136.5 74t-88 116.5t-30.5 152.5zM426 1188v221h213v-221h-213z" />
    <glyph glyph-name="hyphen.case" horiz-adv-x="811" 
d="M123 631v164h565v-164h-565z" />
    <glyph glyph-name="endash.case" horiz-adv-x="1138" 
d="M123 631v164h893v-164h-893z" />
    <glyph glyph-name="emdash.case" horiz-adv-x="1720" 
d="M123 631v164h1474v-164h-1474z" />
    <glyph glyph-name="periodcentered.case" horiz-adv-x="540" 
d="M156 598v229h229v-229h-229z" />
    <glyph glyph-name="bullet.case" horiz-adv-x="999" 
d="M147 713q0 74 27 138t75 112.5t112.5 75t138.5 26.5t138 -26.5t112.5 -75t75 -113t26.5 -137.5q0 -74 -26.5 -138.5t-75 -112.5t-113 -75t-137.5 -27q-74 0 -138.5 27t-112.5 75t-75 112.5t-27 138.5z" />
    <glyph glyph-name="guilsinglleft.case" horiz-adv-x="655" 
d="M106 713l295 417h148l-238 -417l238 -418h-148z" />
    <glyph glyph-name="guilsinglright.case" horiz-adv-x="655" 
d="M106 295l238 418l-238 417h148l295 -417l-295 -418h-148z" />
    <glyph glyph-name="guillemotleft.case" horiz-adv-x="1048" 
d="M106 713l295 417h148l-238 -417l238 -418h-148zM500 713l295 417h147l-237 -417l237 -418h-147z" />
    <glyph glyph-name="guillemotright.case" horiz-adv-x="1048" 
d="M106 295l238 418l-238 417h148l295 -417l-295 -418h-148zM500 295l237 418l-237 417h147l295 -417l-295 -418h-147z" />
    <glyph glyph-name="parenleft.case" horiz-adv-x="663" 
d="M180 705q0 125 23.5 243.5t64.5 222t91.5 191.5t107.5 162h164q-53 -76 -101.5 -165t-88.5 -193.5t-64.5 -222.5t-24.5 -238q0 -121 24.5 -239t64.5 -222.5t88.5 -193.5t101.5 -165h-164q-57 74 -107.5 162t-91.5 191.5t-64.5 222.5t-23.5 244z" />
    <glyph glyph-name="parenright.case" horiz-adv-x="663" 
d="M33 -115q53 76 101 165t88 193.5t64.5 222.5t24.5 239t-24.5 238.5t-64.5 222t-88 193.5t-101 165h164q57 -74 107 -162t91 -191.5t64.5 -222.5t23.5 -243q0 -125 -23.5 -244t-64.5 -222.5t-91 -191.5t-107 -162h-164z" />
    <glyph glyph-name="bracketleft.case" horiz-adv-x="679" 
d="M180 -115v1639h467v-148h-303v-1343h303v-148h-467z" />
    <glyph glyph-name="bracketright.case" horiz-adv-x="679" 
d="M33 33h303v1343h-303v148h467v-1639h-467v148z" />
    <glyph glyph-name="braceleft.case" horiz-adv-x="729" 
d="M41 647v123q72 0 116 14.5t68.5 45t34.5 81t10 129.5v172q0 76 16.5 133.5t52.5 97.5t98.5 60.5t152.5 20.5h106v-140h-98q-47 0 -79 -9t-50 -28.5t-26.5 -50t-8.5 -75.5v-230q0 -57 -11 -101t-34.5 -79t-62.5 -59.5t-97 -38.5v-8q57 -14 96.5 -39t63 -60t34.5 -79
t11 -101v-238q0 -45 8.5 -75.5t26.5 -50t50 -28.5t79 -9h98v-140h-106q-90 0 -152.5 20.5t-98.5 60.5t-52.5 97.5t-16.5 133.5v180q0 80 -10 130t-34.5 80.5t-68.5 45t-116 14.5z" />
    <glyph glyph-name="braceright.case" horiz-adv-x="729" 
d="M33 25h98q47 0 79 9t50.5 28.5t26.5 50t8 75.5v238q0 57 11 101t35 79t62.5 59.5t96.5 39.5v8q-57 14 -96 38.5t-63 59.5t-35 79t-11 101v230q0 45 -8 75.5t-26.5 50t-50.5 28.5t-79 9h-98v140h106q90 0 152.5 -20.5t98.5 -60.5t52.5 -97.5t16.5 -133.5v-172
q0 -80 10 -130t34.5 -80.5t68.5 -45t116 -14.5v-123q-72 0 -116 -14.5t-68.5 -45t-34.5 -80.5t-10 -130v-180q0 -76 -16.5 -133.5t-52.5 -97.5t-98.5 -60.5t-152.5 -20.5h-106v140z" />
    <glyph glyph-name="plus.c2sc" horiz-adv-x="1032" 
d="M123 459v155h311v320h164v-320h311v-155h-311v-320h-164v320h-311z" />
    <glyph glyph-name="multiply.c2sc" horiz-adv-x="1032" 
d="M147 270l259 267l-259 266l107 106l258 -264l258 264l107 -106l-261 -266l261 -267l-107 -106l-258 264l-258 -264z" />
    <glyph glyph-name="divide.c2sc" horiz-adv-x="1032" 
d="M123 459v155h786v-155h-786zM426 115v188h180v-188h-180zM426 762v188h180v-188h-180z" />
    <glyph glyph-name="equal.c2sc" horiz-adv-x="1032" 
d="M123 287v155h786v-155h-786zM123 631v155h786v-155h-786z" />
    <glyph glyph-name="less.c2sc" horiz-adv-x="1032" 
d="M147 467v147l738 328v-164l-555 -237l555 -238v-164z" />
    <glyph glyph-name="greater.c2sc" horiz-adv-x="1032" 
d="M147 139v164l553 238l-553 237v164l738 -328v-147z" />
    <glyph glyph-name="plusminus.c2sc" horiz-adv-x="1032" 
d="M164 0v147h696v-147h-696zM164 500v147h270v254h156v-254h270v-147h-270v-254h-156v254h-270z" />
    <glyph glyph-name="logicalnot.c2sc" horiz-adv-x="1032" 
d="M123 459v155h786v-475h-164v320h-622z" />
    <glyph glyph-name="asciitilde.c2sc" horiz-adv-x="1032" 
d="M115 401q0 72 19.5 125.5t52 87t73.5 50t84 16.5q53 0 98 -15.5t100.5 -45t84 -42t61.5 -12.5q20 0 35.5 7.5t26 21.5t15.5 35.5t5 50.5h148q0 -72 -18.5 -124t-51.5 -84t-74 -47t-86 -15q-51 0 -94 15t-98.5 44t-86 42t-65.5 13q-20 0 -35.5 -8t-26 -23.5t-15.5 -39
t-5 -52.5h-147z" />
    <glyph glyph-name="numbersign.aalt" horiz-adv-x="1032" 
d="M25 254v131h190l57 320h-190v131h213l41 229h156l-41 -229h278l41 229h156l-41 -229h164v-131h-187l-57 -320h186v-131h-209l-45 -254h-155l45 254h-279l-45 -254h-156l46 254h-168zM371 385h278l58 320h-279z" />
    <glyph glyph-name="currency.pnum" horiz-adv-x="983" 
d="M90 393l119 121q-14 20 -24.5 43t-19.5 46.5t-13.5 49t-4.5 52.5t5.5 53t13.5 51t20.5 47.5t26.5 42.5l-123 125l90 90l123 -127q20 12 42 22.5t45.5 17.5t49 10t52.5 3t51 -3t47.5 -10t45 -17.5t42.5 -22.5l125 127l90 -90l-123 -125q14 -20 26.5 -42.5t20.5 -47.5
t13.5 -51.5t5.5 -52.5q0 -27 -5.5 -52.5t-13.5 -49t-19.5 -46t-25.5 -43.5l121 -121l-90 -90l-119 121q-20 -14 -43 -24.5t-46.5 -17.5t-50 -10t-52.5 -3q-29 0 -54.5 3t-50.5 10t-46.5 17.5t-41.5 24.5l-119 -121zM295 705q0 -45 15.5 -84t42 -66t62.5 -41t77 -14t76.5 14
t62 41t42 65.5t15.5 84.5q0 45 -15.5 83.5t-42 65.5t-62.5 41t-76 14q-41 0 -77 -14t-62.5 -41t-42 -65.5t-15.5 -83.5z" />
    <glyph glyph-name="dollar.pnum" horiz-adv-x="1073" 
d="M57 393h181q4 -63 26.5 -112.5t60 -82t89 -50t110.5 -17.5q63 0 115.5 16.5t88.5 48t55.5 76.5t19.5 105q0 49 -17.5 87t-49 65.5t-73.5 47t-98 37.5l-180 58q-61 18 -113.5 48t-95.5 75t-68.5 108.5t-25.5 145.5q0 74 25.5 138t73.5 113.5t112.5 81t140.5 43.5v222h180
v-222q70 -12 129.5 -42.5t106.5 -78t74.5 -111t33.5 -136.5h-180q-8 57 -30.5 99t-57.5 69.5t-77 40t-89 12.5q-51 0 -97 -12.5t-81 -39t-55.5 -67.5t-20.5 -94q0 -51 14.5 -88t43 -63.5t69.5 -47t103 -39.5l180 -57q80 -25 138.5 -60.5t96 -83.5t57 -107.5t19.5 -133.5
q0 -84 -26.5 -152.5t-76.5 -121t-120 -85t-154 -44.5v-228h-180v228q-84 12 -151.5 44.5t-117.5 86t-78 124t-30 156.5z" />
    <glyph glyph-name="cent.pnum" horiz-adv-x="1056" 
d="M82 713q0 106 28.5 195t82 157t125 110t157.5 56v203h180v-205q72 -12 130.5 -44t101.5 -78t68.5 -104.5t35.5 -125.5h-180q-8 45 -26.5 81.5t-50.5 64.5t-76 43t-101 15q-61 0 -113.5 -26.5t-91.5 -75.5t-60.5 -116.5t-21.5 -149.5t21.5 -149.5t60.5 -117t91.5 -76
t113.5 -26.5q57 0 101 15.5t76 43t50.5 64.5t26.5 82h180q-10 -70 -35.5 -128.5t-69.5 -105.5t-104.5 -77.5t-134.5 -42.5v-220h-180v220q-90 14 -162 56t-122 109.5t-75.5 156.5t-25.5 196z" />
    <glyph glyph-name="Euro.pnum" horiz-adv-x="1228" 
d="M25 508l32 115h142q0 10 -1 19t-1 19.5v19.5v24v30.5v24.5t1 25.5t3 25.5h-135l32 115h119q23 113 67 206t109.5 160.5t152.5 104.5t191 37q96 0 174 -25t135.5 -73t94.5 -115.5t55 -155.5h-174q-16 53 -42 94t-59.5 69.5t-77.5 43t-98 14.5q-61 0 -116.5 -24.5
t-99.5 -71.5t-74.5 -113.5t-48.5 -150.5h413l-33 -115h-397q-2 -12 -3 -25.5t-1 -25.5v-24.5v-30.5v-23.5v-20t1 -19.5t1 -19h391l-33 -115h-346q14 -90 45 -162t74 -122t98.5 -75.5t120.5 -25.5q49 0 91 11t76 35t59.5 57.5t44.5 76.5h176q-20 -78 -59.5 -139.5
t-96.5 -103.5t-132 -63.5t-167 -21.5q-113 0 -202 39t-153.5 110t-105.5 168t-57 216h-186z" />
    <glyph glyph-name="yen.pnum" horiz-adv-x="1097" 
d="M0 1409h205l348 -606h8l348 606h189l-459 -780v-6h311v-115h-311v-156h311v-114h-311v-238h-180v238h-312v114h312v156h-312v115h312v12z" />
    <glyph glyph-name="sterling.pnum" horiz-adv-x="1122" 
d="M-16 164q0 53 17 94t50 69.5t76 43t94 14.5q18 0 36.5 -2t36 -7t35 -10.5t36.5 -13.5q2 12 2 19.5t1 15.5t1 15.5v15.5q0 31 -4.5 61.5t-10.5 62t-15 61.5t-20 65h-221v127h178q-12 39 -21 71.5t-17.5 67.5t-12.5 69.5t-4 69.5q0 82 26.5 148.5t77 113.5t120 73t153.5 26
q82 0 148.5 -24t112.5 -70t74 -112.5t34 -154.5h-181q-6 55 -20 95t-37.5 67t-58.5 39t-80 12q-39 0 -73 -13t-60.5 -39t-41 -62.5t-14.5 -81.5q0 -37 5.5 -73t14.5 -72t20.5 -70.5t27.5 -79.5h326v-127h-283q6 -25 11 -47.5t9.5 -45t6.5 -46t2 -46.5q0 -29 -2 -56.5
t-5.5 -54t-9.5 -53t-12 -51.5q84 -57 99.5 -67.5t50 -28.5t70.5 -29.5t71 -11.5q33 0 57.5 11.5t42 36t27.5 63.5t12 94h156q-4 -72 -21.5 -134.5t-51.5 -113.5t-91 -82t-139 -31q-43 0 -87 13.5t-85 36t-77 48t-87 64.5q-20 -37 -48 -66.5t-61 -51t-71.5 -33t-81.5 -11.5
q-49 0 -89 14.5t-68 40t-42 60.5t-14 74zM106 176q0 -20 6.5 -37.5t18.5 -30t29.5 -19.5t40.5 -7q27 0 48 10t38.5 29.5t30 44t22.5 55.5q-18 10 -34.5 19.5t-34 16.5t-34 10t-32.5 3q-20 0 -37.5 -7t-31 -19.5t-22 -29.5t-8.5 -38z" />
    <glyph glyph-name="currency.c2sc" horiz-adv-x="1032" 
d="M115 221l118 121q-14 20 -24 43t-19.5 46.5t-13.5 49t-4 51.5q0 27 5 53.5t13.5 51.5t20.5 47.5t27 42.5l-123 125l90 90l123 -127q20 12 41.5 22.5t45 17.5t49 10t52.5 3t51.5 -3t48 -10t45 -17.5t41.5 -22.5l125 127l91 -90l-123 -125q14 -20 26.5 -42.5t20.5 -47.5
t13 -51.5t5 -53.5t-5 -52t-13 -48.5t-19.5 -46.5t-25.5 -43l121 -121l-91 -90l-118 121q-20 -14 -43 -24.5t-46.5 -17.5t-50 -10t-53.5 -3q-29 0 -54.5 3t-50 10t-46 17.5t-41.5 24.5l-119 -121zM319 532q0 -45 15.5 -83.5t42 -65.5t62.5 -41t77 -14t77 14t62.5 41t42 65.5
t15.5 83.5t-15.5 84t-42 66t-62.5 41t-77 14t-77 -14t-62.5 -41t-42 -65.5t-15.5 -84.5z" />
    <glyph glyph-name="dollar.c2sc" horiz-adv-x="1032" 
d="M90 303h180q0 -39 18.5 -73.5t51.5 -60.5t76 -40t92 -14q53 0 95 10t72 31.5t46 52.5t16 70q0 35 -13 60.5t-39 43.5t-60.5 31.5t-83.5 27.5l-148 41q-53 14 -98 35t-85 55.5t-63.5 86t-23.5 118.5q0 59 20.5 110.5t60.5 91.5t96 66.5t126 36.5v179h164v-179
q61 -10 114.5 -34.5t92.5 -62.5t61.5 -86t26.5 -105h-172q-6 35 -23.5 64.5t-44.5 50t-61.5 30.5t-75.5 10q-43 0 -80 -9t-64.5 -27.5t-44 -46t-16.5 -64.5q0 -33 11.5 -57.5t34 -43t57 -34t86.5 -29.5l147 -41q70 -18 121 -45t86 -62.5t53.5 -85t18.5 -110.5
q0 -66 -23 -121t-67 -95t-104 -65.5t-134 -33.5v-185h-164v187q-76 8 -136.5 34.5t-104.5 68.5t-68.5 97.5t-26.5 120.5z" />
    <glyph glyph-name="cent.c2sc" horiz-adv-x="1032" 
d="M123 541q0 76 22.5 142.5t66.5 119.5t108.5 87t146.5 46v154h164v-154q63 -10 116.5 -36t91.5 -63.5t60.5 -83.5t26.5 -98h-181q-4 27 -19 51.5t-41 45t-60.5 32t-75.5 11.5q-59 0 -105.5 -19.5t-75 -54.5t-43 -81t-14.5 -99t14.5 -101.5t44 -84.5t72.5 -56t99 -20
q45 0 80.5 13t61.5 34.5t41 47t21 52.5h173q-6 -51 -29 -98t-62 -86t-91 -65.5t-113 -39.5v-162h-164v162q-80 12 -142.5 47t-105.5 89.5t-65.5 122t-22.5 145.5z" />
    <glyph glyph-name="Euro.c2sc" horiz-adv-x="1032" 
d="M23 379l28 98h113v55v19.5v15.5t1 16.5t1 16.5h-111l31 98h92q16 88 49 159t85.5 123t126 81t167.5 29q82 0 146.5 -23t110.5 -64.5t74 -98t38 -126.5h-164q-6 35 -22.5 65.5t-41 52.5t-58.5 34t-75 12q-49 0 -90 -16.5t-71.5 -48t-52 -76.5t-33.5 -103h333l-30 -98h-316
q0 -8 -1 -16.5t-1 -16.5v-15v-20v-55h312l-31 -98h-268q10 -61 31.5 -109.5t53 -81t72.5 -49t92 -16.5q37 0 68 10t54.5 27.5t40 43t26.5 58.5h164q-14 -66 -42 -118t-72 -90t-105.5 -58.5t-141.5 -20.5q-94 0 -169 30t-128 83t-86 127t-47 164h-153z" />
    <glyph glyph-name="yen.c2sc" horiz-adv-x="1032" 
d="M41 1065h213l272 -442h4l273 442h188l-375 -598h244v-98h-246v-107h246v-98h-246v-164h-180v164h-254v98h254v107h-254v98h242z" />
    <glyph glyph-name="sterling.c2sc" horiz-adv-x="1032" 
d="M41 147q0 43 15.5 76t43 56.5t65.5 36t81 12.5q16 0 31.5 -2t31 -5.5t30.5 -8.5t30 -11v35q0 20 -3.5 40.5t-8.5 40t-11 39t-14 40.5h-193v110h142q-12 27 -20.5 49.5t-15.5 45t-11.5 47t-4.5 47.5q0 68 22.5 123t65.5 93t104.5 58.5t135.5 20.5q72 0 127 -18.5t95 -54.5
t61.5 -88t27.5 -118h-163q-4 35 -16.5 61.5t-31 44t-44 25.5t-56.5 8q-33 0 -59.5 -9t-47 -28.5t-30.5 -47t-10 -62.5q0 -27 4 -51.5t12 -48t16.5 -45t22.5 -52.5h264v-110h-219q6 -14 10 -29.5t7 -32t4 -33t1 -32.5q0 -18 -2 -37t-5 -38.5t-7 -37.5t-10 -37
q43 -31 63.5 -44t47 -27.5t52 -22.5t50.5 -8q27 0 45 9t29.5 26.5t16.5 42t7 59.5h148q-4 -66 -17.5 -116t-40 -87t-71.5 -56.5t-109 -19.5q-39 0 -75 11.5t-68.5 31t-60 40t-68.5 55.5q-20 -29 -44 -52.5t-51.5 -41t-58.5 -26.5t-65 -9q-45 0 -82 11t-62.5 32.5t-39 52.5
t-13.5 67zM156 156q0 -14 5 -27.5t15 -24t25.5 -16.5t36.5 -6q25 0 45 8t33.5 22.5t23.5 34t16 43.5q-14 8 -28.5 15.5t-27.5 12.5t-26.5 8t-27.5 3q-25 0 -42.5 -6t-27.5 -17t-15 -23.5t-5 -26.5z" />
    <glyph glyph-name="AE.aalt" horiz-adv-x="1802" 
d="M0 0l827 1065h836v-156h-598v-291h483v-151h-483v-311h614v-156h-794v262h-482l-198 -262h-205zM514 410h371v475h-8z" />
    <glyph glyph-name="Agrave.aalt" horiz-adv-x="1073" 
d="M16 0l418 1065h213l410 -1065h-189l-96 258h-477l-98 -258h-181zM176 1565h213l213 -336h-131zM350 406h367l-176 479h-9z" />
    <glyph glyph-name="Aacute.aalt" horiz-adv-x="1073" 
d="M16 0l418 1065h213l410 -1065h-189l-96 258h-477l-98 -258h-181zM350 406h367l-176 479h-9zM471 1229l213 336h213l-295 -336h-131z" />
    <glyph glyph-name="Adieresis.aalt" horiz-adv-x="1073" 
d="M16 0l418 1065h213l410 -1065h-189l-96 258h-477l-98 -258h-181zM242 1229v188h180v-188h-180zM350 406h367l-176 479h-9zM651 1229v188h180v-188h-180z" />
    <glyph glyph-name="Acircumflex.aalt" horiz-adv-x="1073" 
d="M16 0l418 1065h213l410 -1065h-189l-96 258h-477l-98 -258h-181zM193 1229l262 336h163l263 -336h-172l-172 229l-172 -229h-172zM350 406h367l-176 479h-9z" />
    <glyph glyph-name="Atilde.aalt" horiz-adv-x="1073" 
d="M16 0l418 1065h213l410 -1065h-189l-96 258h-477l-98 -258h-181zM201 1229q2 47 15 87t39 70.5t61.5 47t80.5 16.5q41 0 79 -13.5t89 -39t74 -35.5t45 -10q20 0 35.5 8t27 22.5t17.5 32t10 35.5h98q-2 -47 -15 -87t-38.5 -70.5t-61.5 -47t-81 -16.5q-41 0 -79 13t-89 39
t-73.5 36t-45.5 10q-20 0 -35.5 -8t-27 -22.5t-17.5 -32t-10 -35.5h-98zM350 406h367l-176 479h-9z" />
    <glyph glyph-name="Aring.aalt" horiz-adv-x="1073" 
d="M16 0l418 1065h213l410 -1065h-189l-96 258h-477l-98 -258h-181zM332 1417q0 43 16.5 79t45 62.5t65.5 41t78 14.5t77.5 -14.5t65.5 -41t45 -62.5t16 -79t-16 -78.5t-45 -62.5t-65.5 -41t-77.5 -14t-78 14t-65.5 41t-45 62.5t-16.5 78.5zM350 406h367l-176 479h-9z
M430 1417q0 -23 8 -42t22.5 -33.5t34 -22.5t42.5 -8t42 8t33.5 22.5t22.5 34t8 41.5q0 23 -8 42.5t-22.5 33.5t-34 22.5t-41.5 8.5q-23 0 -42.5 -8.5t-34 -22.5t-22.5 -33.5t-8 -42.5z" />
    </font>
</defs>
</svg>
